<?xml version="1.0" encoding="UTF-8"?>
<svg width="20px" height="24px" viewBox="0 0 20 24" version="1.1" xmlns="http://www.w3.org/2000/svg" xmlns:xlink="http://www.w3.org/1999/xlink">
    <!-- Generator: Sketch 48.2 (47327) - http://www.bohemiancoding.com/sketch -->
    <title>android</title>
    <desc>Created with Sketch.</desc>
    <defs></defs>
    <g id="Page-1" stroke="none" stroke-width="1" fill="none" fill-rule="evenodd">
        <g id="android" fill="#3DB39E" fill-rule="nonzero">
            <path d="M1.51676113,7.5062268 C0.70291498,7.5062268 0.0432388664,8.09336082 0.0432388664,8.81938144 L0.0432388664,14.4362887 C0.0432388664,15.161567 0.702995951,15.750268 1.51676113,15.750268 C2.32979757,15.750268 2.9902834,15.1616495 2.9902834,14.4362887 L2.9902834,8.81938144 C2.99036437,8.09410309 2.32987854,7.5062268 1.51676113,7.5062268 Z M12.6623482,2.01319588 L13.9501215,0.705237113 C14.1093117,0.543835052 14.1093117,0.283298969 13.9501215,0.121072165 C13.7909312,-0.0403298969 13.534413,-0.0403298969 13.3751417,0.121072165 L11.7903644,1.73245361 C11.2234818,1.59125773 10.625668,1.51323711 10.0035628,1.51323711 C9.38882591,1.51323711 8.79611336,1.59059794 8.23587045,1.728 L6.65392713,0.121154639 C6.49473684,-0.0402474227 6.23740891,-0.0402474227 6.07894737,0.121154639 C5.91975709,0.282556701 5.91975709,0.543835052 6.07894737,0.705319588 L7.36008097,2.00651546 C5.22242915,2.84140206 3.73708502,4.65162887 3.73708502,6.75538144 C3.73708502,6.78094845 16.268502,6.75686598 16.268502,6.75538144 C16.2692308,4.65690722 14.7919838,2.85113402 12.6623482,2.01319588 Z M8.15991903,5.25756701 C7.75230769,5.25756701 7.42275304,4.92272165 7.42275304,4.50820619 C7.42275304,4.09451546 7.75222672,3.75884536 8.15991903,3.75884536 C8.56761134,3.75884536 8.89708502,4.09443299 8.89708502,4.50820619 C8.89781377,4.92189691 8.56607287,5.25756701 8.15991903,5.25756701 Z M11.8463968,5.25756701 C11.4387854,5.25756701 11.1092308,4.92272165 11.1092308,4.50820619 C11.1092308,4.09451546 11.4387045,3.75884536 11.8463968,3.75884536 C12.2540081,3.75884536 12.5835628,4.09443299 12.5835628,4.50820619 C12.5835628,4.92197938 12.2532794,5.25756701 11.8463968,5.25756701 Z M18.4732794,7.5062268 C17.6594332,7.5062268 16.9990283,8.09336082 16.9990283,8.81938144 L16.9990283,14.4362887 C16.9990283,15.161567 17.6595142,15.750268 18.4732794,15.750268 C19.2870445,15.750268 19.9460729,15.1609072 19.9460729,14.4362887 L19.9460729,8.81938144 C19.9460729,8.09410309 19.285587,7.5062268 18.4732794,7.5062268 Z M3.73708502,16.492866 C3.73708502,17.7317113 4.72340081,18.7348454 5.9411336,18.739299 L5.9411336,22.675134 C5.9411336,23.4011546 6.60089069,23.9891134 7.41465587,23.9891134 C8.22769231,23.9891134 8.88744939,23.4012371 8.88744939,22.675134 L8.88744939,18.739299 L11.1018623,18.739299 L11.1018623,22.675134 C11.1018623,23.4011546 11.7616194,23.9891134 12.5753846,23.9891134 C13.3884211,23.9891134 14.0481781,23.4012371 14.0481781,22.675134 L14.0481781,18.739299 L14.0577328,18.739299 C15.2791903,18.739299 16.2691498,17.7331959 16.2691498,16.492866 L16.2691498,7.504 L3.73781377,7.504 L3.73781377,16.492866 L3.73708502,16.492866 Z" id="Shape"></path>
        </g>
    </g>
</svg>