<?xml version="1.0" encoding="UTF-8"?>
<svg width="1433px" height="726px" viewBox="0 0 1433 726" version="1.1" xmlns="http://www.w3.org/2000/svg" xmlns:xlink="http://www.w3.org/1999/xlink">
    <!-- Generator: Sketch 48.2 (47327) - http://www.bohemiancoding.com/sketch -->
    <title>Group</title>
    <desc>Created with Sketch.</desc>
    <defs></defs>
    <g id="Page-1" stroke="none" stroke-width="1" fill="none" fill-rule="evenodd">
        <g id="Group" transform="translate(0.000000, 2.000000)">
            <path d="M78,65.941682 L114.479942,65.941682 C117.050158,62.4115008 121.182283,61.2347737 126.876315,62.4115008 C123.605108,53.7865753 136.549704,31.3586237 158.622488,41.5876988 C164.773039,28.8043038 191.943979,35.5052981 189.647843,54.1011145 C187.112308,57.7698641 185.844541,60.5399928 185.844541,62.4115008 C191.007351,61.4601993 194.5149,62.6369264 196.367186,65.941682 C198.536632,65.941682 222.293075,65.941682 267.636514,65.941682" id="Path-2" stroke="#FFFFFF" stroke-width="4"></path>
            <path d="M212,74 L252.858635,74" id="Path-3" stroke="#FFFFFF" stroke-width="4"></path>
            <path d="M108,75 L148.858635,75" id="Path-3-Copy" stroke="#FFFFFF" stroke-width="4"></path>
            <path d="M185,131.354924 L293.871377,131.354924 C297.824615,126.840489 301.909442,124.583271 306.125858,124.583271 C310.342274,124.583271 315.104334,126.207884 320.412035,129.457111 C322.009177,112.481559 328.898864,103.277153 341.081096,101.843894 C353.263328,100.410634 360.38605,102.729616 362.449261,108.800839 C369.677608,87.8285008 384.220503,80.1572944 406.077945,85.7872196 C427.935387,91.4171449 434.955291,104.349162 427.137655,124.583271 C433.932954,125.376885 438.658451,127.634103 441.314146,131.354924 C443.376012,131.354924 457.291959,131.354924 483.061985,131.354924" id="Path-4" stroke="#FFFFFF" stroke-width="4"></path>
            <path d="M306,153 L411.05799,153" id="Path-5" stroke="#FFFFFF" stroke-width="4"></path>
            <path d="M245,141 L279.518742,141" id="Path-6" stroke="#FFFFFF" stroke-width="4"></path>
            <path d="M980,71.3441862 L1051.25714,71.3441862 C1055.48598,61.4139753 1060.24822,56.3960847 1065.54386,56.2905144 C1070.83949,56.1849442 1074.97385,57.6707745 1077.94694,60.7480056 C1084.16845,50.9242629 1092.01989,47.2628288 1101.50124,49.7637032 C1101.50124,33.9046217 1118.8968,15.1373644 1146.08685,18.2381347 C1159.42722,-7.28062744 1197.71286,-6.431072 1211.37208,23.3846859 C1219.38174,14.0698237 1248.22352,24.9913706 1247.5403,42.8696881 C1247.5403,49.0088529 1247.5403,53.4824617 1247.5403,56.2905144 C1259.41904,52.3626295 1267.633,57.38052 1272.18219,71.3441862 C1278.82862,71.3441862 1308.39212,71.3441862 1360.87267,71.3441862" id="Path-7" stroke="#FFFFFF" stroke-width="4"></path>
            <path d="M1188,88 L1288.47871,88" id="Path-8" stroke="#FFFFFF" stroke-width="4"></path>
            <path d="M1204,100 L1214.89082,100" id="Path-9" stroke="#FFFFFF" stroke-width="4"></path>
            <path d="M1057,100 L1163.30775,100" id="Path-10" stroke="#FFFFFF" stroke-width="4"></path>
            <rect id="Rectangle-2" stroke="#FFFFFF" stroke-width="3" x="591.5" y="41.5" width="296" height="206" rx="4"></rect>
            <path d="M631,73 L724.62263,73" id="Path-11" stroke="#FFFFFF" stroke-width="3"></path>
            <path d="M630,86 L691.64222,86" id="Path-12" stroke="#FFFFFF" stroke-width="3"></path>
            <path d="M629,108 L725.160847,108" id="Path-13" stroke="#FFFFFF" stroke-width="3"></path>
            <path d="M629,140 L680.765234,140" id="Path-14" stroke="#FFFFFF" stroke-width="3"></path>
            <path d="M629,122 L667.002961,122" id="Path-15" stroke="#FFFFFF" stroke-width="3"></path>
            <rect id="Rectangle-3" fill="#4EAACD" x="749" y="61" width="43" height="20"></rect>
            <polyline id="Path-16" stroke="#FFFFFF" stroke-width="3" points="638 161 638 233.871716 758.325298 233.871716"></polyline>
            <path d="M624,178 L768.337273,178" id="Path-17" stroke="#FFFFFF" stroke-width="3"></path>
            <rect id="Rectangle-4" fill="#6DC9E6" x="646" y="201" width="16" height="28"></rect>
            <rect id="Rectangle-4-Copy" fill="#6DC9E6" x="668" y="189" width="16" height="40"></rect>
            <rect id="Rectangle-4-Copy-2" fill="#6DC9E6" x="692" y="178" width="16" height="52"></rect>
            <rect id="Rectangle-4-Copy-3" fill="#6DC9E6" x="715" y="188" width="16" height="42"></rect>
            <rect id="Rectangle-4-Copy-4" fill="#6DC9E6" x="738" y="166" width="16" height="65"></rect>
            <circle id="Oval" stroke="#FFFFFF" stroke-width="3" cx="826.5" cy="144.5" r="23.5"></circle>
            <circle id="Oval-2" stroke="#FFFFFF" stroke-width="3" cx="827.5" cy="145.5" r="43.5"></circle>
            <path d="M828.176983,102.058341 L828.176983,120.664464 C837.613239,122.380681 844.113135,126.859759 847.676671,134.101699 C851.240207,141.343639 850.952246,149.16467 846.812787,157.564792 C840.966687,164.375252 833.643283,167.900499 824.842577,168.140533 C817.478376,166.523936 813.139417,164.630073 811.825702,162.458944 L798,176.231965 C808.098574,186.722686 821.41787,190.359975 837.95789,187.143833 C854.497909,183.92769 865.492343,172.60536 870.941193,153.176842 C870.941193,130.875407 865.08948,116.653138 853.386054,110.510037 C841.682629,104.366936 833.279605,101.549704 828.176983,102.058341 Z" id="Path-18" fill="#4EAACD"></path>
            <path d="M827.725115,102 L827.725115,120.603445 C817.552081,122.296344 810.463418,126.10788 806.459126,132.038052 C800.452689,140.933312 801.508655,154.7539 810.745847,162.929259 C808.104255,166.080955 803.560806,170.682231 797.1155,176.733086 C786.969284,169.368698 782.70994,156.913184 784.337469,139.366543 C785.964998,121.819902 796.479406,109.885946 815.880693,103.564674 L827.725115,102 Z" id="Path-19" fill="#6DC9E6"></path>
            <polyline id="Path-20" stroke="#FFFFFF" stroke-width="3" points="749 91 797.724357 91 808.644302 116.860063"></polyline>
            <rect id="Rectangle-5" stroke="#FFFFFF" stroke-width="3" x="590.5" y="256.5" width="303" height="6" rx="3"></rect>
            <path d="M910.068055,100.077287 L891.106266,105.610608 C888.350802,100.517675 886.982105,95.628631 887.000177,90.9434777 C887.018248,86.2583244 890.323705,82.9438318 896.916548,81 C900.104149,82.9697601 903.558497,84.5757392 907.279591,85.8179373 C912.861233,87.6812345 921.725153,81.809668 927.291474,90.9434777 C932.857794,100.077287 937.871372,111.680172 925.132359,125.213532 C924.179734,126.137182 923.703421,125.080301 923.703421,122.042888 C928.506897,118.097366 930.061067,115.008019 928.365932,112.774845 C925.82323,109.425084 922.028318,110.926578 922.116458,112.241999 C922.204598,113.55742 911.130335,104.991764 911.130335,102.534526 C911.130335,100.896367 910.776242,100.077287 910.068055,100.077287 Z" id="Path-21" fill="#453427"></path>
            <path d="M893,105.08344 L893.537125,124.389392 L893.537125,137.746906 C895.072716,139.125009 897.117809,139.650775 899.672403,139.324204 C899.672403,142.608752 898.141556,148.042579 896.336202,147.874463 C894.530847,147.706347 891.101036,157.80685 898.141556,157.791391 C905.182076,157.775932 913.332817,157.939217 922.42414,150.820362 C928.485021,146.074459 929.209983,143.701508 924.599023,143.701508 L924.599023,125.698573 L924.015854,121.691629 C928.367306,117.777934 930.171316,115.181907 929.427886,113.903548 C928.312741,111.986009 924.631218,109.002392 922.42414,111.986009 C918.716181,110.009713 911.983022,104.717875 911.639162,102.772504 C911.409922,101.47559 911.109678,100.551422 910.738428,100 L893,105.08344 Z" id="Path-22" fill="#F6B48B"></path>
            <path d="M894,124.657692 L894,128.093455 L900.12699,128.093455 L900.12699,131.119228 L894,131.119228 L894,137.88915 C895.313399,139.273955 898.514475,139.782977 903.603228,139.416216 C911.236359,138.866076 921.088225,131.653398 921.197812,126.725813 C921.270871,123.440757 921.43415,118.691963 921.687652,112.479432 L919.122808,111 C917.65595,123.955928 915.076971,130.237204 911.385872,129.843827 C905.849222,129.253761 902.066525,125.235367 901.714082,124.94653 C901.479121,124.753972 898.90776,124.657692 894,124.657692 Z" id="Path-23" fill="#403524"></path>
            <path d="M893.803333,148.029034 C883.845317,150.034566 878.577539,156.720429 878,168.086621 C880.699033,171.893156 882.416147,174.24414 883.151342,175.139574 L885.901667,246.052168 C887.071586,252.86154 895.500515,255.877026 911.188453,255.098625 C926.876391,254.320224 937.429137,253.468417 942.84669,252.543203 L942.84669,198.508668 L938.867061,185.098108 C950.576545,179.04929 956.327605,175.323941 956.120242,173.922061 C955.809197,171.819242 956.569819,150.99166 936.413336,146.904297 C931.109892,145.847877 927.943723,145.213112 926.914828,145 C921.610523,152.172078 914.83559,156.148431 906.590028,156.929059 C894.221686,158.1 893.945746,157.241586 893.217112,153.717793 C892.731357,151.368598 892.926764,149.472345 893.803333,148.029034 Z" id="Path-24" fill="#E8854C"></path>
            <path d="M877.934612,167 L866.193914,204.371611 L842.245675,204.371611 C839.203983,196.379151 836.529633,192.313634 834.222625,192.175059 C831.915617,192.036485 831.836878,193.288975 833.986408,195.93253 C835.314788,197.362523 835.686253,198.320524 835.100802,198.806533 C834.222625,199.535547 823.061058,197.866227 819.16872,196.440465 C815.276381,195.014704 816.411023,197.644338 816.493217,197.866227 C816.575411,198.088115 828.453949,201.59768 826.478724,201.929511 C825.161906,202.150732 821.077843,201.272765 814.226533,199.295609 C813,199.708209 812.693367,200.365449 813.306633,201.267329 C813.9199,202.16921 817.708378,203.34003 824.67207,204.779789 C817.708378,202.819562 814.226533,202.329506 814.226533,203.309619 C814.226533,204.289732 817.708378,205.738312 824.67207,207.65536 C825.09109,208.686313 824.1812,209.221986 821.942401,209.262379 C818.584202,209.322969 816.275527,211.090515 817.976912,211.408089 C819.111169,211.619804 822.544815,211.513946 828.277851,211.090515 C829.274613,213.41753 832.388712,213.999283 837.62015,212.835776 C841.744425,214.354 852.829315,216.016965 870.87482,217.824673 C874.904205,214.828983 877.761205,212.266923 879.445819,210.138491 C881.130433,208.01006 882.651907,204.515244 884.01024,199.654043 L883.183226,175.221088 L877.934612,167 Z" id="Path-25" fill="#F6B48B"></path>
            <path d="M939,184.866473 L950.047821,209.196388 C952.062974,226.800846 955.967217,240.717038 961.760548,250.944964 C961.760548,257.027522 962.229597,265.210429 963.167697,275.493686 C964.09843,277.646166 964.859774,277.873251 965.451729,276.17494 C966.043683,274.47663 966.339661,272.441276 966.339661,270.068879 C968.568137,270.397913 968.977268,272.433266 967.567052,276.17494 C964.64048,278.651309 965.123909,282.463383 965.986921,282.432791 C966.849934,282.4022 971.695875,279.272712 972.691034,273.318194 C973.686194,267.363677 971.028286,258.610143 969.297669,256.258345 C969.297669,253.375254 968.417603,207.424648 960.254686,199.457076 C959.111213,189.730007 958.016136,181.577648 956.969456,175 L939,184.866473 Z" id="Path-26" fill="#F4B68A"></path>
            <path d="M887.613879,251 C879.373058,282.64788 875.224366,304.588598 875.167804,316.822152 C875.111241,329.055707 872.38864,354.879474 867,394.293452 C870.290345,398.297576 874.548578,400.299637 879.774698,400.299637 C885.000818,400.299637 888.33801,400.299637 889.786272,400.299637 C899.025388,352.409716 902.59896,324.583887 900.506989,316.822152 C898.415019,309.060417 902.136751,297.993571 911.672187,283.621614 L939.293955,400.299637 L955.823159,400.299637 C951.027719,350.533092 947.521353,324.107545 945.304062,321.022997 C943.08677,317.938448 941.083401,296.166625 939.293955,255.707527 L939.293955,253.74296 C914.827799,255.404822 900.903072,255.820288 897.519772,254.989356 C894.136473,254.158425 890.834508,252.82864 887.613879,251 Z" id="Path-27" fill="#2E2D2B"></path>
            <path d="M903,258 L911.549601,283.741835 L939.305751,399.872781 L954.368686,399.872781 C949.210423,354.260275 944.189445,329.158867 939.305751,324.568557 C939.305751,318.144771 936.731846,295.955252 931.584036,258 L903,258 Z" id="Path-28" fill="#3C3C3C"></path>
            <path d="M906.113658,268.990852 C897.206212,293.748701 892.701269,307.90779 892.598829,311.468121 C892.445168,316.808616 890.229108,381.694222 886.043682,390.219781 C883.253398,395.903486 880.985769,399.528974 879.240796,401.096244 C871.334062,399.237681 867.259438,396.494784 867.016926,392.867554 C866.774414,389.240324 869.137863,373.656127 874.107273,346.114962 C875.089168,311.85384 877.324044,291.221487 880.811899,284.217901 C882.200072,275.555058 884.759343,264.482425 888.48971,251 C892.722524,254.551968 896.718052,256.0384 900.476294,255.459298 C901.549481,259.522074 903.428602,264.032592 906.113658,268.990852 Z" id="Path-32" fill="#3C3C3C"></path>
            <path d="M868.208226,396 C855.008107,402.569476 846.801015,405.854215 843.586947,405.854215 C838.765846,405.854215 841.587092,408.950704 844.745574,408.950704 C846.851228,408.950704 860.150946,408.598798 884.644728,407.894984 L884.644728,400.248297 C877.816953,400.133819 873.547165,399.39715 871.835365,398.03829 C870.123565,396.67943 868.914519,396 868.208226,396 Z" id="Path-33" fill="#CE964B"></path>
            <path d="M941.011431,401 C940.872616,411.156543 941.998096,416.234814 944.387871,416.234814 C947.972533,416.234814 962.236869,411.902612 958.671337,408.617407 C956.294315,406.427271 954.711678,403.888135 953.923425,401 L941.011431,401 Z" id="Path-34" fill="#CE964B"></path>
            <polygon id="Path-46" fill="#FFFFFF" points="48 409 48 452.755618 106.541398 452.755618 106.541398 667.434797 158.322482 667.434797 158.322482 449.770738 219.943693 449.770738 219.943693 409"></polygon>
            <path d="M247,409.70112 L269.578012,409.70112 C309.160427,398.066634 348.141081,404.239342 386.519974,428.219244 C417.04469,475.488088 414.809388,516.819203 379.814069,552.212591 L410.903268,667.287363 L360.481171,667.287363 L322.668093,571.623371 L298.726134,571.623371 L298.726134,667.287363 L247,667.287363 L247,409.70112 Z M298.000042,452.374787 L298.000042,527.09444 C321.769922,530.983166 337.564185,528.474921 345.382829,519.569704 C357.110795,506.21188 361.088606,471.012951 342.395312,457.002182 C337.728395,453.917252 322.929972,452.374787 298.000042,452.374787 Z" id="Combined-Shape" fill="#FFFFFF"></path>
            <path d="M421,669.500923 L500.853455,408 L542.512847,408 L623.730077,664.758454 L569.343988,664.758454 L556.234428,612.968567 L491.385285,609.964351 L473.007867,669.500923 L421,669.500923 Z M523.467516,480.464482 L500.224666,568.889035 L545.09787,568.889035 L523.467516,480.464482 Z" id="Combined-Shape" fill="#FFFFFF"></path>
            <polygon id="Path-51" fill="#FFFFFF" points="638 408 638 665.647143 686.766109 665.647143 686.766109 408"></polygon>
            <polygon id="Path-52" fill="#FFFFFF" points="718 409 718 667.572162 763.985463 667.572162 763.985463 497.840951 839.940424 667.572162 889.813202 667.572162 889.813202 409 839.940424 409 839.940424 573.77635 766.989678 409"></polygon>
            <polygon id="Path-52-Copy" fill="#FFFFFF" points="999 409 999 667.572162 1045.52076 667.572162 1045.52076 497.840951 1122.35988 667.572162 1172.8132 667.572162 1172.8132 409 1122.35988 409 1122.35988 573.77635 1048.55995 409"></polygon>
            <polygon id="Path-53" fill="#FFFFFF" points="919 409 919 667.868391 969.730726 667.868391 969.730726 409"></polygon>
            <path d="M1368.8834,487.176224 C1358.90025,439.597985 1341.02501,414.067459 1315.2577,410.584647 C1289.49038,407.101834 1260.79268,409.36004 1229.1646,417.359265 C1209.05222,445.291592 1198.11617,474.136455 1196.35644,503.893854 C1193.71686,548.529953 1189.17372,647.354867 1245.90774,663.187224 C1302.64176,679.019582 1346.4069,660.678364 1359.1056,647.354867 C1364.0139,642.247165 1366.8402,638.98402 1367.5845,637.565432 L1367.5845,532.141992 L1281.9417,532.141992 L1281.9417,570.436505 L1318.11922,570.436505 L1318.11922,613.606538 C1287.36286,630.797586 1265.45404,626.360198 1252.39274,600.294373 C1248.06941,573.821021 1246.7089,536.114972 1248.31123,487.176224 C1250.68393,461.237875 1261.89409,448.093316 1281.9417,447.742548 C1301.98932,447.39178 1314.04849,457.602087 1318.11922,478.373468 L1320.12507,490.992611 L1367.5845,490.992611 L1368.8834,487.176224 Z" id="Path-113" fill="#FFFFFF"></path>
            <path d="M91.3982451,292.722609 C91.843559,282.711365 95.5367284,278.646286 102.477753,280.52737 C109.418778,282.408454 114.075489,285.837861 116.447887,290.815589 C119.362491,276.633075 117.269026,268.669786 110.167493,266.925721 C99.5151923,264.309624 82.2727354,261.904929 79.6272771,277.313769 C77.8636382,287.586329 79.8189563,295.941096 85.4932313,302.378068 L86.9763738,296.339129 C84.128439,293.435782 83.1692649,291.174557 84.0988514,289.555455 C85.028438,287.936353 86.2323977,287.936353 87.7107304,289.555455 L87.7107304,294.105999 L91.3982451,294.105999 L91.3982451,292.722609 Z" id="Path-35" fill="#433A39"></path>
            <path d="M107.023737,315 C115.210455,315.058836 121.002543,316.568146 124.400001,319.527929 C127.797459,322.487712 137.374834,329.006099 153.132124,339.08309 C150.466195,348.491964 149.273456,353.647478 149.553908,354.549632 C149.553908,355.019277 149.553908,355.400259 149.553908,355.692577 L120.684813,343.222188 C113.13933,361.327171 109.663482,371.679736 110.257269,374.279883 C110.851057,376.880031 112.040042,380.635611 113.824225,385.546625 C110.988347,391.113659 105.844197,394.369804 98.3917754,395.31506 C87.2131422,396.732943 86.3452832,397.02261 85.0724233,395.31506 C83.7995634,393.607509 72.4195717,404.398651 68.8404145,403.763743 C65.2612574,403.128836 62.4681216,401.791648 63.8395673,395.877265 C65.2110129,389.962882 68.0338385,377.552117 67.7323717,375.552235 C67.5313938,374.21898 66.8098892,368.833358 65.5678578,359.39537 L54.3183649,376.899336 C44.6020205,375.73247 38.8334322,373.612063 37.0125999,370.538115 C35.1917676,367.464167 35.8265673,366.576367 38.9169988,367.874717 C47.0556387,344.32618 54.0775346,330.838797 59.9826866,327.412565 C65.8878385,323.986334 72.9300511,320.270494 81.1093243,316.265047 L107.023737,315 Z" id="Path-38" fill="#C5524E"></path>
            <path d="M115.354728,290.060946 C114.261504,304.231857 112.343179,311.488365 109.599754,311.830468 C106.856328,312.172572 104.250262,312.172572 101.781555,311.830468 C100.661943,313.104168 100.661943,313.756568 101.781555,313.787669 C102.901167,313.818769 104.267932,314.879479 105.881851,316.969798 C106.389823,323.555056 105.023058,326.847686 101.781555,326.847686 C96.9193017,326.847686 89.7535035,326.253245 85.6192804,321.611522 C82.8631316,318.517039 82.8631316,315.909088 85.6192804,313.787669 L85.6192804,301.530605 L86.5764418,296.125016 C83.7590218,293.530626 82.6062148,291.50927 83.1180209,290.060946 C83.629827,288.612622 84.4635801,287.88846 85.6192804,287.88846 L87.0529188,289.367 L87.0529188,293.836808 L90.8563427,293.836808 C91.1197052,284.711325 93.3770395,280.100201 97.6283455,280.003435 C104.005304,279.858285 110.725712,284.352647 112.385767,286.120554 C113.49247,287.299158 114.482123,288.612622 115.354728,290.060946 Z" id="Path-36" fill="#F2BE8F"></path>
            <path d="M83.7761447,315.173324 L81.3760241,315.173324 C80.4441994,319.820501 81.2442396,323.12986 83.7761447,325.101401 C87.5740023,328.058713 90.3700364,330.816667 100.084757,330.459393 C109.799477,330.102119 108.035506,317.24529 107.885429,316.787778 C107.785377,316.482769 106.946511,315.220177 105.36883,313 L103.127331,313.869325 C104.860642,315.490507 105.74483,316.662052 105.779896,317.383959 C105.832495,318.46682 106.51088,325.578502 103.297818,326.142562 C100.084757,326.706622 89.833674,326.463906 86.1286002,322.203685 C85.4365051,321.40789 84.7237158,320.711473 84.3360732,320.088668 C83.4574397,318.677014 83.2707968,317.038566 83.7761447,315.173324 Z" id="Path-37" fill="#FFFFFF"></path>
            <path d="M38,371 C38.8744981,383.180246 40.713163,391.4608 43.5159947,395.841663 C46.3188264,400.222526 48.5052208,403.886432 50.075178,406.833382 C50.8659764,413.772949 51.7039501,417.850566 52.5890989,419.066233 C53.4742478,420.281899 54.8279605,421.978028 56.6502372,424.15462 C57.3963028,422.15419 57.3963028,420.806018 56.6502372,420.110104 C55.5311388,419.066233 59.8890026,425.452144 60.8460681,426.527109 C61.8031337,427.602074 66.6067454,426.527109 66.3450971,426.527109 C66.1706648,426.527109 63.7141125,423.247993 58.97544,416.689761 C61.8172144,418.630793 63.7559342,420.360194 64.7915993,421.877964 C66.3450971,424.15462 69.0057141,425.019006 68.5196156,423.448485 C68.1955499,422.401471 65.6377008,416.547903 60.8460681,405.887782 C64.324205,409.020915 66.6267106,409.961798 67.7535849,408.710432 C69.4438963,406.833382 61.4954604,402.918861 56.6502372,402.351431 C56.1282014,396.94193 55.0078001,388.150545 53.2890331,375.977276 C45.7376722,374.20185 41.7165256,373.147901 41.2255934,372.815429 C40.7346612,372.482957 39.6594634,371.877814 38,371 Z" id="Path-39" fill="#F6B48B"></path>
            <path d="M153.632533,339.610781 C165.576728,332.094223 171.478422,328.057482 171.337616,327.50056 C171.126405,326.665177 167.515658,313.932674 169.426637,313.134489 C170.700623,312.602365 171.81846,314.186126 172.780149,317.885771 C173.570769,318.9 174.279846,318.9 174.907382,317.885771 C175.534918,316.871542 178.376272,312.909618 183.431444,306 C184.473414,306.221508 184.473414,307.080639 183.431444,308.577394 C182.389474,310.074149 181.261129,312.172169 180.046408,314.871456 C180.148719,315.373994 180.574047,315.373994 181.32239,314.871456 C182.070733,314.368917 184.002574,311.694836 187.117913,306.849213 C188.708142,306.971304 189.323147,307.547365 188.96293,308.577394 C188.602712,309.607423 186.663119,312.174007 183.14415,316.277145 C187.48571,310.757082 189.834618,308.532553 190.190874,309.603559 C190.725257,311.210067 185.722005,316.811736 185.666448,317.348753 C185.610891,317.885771 185.519415,319.465871 186.318664,319.220128 C186.851497,319.056298 188.239997,317.828096 190.484164,315.53552 C192.110053,316.212783 192.516525,316.9962 191.703581,317.885771 C190.484164,319.220128 180.916951,330.696959 179.695984,330.798771 C178.475017,330.900582 163.454152,353.283685 159.250149,353.737445 C156.447481,354.039952 153.364098,353.7719 150,352.933287 L153.632533,339.610781 Z" id="Path-40" fill="#F6B48B"></path>
            <path d="M69,403.820357 L95.3870885,457.483323 L105.421892,515.914842 C107.546353,520.571543 111.088916,521.858918 116.049582,519.776968 C121.010249,517.695017 125.226133,515.612542 128.697235,513.529543 C121.587037,470.224096 116.728448,445.82714 114.121466,440.338676 C111.514484,434.850211 108.614626,425.592369 105.421892,412.565148 C124.878757,417.107406 138.028645,418.615341 144.871557,417.088954 C151.714468,415.562566 143.091632,426.056112 119.00305,448.569592 C116.984351,455.836941 117.898486,460.407439 121.745455,462.281086 C125.592424,464.154734 127.909684,465.869144 128.697235,467.424318 L164.674001,427.817215 C176.804649,409.1293 175.567965,397.654452 160.963949,393.392671 C146.359932,389.13089 130.745771,387 114.121466,387 L70.9486049,394.618309 L69,403.820357 Z" id="Path-41" fill="#285C82"></path>
            <path d="M112,522.158733 C120.96669,532.035884 126.334921,537.027124 128.104693,537.132454 C130.75935,537.290449 144.781301,536.999507 144.097425,534.269221 C143.641507,532.44903 143.413548,531.312451 143.413548,530.859483 L114.53963,521 L112,522.158733 Z" id="Path-44" fill="#E3DE8D"></path>
            <path d="M114,521.174084 C121.507706,529.032695 126.622738,533.005317 129.345097,533.091949 C133.428634,533.221898 141.907455,534.06722 143.140654,532.232188 C143.962787,531.008833 139.106011,524.931437 128.570327,514 L114,521.174084 Z" id="Path-42" fill="#CF6E49"></path>
            <path d="M122.541094,520.046147 C126.184647,517.162326 128.689609,515.82005 130.05598,516.019319 C131.422351,516.218588 132.105537,517.012952 132.105537,518.402411 C127.764388,518.750124 125.327295,519.530775 124.794258,520.744363 C124.261222,521.957951 123.510167,522.300241 122.541094,521.771233 L122,520.42826 L122.541094,520.046147 Z" id="Path-43" fill="#FFFFFF"></path>
            <path d="M125.541094,524.046147 C129.184647,521.162326 131.689609,519.82005 133.05598,520.019319 C134.422351,520.218588 135.105537,521.012952 135.105537,522.402411 C130.764388,522.750124 128.327295,523.530775 127.794258,524.744363 C127.261222,525.957951 126.510167,526.300241 125.541094,525.771233 L125,524.42826 L125.541094,524.046147 Z" id="Path-43-Copy" fill="#FFFFFF"></path>
            <path d="M128.865038,467.334641 C127.836218,478.584502 127.836218,484.803981 128.865038,485.993077 C129.893859,487.182174 128.786342,488.274413 125.542487,489.269795 L120,461 L128.865038,467.334641 Z" id="Path-45" fill="#CF6E49"></path>
            <path d="M558.451117,277.070369 C544.700467,270.014542 533.4657,269.109662 524.746815,274.355731 C511.668487,282.224835 519.10053,294.33575 515.584785,299.561199 C512.06904,304.786649 503.125034,306.394947 502.848195,317.825428 C502.663637,325.445749 505.104478,330.667819 510.170721,333.491637 C509.625156,339.318424 508.591154,342.531641 507.068712,343.131288 C504.785049,344.030759 504.904709,347.09829 500.387073,344.030759 C495.869437,340.963229 498.877383,348.616961 500.387073,349.45437 C501.896762,350.291779 507.881008,356.639977 511.732897,351.395659 C515.584785,346.151342 524.261229,329.134161 528.225558,328.750665 C530.868445,328.495001 533.374149,327.866311 535.74267,326.864595 L536.886571,311.669652 C541.451708,311.768608 544.525415,310.413623 546.107694,307.604698 C547.689973,304.795773 547.689973,299.99625 546.107694,293.206129 C554.336643,285.911773 558.451117,281.979886 558.451117,281.410468 C558.451117,280.84105 558.451117,279.394351 558.451117,277.070369 Z" id="Path-54" fill="#433A39"></path>
            <path d="M539.960998,274 C529.372883,278.917067 524.022038,284.750497 523.908462,291.500289 C523.738098,301.624977 514.049925,313.508041 511.376783,313.891874 C509.594688,314.147762 508.13576,314.147762 507,313.891874 C515.40189,308.987578 519.922581,303.482333 520.562074,297.376138 C521.521312,288.216847 525.781098,278.553989 530.493135,276.276994 C533.634494,274.758998 536.790448,274 539.960998,274 Z" id="Path-55" fill="#382F2E"></path>
            <path d="M540.576317,278 C532.443086,282.99917 528.243054,288.012252 527.976218,293.039247 C527.575965,300.579738 527.188028,317.53062 523.052765,318.379019 C520.295924,318.944619 518.611669,319.916401 518,321.294365 C524.650812,320.591015 527.976218,319.214647 527.976218,317.165261 C527.976218,314.091181 530.998299,290.951774 533.084403,288.284105 C534.47514,286.505659 536.972444,283.077624 540.576317,278 Z" id="Path-56" fill="#382F2E"></path>
            <path d="M518.497737,312 C513.012333,316.980925 510.819495,321.073084 511.919221,324.276475 C513.56881,329.081563 517.007564,334.449741 517.007564,336.138329 C517.007564,337.264055 515.9441,339.107499 513.817172,341.668662 C515.488592,339.800815 515.906447,338.412131 515.070737,337.50261 C513.817172,336.138329 509.306288,326.889408 510.091057,321.613596 C510.614237,318.096388 513.416463,314.891856 518.497737,312 Z" id="Path-57" fill="#382F2E"></path>
            <path d="M556.645213,285.327001 C556.002704,290.137214 556.002704,293.027269 556.645213,293.997165 C557.287723,294.967061 557.878654,296.268563 558.418007,297.90167 C559.599869,298.67378 559.599869,300.094597 558.418007,302.164123 C558.418007,304.407414 557.697264,306.493794 556.25578,308.423265 L555.248406,313.641926 L540.816503,313.641926 C540.512504,318.562632 541.48817,322.233726 543.743499,324.655207 C545.998828,327.076688 549.159988,331.308232 553.226981,337.349837 C550.779883,337.349837 549.089365,337.349837 548.155426,337.349837 C547.221487,337.349837 543.572366,333.843031 537.208062,326.829417 L533,299.640055 C539.762661,294.457063 545.304387,290.557824 549.625179,287.942338 C553.94597,285.326852 556.285982,284.455073 556.645213,285.327001 Z" id="Path-58" fill="#F8CE9E"></path>
            <path d="M512.316198,350.328765 C517.650646,366.258152 519.063327,376.759902 516.554241,381.834017 C512.790612,389.445189 510.168724,392.953415 511.242461,393.18382 C512.316198,393.414226 519.372816,395.336087 522.433083,395.062481 C525.49335,394.788875 543.197527,401.068111 549.606956,395.336087 C550.604285,388.950763 551.102949,377.959042 551.102949,362.360927 C557.789386,353.448738 560.057224,346.937535 557.906464,342.827317 C555.755703,338.7171 554.232673,336.661991 553.337373,336.661991 L547.928296,336.661991 L537.160927,326 L519.251631,327.930521 L512.316198,350.328765 Z" id="Path-59" fill="#94546F"></path>
            <path d="M521.049887,350 L519,384.090536 L532.241254,384.090536 C536.457275,366.31539 538.205144,355.746693 537.484861,352.384444" id="Path-60" fill="#923F62"></path>
            <path d="M512.543861,393.166551 C511.341642,401.112322 512.132576,406.605717 514.916663,409.646738 C517.700751,412.68776 520.872635,415.869711 524.432317,419.192592 L553.406385,462.433669 C551.321195,483.096699 554.397688,499.728841 562.635865,512.330096 C562.635865,516.673043 563.438782,521.762822 565.044618,527.599436 L574.761601,527.599436 L571.187138,477.148295 C568.314883,447.282649 564.256935,430.853349 559.013294,427.860394 C566.878755,427.860394 574.07908,432.064214 589.335596,429.962304 C580.327687,439.748626 578.922864,460.748756 578.922864,462.433669 C578.922864,463.556945 576.841608,469.30026 572.679097,479.663616 L576.038668,485.102828 L607.057088,433.264752 C610.72583,421.835333 608.689433,415.041642 600.947898,412.883681 C593.206363,410.725719 576.301366,403.431159 550.232906,391 L512.543861,393.166551 Z" id="Path-63" fill="#3E4261"></path>
            <path d="M520,385 C520.788773,395.06283 528.000544,404.603108 541.635312,413.620832 C545.232279,417.952544 547.858115,419.821943 549.51282,419.22903 L558.523313,428.258713 C562.209273,427.697504 563.504392,427.006699 562.408672,426.1863 C561.312951,425.3659 560.017832,423.04681 558.523313,419.22903 C560.608611,420.416024 561.90373,421.260978 562.408672,421.763891 C563.690747,423.040817 563.376824,424.063478 563.93066,424.596685 C564.811686,425.444895 565.375177,424.699086 565.621134,422.359258 C560.13693,414.925174 555.507365,411.491144 551.73244,412.05717 C547.541132,407.788506 540.776569,398.76945 531.438751,385 L520,385 Z" id="Path-61" fill="#F4B68A"></path>
            <path d="M551.158325,382 L568.360347,398.282165 L579.46226,398.910341 L586.320582,406.619702 C585.610517,407.935538 584.868175,408.512099 584.093558,408.349387 C583.318941,408.186675 581.608728,406.469127 578.96292,403.196742 C575.70734,403.046834 574.179179,403.391197 574.378434,404.229832 C574.57769,405.068467 575.577971,405.727852 577.379276,406.207987 C578.309403,408.786843 577.861678,409.788457 576.036099,409.212829 C574.210521,408.637201 565.531821,403.319043 550,393.258356 L551.158325,382 Z" id="Path-62" fill="#F4B68A"></path>
            <path d="M567,528.288958 C568.545154,531.868699 570.954738,534.515921 574.228752,536.230624 C579.139772,538.802678 587.220482,542.251971 588.26154,539.660704 C589.302597,537.069436 575.82295,528.866874 575.436156,528.288958 C575.178293,527.903681 572.366241,527.903681 567,528.288958 Z" id="Path-64" fill="#F4B68A"></path>
            <path d="M565.226803,528.118684 C564.421193,533.091558 565.761742,536.473268 569.24845,538.263812 C574.478513,540.94963 585.439195,545.028411 587.601703,545.161893 C589.764211,545.295375 594.495233,543.457471 592.218962,541.595298 C590.701449,540.353849 589.602702,539.578657 588.922722,539.269723 C587.642007,540.637742 585.414046,540.812094 582.238839,539.792782 C577.476029,538.263812 569.780728,534.868813 567.018215,528.474017 C566.407935,527.99988 565.810798,527.881436 565.226803,528.118684 Z" id="Path-65" fill="#3E4261"></path>
            <path d="M580.519992,500.22872 C580.551331,502.037983 580.938777,502.928904 581.68233,502.901483 C582.79766,502.86035 580.273757,507.01052 577.204221,504.74992 C575.157864,503.242853 573.930329,501.344609 573.521617,499.055189 L572,480 L576.554498,486.107454 L580.519992,500.22872 Z" id="Path-67" fill="#31365F"></path>
            <path d="M573,481 L576.644458,486.366167 L580.44822,499.574127 C579.127135,499.385161 577.604585,498.124235 575.880571,495.79135 C574.156557,493.458466 573.196367,491.990013 573,491.385992 L573,481 Z" id="Path-66" fill="#F4B68A"></path>
            <polygon id="Path-68" fill="#ACAEB0" points="632 405.381895 632 408.133727 679.689028 408.133727 699.5424 366 689.964974 366 670.909643 405.381895"></polygon>
            <polygon id="Path-69" fill="#FFFFFF" points="691.516514 367 673 405.231269 679.160999 405.231269 697.99725 367.571116"></polygon>
            <path d="M305.556408,297.149045 L304.287312,291.631973 C297.343572,292.041775 293.164196,291.64217 291.749185,290.433157 C290.334174,289.224144 289.349679,288.683128 288.7957,288.810108 C287.694955,289.435563 287.144583,289.976579 287.144583,290.433157 C287.144583,291.118023 284.544758,301.453117 281.938617,301.33102 C279.332477,301.208923 278.550775,298.182811 278.311142,297.971246 C278.071509,297.759682 273.475678,297.536889 274.68928,302.082899 C275.498349,305.113573 277.458685,307.62124 280.570288,309.605902 L280.570288,312.461499 C277.499384,309.864247 275.912239,309.214934 275.808854,310.51356 C275.653777,312.461499 272.478903,324.492269 268.64302,325.983747 C266.085766,326.978066 263.30911,328.357272 260.313055,330.121364 C259.541001,307.904142 260.196973,294.674739 262.28097,290.433157 C265.406965,284.070783 270.292753,276.868038 274.68928,276.868038 C277.620299,276.868038 280.316606,277.485379 282.778204,278.72006 C286.445145,277.058338 289.767135,276.227477 292.744173,276.227477 C297.209731,276.227477 298.086948,274.374278 304.287312,281.246865 C308.420888,285.828589 308.84392,291.129316 305.556408,297.149045 Z" id="Path-70" fill="#6C4D3E"></path>
            <path d="M278.138871,325.607826 C269.235633,325.509518 263.370613,327.189702 260.543811,330.648377 C257.717009,334.107053 256.581354,338.083579 257.136848,342.577957 L267.569436,349.141911 L265.263126,377.644736 C271.096535,382.094162 275.38845,384.318693 278.138871,384.318327 C280.889293,384.317962 288.638604,383.720441 301.386804,382.525766 C303.792601,374.756537 305.912977,370.231096 307.747931,368.949442 C310.500363,367.026961 317.656356,360.541945 314.196219,351.97657 C311.889461,346.266321 313.623549,342.265492 319.398484,339.974083 C317.745162,333.118129 314.987614,328.605844 311.12584,326.437228 C307.264067,324.268613 302.942733,323.547203 298.161838,324.272998 L278.138871,325.607826 Z" id="Path-72" fill="#F4E484"></path>
            <path d="M305.60568,298.527685 C306.356991,301.64122 306.746276,304.350906 306.773536,306.656744 C306.814425,310.115501 303.419521,321.678112 299.568118,321.862953 C297.000516,321.98618 296.451353,322.910995 297.920627,324.637399 C302.25332,332.38692 304.617335,337.456603 305.012673,339.846449 C305.60568,343.431218 304.206759,353.251491 294.316743,347.635921 C287.7234,343.892208 282.464809,336.840285 278.54097,326.480153 L280.817678,324.637399 L280.817678,313.865011 L280.817678,309.833373 C276.952734,306.899018 275.013545,304.086756 275.000113,301.396586 C274.986681,298.706417 276.166967,298.004169 278.54097,299.289844 C280.139711,302.60694 281.833509,303.309187 283.622364,301.396586 C285.411218,299.483985 285.306219,295.125143 283.307367,288.32006 L300.674435,287 L306.26267,291.602122 L305.60568,298.527685 Z" id="Path-71" fill="#F8CA98"></path>
            <path d="M309.261002,369.29959 L319.705433,386.110773 C329.187274,403.342603 335.208529,411.958517 337.7692,411.958517 C340.329871,411.958517 347.162172,411.958517 358.266103,411.958517 C354.411377,408.978136 351.036231,407.379432 348.140665,407.162405 C345.245099,406.945378 343.010592,406.421519 341.437146,405.590829 C330.891373,385.018154 325.156369,371.917947 324.232133,366.290209 C323.307896,360.662471 321.798997,352.232401 319.705433,341 C318.332756,341.385694 317.362058,341.772249 316.793339,342.159667 C316.22462,342.547085 313.293507,344.818488 308,348.973876 L309.261002,369.29959 Z" id="Path-73" fill="#F4B68A"></path>
            <path d="M260.280842,390.786666 C258.253427,395.971151 257.577622,399.280277 258.253427,400.714043 C259.267135,402.864694 265.605789,410.146493 271.922578,411.754512 C276.133771,412.826524 279.925237,413.36253 283.296974,413.36253 C282.02487,409.530318 283.10152,406.690943 286.526925,404.844405 C291.665031,402.074598 303.466774,390.786666 317.374445,390.786666 C326.646225,390.786666 332.273296,390.786666 334.255658,390.786666 L301.233636,383 C291.716321,383.710558 285.226605,384.394976 281.764487,385.053255 C278.302368,385.711534 271.141154,387.622671 260.280842,390.786666 Z" id="Path-75" fill="#37395A"></path>
            <path d="M267.407932,361.499503 L261.22771,376.271912 C263.43523,377.93665 264.914882,378.730806 265.666665,378.65438 C266.418449,378.577954 272.681753,381.606144 284.456578,387.738952 C292.619618,387.210208 298.465438,387.897264 301.994039,389.800119 C305.522639,391.702974 307.171979,392.502027 306.942058,392.197278 L297.640945,395.008464 L297.640945,396.598426 C296.741008,396.8182 295.850097,396.928087 294.968211,396.928087 C293.645383,396.928087 283.244751,393.702942 283.185015,392.727359 C283.12528,391.751776 256.417484,394.346352 251,384.512367 C251.272623,377.927533 253.5541,364.090077 257.844431,343 L268.299774,349.706258 L267.407932,361.499503 Z" id="Path-74" fill="#F4B68A"></path>
            <path d="M282.373911,410.918962 L292.918458,410.918962 C277.056253,440.55169 268.832964,455.97164 268.248591,457.178813 C267.372032,458.989573 259,474.687134 259,475.577606 C259,476.468079 260.308379,483.031974 262.87331,483.031974 C264.583264,483.031974 266.619913,480.837936 268.983255,476.449861 L272.355889,464.7719 L289.076082,445.553075 L285.493595,453.805939 C279.814502,463.415339 277.26456,469.446301 277.843769,471.898823 C278.712583,475.577606 279.13416,477.887698 280.754035,477.655938 C282.373911,477.424177 290.203176,460.99455 290.125922,459.588997 C290.07442,458.651962 304.297326,444.901609 332.794642,418.337937 C341.357097,403.008691 343.030538,394.776197 337.814966,393.640455 C332.599394,392.504714 324.510454,391.624562 313.548144,391 C302.986134,392.63885 292.594723,398.093101 282.373911,407.362752 C281.938542,409.164564 281.938542,410.349968 282.373911,410.918962 Z" id="Path-76" fill="#F4B68A"></path>
            <path d="M303.758568,394.398105 C316.996589,393.415718 323.790861,394.251477 324.141384,396.905385 C324.667169,400.886246 318.379657,417.659479 299.895317,435.996807 C294.321919,441.290785 291.049023,444.154737 290.076628,444.588664 L272.596007,465.000306 C268.569985,479.125781 265.233672,485.226308 262.587067,483.301889 C258.61716,480.415261 257.408777,478.58539 261.719983,471.151759 C264.594121,466.196005 275.179579,446.20772 293.476359,411.186904 L282.51674,411.186904 C283.023044,407.513328 286.04605,404.21468 291.585757,401.290962 C297.125463,398.367244 301.183067,396.069625 303.758568,394.398105 Z" id="Path-77" fill="#EFBE8E"></path>
            <path d="M370.792523,513.288681 C372.034244,515.778906 372.034244,517.024018 370.792523,517.024018 C368.929942,517.024018 353,519.781474 353,529.58225 C353,539.383025 356.716058,548.886581 360.35018,552.841486 C362.772928,555.47809 366.253709,558.478856 370.792523,561.843783 C373.355938,556.700175 374.356669,553.699409 373.794717,552.841486 C372.951789,551.554602 370.792523,546.780332 370.792523,544.750665 C370.792523,543.397553 371.793255,542.111741 373.794717,540.893226 C374.826509,542.964836 375.342405,544.250648 375.342405,544.750665 C375.342405,545.250681 375.725934,545.689283 376.492992,546.066469 L378.591806,546.066469 C378.130721,542.655302 377.589144,540.63707 376.967074,540.011773 C376.345004,539.386476 375.192919,537.312132 373.51082,533.788741 C376.964833,531.058624 380.154601,529.542978 383.080123,529.241803 C387.468406,528.79004 390.093739,522.834839 387.468406,518.932738 C385.718184,516.331338 380.147981,513.687092 370.757797,511 L370.792523,513.288681 Z" id="Path-78" fill="#6F4843"></path>
            <path d="M386.123644,528 C390.720643,534.629104 393.223426,538.39308 393.631993,539.291928 C394.244844,540.640199 394.030037,543.368313 393.019143,543.368313 C392.345213,543.368313 392.549497,544.027345 393.631993,545.34541 C393.896696,548.038861 394.094137,549.385586 394.224317,549.385586 C394.419587,549.385586 396.131768,549.935913 396.115813,549.385586 C396.099858,548.835259 396.144202,556.168586 393.631993,556.231453 C391.957187,556.273365 390.726858,556.29432 389.941007,556.29432 L391.119784,564.351811 L372.041689,564.351811 L372.041689,559.557704 L366,528 L386.123644,528 Z" id="Path-79" fill="#F5B58B"></path>
            <path d="M372.8433,564 C368.849088,565.987927 366.851982,567.47166 366.851982,568.451199 C366.851982,569.920508 368.05257,571.387857 368.05257,573.070137 C368.05257,574.191656 367.36838,575.001051 366,575.498321 C366.032731,583.486586 366.716921,587.521139 368.05257,587.601979 C370.056045,587.723241 376.143365,571.456473 380.523562,571.249442 C384.364292,570.346759 394.456806,570.172637 398.679846,573.382686 C401.495206,575.522719 404.062101,576.328933 406.38053,575.801327 C399.503789,567.933776 394.742878,564 392.0978,564 C389.452721,564 383.034554,564 372.8433,564 Z" id="Path-80" fill="#95C960"></path>
            <path d="M368.671336,587.893545 C379.287681,628.665041 388.694337,652.978397 396.891303,660.833615 C403.393537,657.811989 410.36358,653.884381 417.801432,649.050789 L429.081536,631.013825 C417.013642,611.409314 410.661942,598.355842 410.026436,591.85341 C409.39093,585.350977 407.809921,580.118523 405.283409,576.156047 C389.026552,566.363875 378.428492,564.426072 373.489229,570.342639 C368.549966,576.259207 366.944001,582.109509 368.671336,587.893545 Z" id="Path-81" fill="#7DA352"></path>
            <path d="M374,584.78626 L383.088151,624.10568 C387.156631,631.6454 392.206035,637.060129 398.236363,640.349869 C404.26669,643.639608 415.194396,647.587089 431.019481,652.19231 C436.54099,644.320101 438.913925,640.770264 438.138287,641.5428 C437.362649,642.315335 425.391451,634.63083 402.224694,618.489285 C400.143398,593.819858 396.283565,580.93289 390.645193,579.828381 C385.006821,578.723873 380.529321,578.723873 377.212693,579.828381 L374,584.78626 Z" id="Path-82" fill="#95C760"></path>
            <polygon id="Path-83" fill="#94C664" points="409.413113 583 424.753463 611.555573 449.514167 602.771648 452.290347 611.555573 426.520031 626.604941 406 595.726555"></polygon>
            <path d="M450,603.6866 C457.485662,599.719882 461.998786,597.613769 463.539374,597.368262 C465.079961,597.122754 469.162465,597 475.786884,597 L466.219053,601.116274 C464.484418,602.829825 463.869755,603.6866 464.375065,603.6866 C464.880375,603.6866 465.935843,603.6866 467.541471,603.6866 C471.805514,603.40214 473.245683,603.841338 471.861977,605.004194 C469.786419,606.748478 464.375065,607.928844 464.375065,609.006827 C464.375065,609.725482 460.19661,610.084809 451.8397,610.084809 L450,603.6866 Z" id="Path-84" fill="#F5B58B"></path>
            <path d="M407,577.068573 C413.203479,584.770118 416.305219,589.115811 416.305219,590.105653 C416.305219,591.590416 417.277278,588.376145 416.305219,586.827854 C415.657179,585.79566 412.734893,582.186376 407.538359,576 L407,577.068573 Z" id="Path-85" fill="#FFFFFF"></path>
            <path d="M398,662.560339 C400.508844,667.387673 408.558093,670.17399 422.147748,670.919291 C435.737402,671.664592 454.864945,672.037242 479.530374,672.037242 C485.227897,671.212375 487.647607,668.053408 486.789504,662.560339 C485.502349,654.320736 471.029412,649.690302 465.592241,649.690302 C461.96746,649.690302 460.15507,648.074812 460.15507,644.843833 L479.530374,626.841795 L498.217423,651.876532 L506.97945,662.560339 L525.10606,651.876532 L490.401953,602.766569 C486.298057,597.323552 479.103856,596.542132 468.819349,600.422311 C459.615646,607.857253 446.250416,618.773614 428.723659,633.171392 L418.084811,649.690302 L398,662.560339 Z" id="Path-86" fill="#0F3B74"></path>
            <path d="M438.166057,642 L448.970882,642 C457.784741,645.754543 462.178188,648.044134 462.151223,648.868773 C462.124259,649.693412 462.137741,650.477403 462.191671,651.220745 L435.172968,651.220745 L434,649.65538 L438.166057,642 Z" id="Path-87" fill="#F5B58B"></path>
            <path d="M485.339456,653.694906 L505.356166,653.694906 C507.582146,654.069997 508.526016,656.821982 508.187776,661.950861 C507.680415,669.644179 488.314522,670.589804 486.415376,669.644179 C485.149279,669.013763 483.01082,663.465703 480,653 L485.339456,653.694906 Z" id="Path-88" fill="#403D3C"></path>
            <path d="M511.442895,659.702359 C509.805655,663.741061 509.561736,665.850346 510.711138,666.030214 C512.435242,666.300016 534.481392,670.272035 543.204566,667.534527 C549.020016,665.709522 550.150334,664.136771 546.595523,662.816275 L532.957996,655.868532 L531.868257,650 L523.701797,656.74901 L516.013086,657.980888 L511.442895,659.702359 Z" id="Path-89" fill="#403D3C"></path>
            <path d="M1110.95743,370 L1102.42897,381.426256 C1100.51315,382.597454 1099.74541,383.766765 1100.12574,384.934187 C1100.69624,386.685321 1103.62447,387.361993 1102.42897,390.055228 C1101.23347,392.748464 1098.36753,398.591476 1101.23347,399.378567 C1103.1441,399.903293 1107.00074,401.012911 1112.80341,402.70742 L1106.40171,414.089792 C1105.63459,417.342438 1106.879,419.240326 1110.13495,419.783456 C1115.01887,420.598151 1129.84689,418.499479 1130.93197,417.21975 C1131.65535,416.366597 1132.78597,415.323278 1134.32382,414.089792 L1131.87548,405.407026 C1133.14955,381.802342 1133.46807,370 1132.83103,370 C1132.194,370 1124.9028,370 1110.95743,370 Z" id="Path-91" fill="#F6B48B"></path>
            <path d="M1104,361.925013 C1106.39914,366.819856 1109.16196,369.413458 1112.28845,369.70582 C1116.9782,370.144363 1123.9178,373.26333 1123.9178,377.915867 C1123.9178,381.017559 1122.66109,383.864541 1120.14767,386.456815 L1121.40971,387.856053 C1123.8357,383.571307 1125.75218,381.759401 1127.15915,382.420334 C1129.26961,383.411733 1131.97762,382.144643 1130.31533,389.580137 C1129.20713,394.537132 1129.20713,400.170679 1130.31533,406.480775 C1138.30537,397.726133 1142.26848,389.705986 1142.20465,382.420334 C1142.1089,371.491856 1142.35064,361.061115 1126.04281,358.030558 C1115.17091,356.010186 1109.10505,355 1107.8452,355 L1110.10437,362.696924 L1104,361.925013 Z" id="Path-90" fill="#453427"></path>
            <path d="M1106.62061,414.344201 C1095.73134,416.65237 1089.85262,420.76798 1088.98445,426.691031 C1088.11628,432.614082 1084.12147,460.682823 1077,510.897254 C1083.69125,516.509098 1091.24353,519.31502 1099.65683,519.31502 C1108.07013,519.31502 1118.93858,518.852374 1132.26217,517.927083 L1137.456,482.771686 L1133.93573,459.610557 C1146.70712,459.667681 1153.85507,457.271148 1155.37957,452.420958 C1157.66632,445.145673 1152.60994,424.005308 1143.27284,420.119979 C1137.0481,417.52976 1133.93573,415.156433 1133.93573,413 L1106.62061,414.344201 Z" id="Path-92" fill="#CC5752"></path>
            <polygon id="Path-93" fill="#F6B48B" points="1135.17054 459.220282 1138.52809 491.65117 1115.74274 519.994015 1109 521.150066 1120.1534 529.867692 1152.52668 500.212095 1154.65827 454"></polygon>
            <path d="M1081.32565,479 L1068.24502,521.964955 C1066.08167,523.589314 1065,524.678823 1065,525.233482 C1065,526.06547 1068.00404,544.598438 1071.45869,544.641539 C1074.91333,544.684641 1070.20613,537.928816 1070.37397,534.205112 C1070.5418,530.481409 1073.16283,530.426552 1073.16283,531.404825 C1073.16283,532.057006 1073.55107,534.598903 1074.32754,539.030515 C1076.45954,540.438931 1077.56799,540.438931 1077.65289,539.030515 C1077.73778,537.622099 1076.62934,531.933579 1074.32754,521.964955 L1077.65289,512.743206 L1084.41393,479 L1081.32565,479 Z" id="Path-94" fill="#F6B48B"></path>
            <path d="M1080.71902,513 L1067.36738,566.74152 C1064.24795,583.659833 1063.29582,593.489868 1064.511,596.231623 C1065.72617,598.973378 1087.52223,618.851644 1129.89918,655.866419 C1138.56362,654.623665 1143.72988,650.894999 1145.39796,644.680421 C1137.75105,636.139123 1119.48079,616.831885 1090.58718,586.758707 L1096.39466,572.656208 L1107.26957,519.629355 L1080.71902,513 Z" id="Path-95" fill="#C28943"></path>
            <path d="M1086,517 L1086,530.921433 C1091.76819,535.275121 1094.47527,539.602479 1094.12124,543.903509 C1093.59019,550.355052 1098.58227,585.942443 1098.32951,592.938401 C1098.161,597.602372 1096.75824,624.43945 1094.12124,673.449632 L1112.43079,675.662528 L1121.96318,615.068806 C1122.47046,594.71911 1123.42589,579.544717 1124.82946,569.545627 C1126.23303,559.546538 1127.4242,548.421676 1128.40295,536.171042 C1131.78068,525.136845 1132.89437,519.183122 1131.74403,518.309873 C1130.59368,517.436624 1115.34567,517 1086,517 Z" id="Path-96" fill="#D1994A"></path>
            <path d="M1108.65415,521 L1121.44382,530.20618 C1123.06372,532.5841 1123.06372,534.445919 1121.44382,535.791637 C1119.01397,537.810215 1113.51844,534.900347 1111.0863,533.04101 C1108.65415,531.181673 1103.21018,522.603864 1103.00683,521.801932 C1102.87127,521.267311 1104.75371,521 1108.65415,521 Z" id="Path-97" fill="#C28943"></path>
            <path d="M1099.02122,674 C1095.54828,676.082066 1093.87689,678.694497 1094.00705,681.837295 C1094.20229,686.551491 1101.89447,687.402021 1103.53269,687.402021 C1105.17092,687.402021 1113.06805,687.275601 1112.60726,685.391269 C1112.30006,684.135048 1112.14646,680.851617 1112.14646,675.540978 L1099.02122,674 Z" id="Path-98" fill="#6B4E3E"></path>
            <path d="M1129.89327,656.608951 C1123.44959,672.585253 1120.50752,680.770888 1121.06706,681.165858 C1121.90637,681.758311 1129.66961,676.037991 1134.77129,668.887404 C1138.17241,664.120346 1143.75335,657.958179 1151.51409,650.400904 L1145.89027,645 L1132.76503,652.022671 L1129.89327,656.608951 Z" id="Path-99" fill="#6B4E3E"></path>
            <ellipse id="Oval-3" fill="#3F4243" opacity="0.0986186594" cx="716.5" cy="699.5" rx="716.5" ry="24.5"></ellipse>
            <path d="M1293.19503,286.566761 L1293.19503,315.613622 C1298.90948,317.454427 1301.59364,319.492984 1301.24752,321.729292 C1300.9014,323.965601 1299.20005,326.452471 1296.14347,329.189902 C1293.52583,334.291667 1292.54302,337.795414 1293.19503,339.701146 C1294.17304,342.559743 1293.69542,344.312271 1297.95823,343.975776 C1302.22103,343.639281 1320.0652,336.054129 1320.0652,329.189902 C1320.0652,324.613751 1321.22803,310.899278 1323.5537,288.046483 C1312.55173,282.682161 1306.73014,280 1306.08893,280 C1305.44772,280 1301.14976,282.18892 1293.19503,286.566761 Z" id="Path-101" fill="#BF8A61"></path>
            <path d="M1296.31682,318.221471 L1286,318.221471 C1289.44787,314.200622 1290.75165,311.180521 1289.91135,309.161168 C1288.65089,306.132139 1286.80196,291.027957 1292.33772,283.592852 C1297.87348,276.157747 1309.0482,272.833299 1320.23788,274.365538 C1331.42756,275.897778 1341.56083,290.014867 1336.51901,307.472947 C1331.47719,324.931027 1311.90155,330.497508 1305.68515,327.949027 C1307.44348,324.66922 1311.22327,318.4066 1317.02451,309.161168 C1320.55588,306.342477 1321.627,304.043198 1320.23788,302.263332 C1318.84875,300.483465 1316.75404,301.373398 1313.95373,304.933131 C1312.68799,300.901869 1311.66286,298.044459 1310.87834,296.360903 C1306.70071,287.395836 1302.58784,283.049504 1299.7744,283.592852 C1296.16845,284.289253 1294.64199,288.309314 1295.19501,295.653036 C1292.02287,298.13193 1291.07044,301.225295 1292.33772,304.933131 C1293.605,308.640968 1294.93137,313.070414 1296.31682,318.221471 Z" id="Path-100" stroke="#000000" stroke-width="2" fill="#000000"></path>
            <path d="M1295.79479,328 C1293.71861,333.393188 1292.80546,337.074811 1293.05535,339.044868 C1293.43018,341.999954 1295.71358,346.725402 1304.79341,341.277719 C1313.87325,335.830036 1319.94152,332.459786 1319.9711,328.589942 C1321.48476,328.196647 1324.84318,328.544589 1330.04636,329.633767 C1324.71197,331.932227 1322.22403,335.298354 1322.58255,339.732148 C1322.94107,344.165941 1322.76181,354.742944 1322.04477,371.463154 C1318.91383,380.807213 1317.60865,386.199146 1318.12921,387.638955 C1318.57199,388.863598 1314.69299,384.441697 1308.68316,382.311734 C1304.09437,380.68541 1298.03688,381.497288 1293.05535,380.643011 C1285.38486,379.327608 1281.36641,368.46415 1281,348.052637 L1290.11102,328 L1295.79479,328 Z" id="Path-102" fill="#11417F"></path>
            <path d="M1331.94581,330 C1326.46227,332.484531 1323.67318,335.239563 1323.57853,338.265098 C1323.48388,341.290633 1323.15942,352.592558 1322.60515,372.170876 C1304.02388,368.861753 1293.74552,367.403839 1291.77008,367.797134 C1289.79465,368.190428 1288.20462,368.635528 1287,369.132434 L1290.31593,376.247765 C1291.51554,374.646623 1293.24951,373.985336 1295.51785,374.263904 C1297.7862,374.542473 1307.54183,377.105161 1324.78476,381.951967 C1327.37111,381.105865 1329.21121,378.943642 1330.30505,375.465299 C1331.94581,370.247784 1340.35341,340.943766 1337.74412,335.471883 C1336.00459,331.823961 1334.07182,330 1331.94581,330 Z" id="Path-103" fill="#BF8A61"></path>
            <polygon id="Path-104" stroke="#000000" stroke-width="2" points="1253.64038 360 1257.86745 370.07349 1251 381.04477 1278.75755 381.896962 1284.23857 371.668192 1290.38693 381.04477 1292.40618 381.04477 1282.10779 360"></polygon>
            <polygon id="Path-105" stroke="#000000" stroke-width="2" points="1258.89231 370 1252 381.195974 1279.17775 382.378021 1285.15069 370"></polygon>
            <path d="M1251.66884,381.669603 L1215,441.330984 L1222.88926,443.980862 L1249.94761,418.421782 L1258.02906,469.221038 L1265.09171,469.221038 C1266.83562,434.713091 1267.2716,416.10158 1266.39965,413.386503 C1265.52769,410.671427 1264.605,409.313888 1263.63156,409.313888 L1310.90672,409.313888 C1314.95968,407.975298 1317.44713,406.623712 1318.36907,405.259132 C1323.98843,396.94176 1321.34351,389.13962 1317.35112,386.884318 C1312.37622,384.073996 1304.27834,380.779223 1293.05746,377 L1251.66884,381.669603 Z" id="Path-106" fill="#F9CD7D"></path>
            <path d="M1259.33593,397.021904 C1251.81603,396.736166 1247.76496,399.24601 1247.18272,404.551436 C1246.60047,409.856862 1247.40978,414.668767 1249.61064,418.98715 L1258.08753,469.376508 L1265.16549,469.376508 L1266.69368,415.030191 L1263.41024,409.003334 L1291.06048,409.003334 L1259.33593,397.021904 Z" id="Path-108" fill="#EFBE74"></path>
            <path d="M1215.09749,442 C1205.8626,451.764068 1201.51127,456.700857 1202.0435,456.810367 C1202.84186,456.974634 1206.68043,458.106691 1208.54874,455.237778 C1209.79428,453.32517 1214.52064,449.851459 1222.72782,444.816646 L1215.09749,442 Z" id="Path-109" fill="#BF8A61"></path>
            <path d="M1201.74134,456.241888 L1195.87544,456.241888 C1194.47286,458.024309 1194.75563,459.630019 1196.72376,461.059019 C1199.67596,463.202519 1206.61132,462.771752 1207.07253,461.915386 C1207.38,461.344475 1209.91655,458.502748 1214.68218,453.390206 L1213.19,464.642432 C1220.17456,455.835243 1223.4976,450.931767 1223.15911,449.932003 C1222.82063,448.932239 1222.65138,447.288238 1222.65138,445 C1213.61132,449.639464 1209.09129,452.436199 1209.09129,453.390206 C1209.09129,454.821216 1205.85604,457.401515 1204.71364,457.120654 C1203.95204,456.933414 1202.96128,456.640492 1201.74134,456.241888 Z" id="Path-110" fill="#11417F"></path>
            <path d="M1258.6148,468 L1253,483.399894 C1253.75978,484.504499 1254.69558,485.056801 1255.8074,485.056801 C1256.91922,485.056801 1260.07176,479.71176 1265.26505,469.021677 L1258.6148,468 Z" id="Path-111" fill="#BF8A61"></path>
            <path d="M1252.40204,484.25199 C1250,485.579132 1249.39949,487.288938 1250.60051,489.381408 C1252.40204,492.520113 1254.27832,492.403362 1255.84006,492.041535 C1257.40181,491.679707 1262.44954,487.958242 1261.8595,485.746926 C1261.46614,484.272716 1261.66282,483.288439 1262.44954,482.794096 L1263.42488,485.746926 L1266.51695,485.746926 L1266.08435,469 L1255.84006,485.315644 L1252.40204,484.25199 Z" id="Path-112" fill="#11417F"></path>
        </g>
    </g>
</svg>