<?xml version="1.0" encoding="UTF-8"?>
<svg width="20px" height="30px" viewBox="0 0 20 30" version="1.1" xmlns="http://www.w3.org/2000/svg" xmlns:xlink="http://www.w3.org/1999/xlink">
    <!-- Generator: Sketch 48.2 (47327) - http://www.bohemiancoding.com/sketch -->
    <title>engineer</title>
    <desc>Created with Sketch.</desc>
    <defs></defs>
    <g id="Page-1" stroke="none" stroke-width="1" fill="none" fill-rule="evenodd">
        <g id="engineer" fill="#F07F7D" fill-rule="nonzero">
            <path d="M8.37118421,26.9360577 L8.37118421,28.6443269 C8.37118421,29.3905769 9.19907895,29.9955769 10.2202632,29.9955769 C11.2414474,29.9955769 12.0693421,29.3905769 12.0693421,28.6443269 L12.0693421,27.2335577 L9.74473684,27.2335577 C9.23842105,27.2335577 8.7675,27.1234615 8.37118421,26.9360577 Z" id="Shape"></path>
            <path d="M7.97171053,6.30807692 C9.35118421,6.30807692 10.5261842,5.66894231 10.9728947,4.77384615 L4.97052632,4.77384615 C5.41710526,5.66894231 6.59223684,6.30807692 7.97171053,6.30807692 Z" id="Shape"></path>
            <path d="M18.8126316,19.6010577 L17.4218421,19.6010577 C17.4218421,19.1935577 17.4472368,18.9225 17.2684211,18.52 C17.0226316,17.9670192 16.4971053,17.5056731 15.8143421,17.2249038 L15.7626316,9.70326923 C15.7526316,8.24125 14.1168421,7.01951923 12.1160526,7.01951923 L11.8414474,7.01951923 L8.99973684,11.1028846 L8.99973684,8.26423077 L9.64842105,7.43625 C9.79381579,7.25076923 9.61052632,7.01971154 9.31789474,7.01971154 L6.62434211,7.01971154 C6.33618421,7.01971154 6.15236842,7.24451923 6.28907895,7.42990385 L6.90394737,8.26423077 L6.90394737,11.1030769 L4.10473684,7.01971154 L3.82710526,7.01971154 C1.82631579,7.01971154 0.190526316,8.24144231 0.180526316,9.70346154 L0.123552632,17.97625 C0.119342105,18.5981731 0.805657895,19.1048077 1.65684211,19.1079808 C1.65947368,19.1079808 1.66197368,19.1079808 1.66473684,19.1079808 C2.51210526,19.1079808 3.20118421,18.6075962 3.20552632,17.9875 L3.2625,9.71471154 C3.26342105,9.58384615 3.41802632,9.47990385 3.60065789,9.49365385 C3.75934211,9.50557692 3.87394737,9.61192308 3.87394737,9.72855769 L3.87460526,28.6444231 C3.87460526,29.4124038 4.75131579,30.0306731 5.81315789,29.9941346 C6.80776316,29.9599038 7.57289474,29.3338462 7.57289474,28.60625 L7.57289474,26.3328846 C7.34276316,26.0539423 7.20776316,25.7284615 7.20776316,25.3797115 L7.20776316,20.3740385 C7.20776316,20.0251923 7.34276316,19.6998077 7.57289474,19.4208654 L7.57289474,18.1516346 C7.57289474,17.9936538 7.73473684,17.8521154 7.95065789,17.8438462 C8.18092105,17.835 8.37131579,17.9688462 8.37131579,18.1351923 L8.37131579,18.8176923 C8.76763158,18.6302885 9.23855263,18.5201923 9.74486842,18.5201923 L11.2890789,18.5201923 C11.11,18.9230769 11.1356579,19.1957692 11.1356579,19.60125 L9.74486842,19.60125 C9.16065789,19.60125 8.68723684,19.9473077 8.68723684,20.3741346 L8.68723684,25.3797115 C8.68723684,25.8066346 9.16078947,26.1526923 9.745,26.1526923 L18.8128947,26.1526923 C19.3971053,26.1526923 19.8706579,25.8066346 19.8706579,25.3797115 L19.8706579,20.3740385 C19.8702632,19.9471154 19.3968421,19.6010577 18.8126316,19.6010577 Z M12.0413158,17.6166346 C12.0393421,17.6079808 12.0381579,17.5991346 12.0359211,17.5905769 L12.0359211,9.71586538 C12.0359211,9.58596154 12.1797368,9.48057692 12.3575,9.48019231 C12.5352632,9.47980769 12.6798684,9.58471154 12.6807895,9.71461538 L12.7323684,17.2293269 C12.4780263,17.3349038 12.2453947,17.4653846 12.0413158,17.6166346 Z M15.3261842,19.5560577 L13.2310526,19.5560577 C13.2310526,19.2182692 13.2048684,19.0803846 13.3480263,18.8779808 C13.6068421,19.0217308 13.9285526,19.1078846 14.2784211,19.1078846 C14.2809211,19.1078846 14.2836842,19.1078846 14.2861842,19.1078846 C14.6334211,19.1066346 14.9522368,19.0204808 15.2089474,18.8777885 C15.3526316,19.0805769 15.3261842,19.2189423 15.3261842,19.5560577 Z" id="Shape"></path>
            <path d="M4.77802632,3.73778846 L11.0746053,3.73778846 C11.6532895,3.73778846 12.1225,3.395 12.1225,2.97201923 C12.1225,2.70538462 11.9356579,2.47076923 11.6527632,2.33365385 C11.5822368,1.9075 11.3768421,1.51192308 11.0678947,1.17028846 C10.5260526,0.571057692 9.66736842,0.138653846 8.66605263,0 L8.66605263,1.30711538 C8.66605263,1.60557692 8.33486842,1.84759615 7.92644737,1.84759615 C7.51802632,1.84759615 7.18684211,1.60557692 7.18684211,1.30711538 L7.18684211,0.0132692308 C6.22434211,0.164903846 5.40105263,0.589230769 4.87552632,1.17038462 C4.57671053,1.50076923 4.37473684,1.88173077 4.29789474,2.29201923 C3.96105263,2.41932692 3.73026316,2.67576923 3.73026316,2.97211538 C3.73013158,3.395 4.19934211,3.73778846 4.77802632,3.73778846 Z" id="Shape"></path>
        </g>
    </g>
</svg>