<?xml version="1.0" encoding="UTF-8"?>
<svg width="18px" height="17px" viewBox="0 0 18 17" version="1.1" xmlns="http://www.w3.org/2000/svg" xmlns:xlink="http://www.w3.org/1999/xlink">
    <!-- Generator: Sketch 48.2 (47327) - http://www.bohemiancoding.com/sketch -->
    <title>icon (1)</title>
    <desc>Created with Sketch.</desc>
    <defs></defs>
    <g id="Page-1" stroke="none" stroke-width="1" fill="none" fill-rule="evenodd">
        <g id="icon-(1)" fill-rule="nonzero">
            <path d="M11.298,8.02 C12.593,7.433 12.786,2.965 12.022,1.649 C11.024,-0.069 6.28,0.276 4.782,1.504 C4.61,2.114 4.628,3.221 4.636,4.101 L9.338,4.101 L9.338,4.513 L4.637,4.513 C4.637,4.519 2.544,4.526 2.544,4.526 C-1.065,4.526 -0.99,12.364 3.772,12.364 C3.772,12.364 3.947,10.628 4.253,9.758 C5.198,7.073 9.168,8.986 11.298,8.02 Z M6.375,3.465 C5.833,3.465 5.394,3.026 5.394,2.483 C5.394,1.941 5.833,1.501 6.375,1.501 C6.918,1.501 7.357,1.941 7.357,2.483 C7.358,3.025 6.918,3.465 6.375,3.465 Z" id="Shape" fill="#F8E71C"></path>
            <path d="M13.12,4.691 C13.12,4.691 12.995,6.428 12.689,7.297 C11.744,9.981 7.775,8.069 5.644,9.035 C4.35,9.622 4.155,14.09 4.92,15.406 C5.917,17.125 10.661,16.78 12.16,15.551 C12.332,14.942 12.314,13.835 12.306,12.955 L7.603,12.955 L7.603,12.543 L12.304,12.543 C12.304,12.537 14.621,12.53 14.621,12.53 C17.947,12.53 18.245,4.691 13.12,4.691 Z M10.398,13.42 C10.94,13.42 11.38,13.859 11.38,14.402 C11.38,14.944 10.94,15.383 10.398,15.383 C9.856,15.383 9.417,14.944 9.417,14.402 C9.417,13.859 9.856,13.42 10.398,13.42 Z" id="Shape" fill="#4A90E2"></path>
        </g>
    </g>
</svg>