<?xml version="1.0" encoding="UTF-8"?>
<svg width="20px" height="20px" viewBox="0 0 20 20" version="1.1" xmlns="http://www.w3.org/2000/svg" xmlns:xlink="http://www.w3.org/1999/xlink">
    <!-- Generator: Sketch 48.2 (47327) - http://www.bohemiancoding.com/sketch -->
    <title>java</title>
    <desc>Created with Sketch.</desc>
    <defs></defs>
    <g id="Page-1" stroke="none" stroke-width="1" fill="none" fill-rule="evenodd">
        <g id="java" fill-rule="nonzero">
            <g id="Group" transform="translate(6.157895, 0.000000)" fill="#DB380E">
                <path d="M3.70863158,3.70582031 C2.46347368,4.35578125 1.05226316,5.09246094 0.296105263,6.31125 C-1.01726316,8.43761719 2.98357895,10.7570313 3.15457895,10.8547266 C3.19431579,10.8774219 3.24189474,10.88875 3.28931579,10.88875 C3.33968421,10.88875 3.39010526,10.8759766 3.43105263,10.8505078 C3.51047368,10.8012109 3.533,10.7174609 3.48531579,10.6492578 C3.47084211,10.6285547 2.03473684,8.55824219 2.08810526,7.07300781 C2.107,6.55570312 3.08242105,5.96886719 4.11505263,5.34757813 C5.06084211,4.77851562 6.13294737,4.13355469 6.76021053,3.3790625 C8.13726316,1.71828125 6.60673684,0.085234375 6.59110526,0.06890625 C6.53031579,0.005546875 6.41810526,-0.0173828125 6.32215789,0.013828125 C6.22631579,0.045234375 6.17321053,0.122148437 6.19510526,0.198203125 C6.19821053,0.209023437 6.49584211,1.28894531 5.66763158,2.4015625 C5.32647368,2.86132812 4.57678947,3.25265625 3.70863158,3.70582031 Z" id="Shape"></path>
                <path d="M8.95457895,4.43816406 C9.04242105,4.3890625 9.06821053,4.29949219 9.01510526,4.22800781 C8.96189474,4.15652344 8.84610526,4.125 8.74326316,4.15398438 C8.53173684,4.21367188 3.56347368,5.63503906 3.56347368,7.35242188 C3.56347368,8.53628906 4.24484211,9.16167969 4.74236842,9.61839844 C4.93752632,9.79753906 5.106,9.95222656 5.16152632,10.0842969 C5.31784211,10.4648828 4.94752632,11.1527734 4.79178947,11.3857422 C4.74689474,11.4526953 4.76889474,11.5338672 4.84526316,11.5827734 C4.88652632,11.6092188 4.93805263,11.6226563 4.98963158,11.6226563 C5.03352632,11.6226563 5.07763158,11.6129688 5.11573684,11.5932813 C5.20115789,11.5492188 7.20347368,10.4985156 6.84436842,9.23261719 C6.71057895,8.75144531 6.392,8.39988281 6.11089474,8.08964844 C5.67542105,7.60898438 5.36089474,7.26179687 5.83805263,6.62054688 C6.39710526,5.87257812 8.92894737,4.45238281 8.95457895,4.43816406 Z" id="Shape"></path>
            </g>
            <g id="Group" transform="translate(0.000000, 10.507812)" fill="#73A1FB">
                <path d="M2.17989474,1.14203125 C2.09473684,1.33128906 2.13494737,1.51902344 2.29605263,1.68511719 C2.83463158,2.24007813 4.74236842,2.545625 7.66805263,2.545625 C7.66821053,2.545625 7.66831579,2.545625 7.66842105,2.545625 C8.06484211,2.545625 8.48336842,2.53984375 8.91205263,2.5284375 C13.5896842,2.40417969 15.3246316,1.32261719 15.3962105,1.27664063 C15.4742105,1.22652344 15.4950526,1.14308594 15.4465789,1.07558594 C15.3980526,1.008125 15.2934737,0.97421875 15.1935263,0.994648438 C13.5461053,1.32847656 10.4699474,1.44699219 8.33626316,1.44699219 C5.94873684,1.44699219 4.73284211,1.31933594 4.43515789,1.22507813 C4.58789474,1.06941406 5.53,0.791445313 6.69742105,0.621015625 C6.809,0.604765625 6.88568421,0.52828125 6.87463158,0.444296875 C6.86357895,0.3603125 6.76852632,0.29625 6.65478947,0.29625 C5.97047368,0.29625 2.53863158,0.33703125 2.17989474,1.14203125 Z" id="Shape"></path>
                <path d="M17.8322105,0.028046875 C16.8674211,0.028046875 15.9525263,0.386953125 15.914,0.402148438 C15.8247895,0.437617188 15.7795263,0.513554687 15.804,0.586523438 C15.8285789,0.659375 15.9168421,0.710585938 16.0180526,0.710664063 C16.0385263,0.710664063 18.0760526,0.723046875 18.2605789,1.58707031 C18.4240526,2.33246094 16.3327368,3.54019531 15.5131053,3.94269531 C15.4245789,3.98617187 15.3902105,4.07015625 15.4313158,4.1428125 C15.4663158,4.20464844 15.5474211,4.24332031 15.6348947,4.24332031 C15.6501579,4.24332031 15.6656316,4.24214844 15.681,4.23972656 C15.8755263,4.20882812 20.4392105,3.46242187 19.9566842,1.49035156 C19.6623158,0.281757813 18.6388421,0.028046875 17.8322105,0.028046875 Z" id="Shape"></path>
                <path d="M14.7024737,3.70136719 C14.7183684,3.63820312 14.6829474,3.57394531 14.6121053,3.53703125 L13.5178421,2.96816406 C13.4644737,2.94042969 13.3970526,2.93171875 13.3344211,2.94402344 C13.323,2.94617188 12.1786842,3.16945313 10.5173158,3.30636719 C9.85794737,3.36125 9.11942105,3.39023438 8.38142105,3.39023438 C6.72047368,3.39023438 5.63447368,3.24539063 5.47631579,3.13914063 C5.45536842,3.10929688 5.462,3.09574219 5.46573684,3.08820313 C5.49447368,3.02890625 5.64847368,2.9584375 5.74773684,2.93054688 C5.85736842,2.90042969 5.91647368,2.81207031 5.88236842,2.72910156 C5.84836842,2.64601563 5.73305263,2.59714844 5.61926316,2.61742188 C4.52157895,2.81402344 3.98484211,3.08894531 4.02389474,3.43453125 C4.09326316,4.04726563 6.00547368,4.36175781 7.62205263,4.44488281 C7.85452632,4.45667969 8.10594737,4.46265625 8.36915789,4.46265625 C8.36931579,4.46265625 8.36942105,4.46265625 8.36957895,4.46265625 C11.0576842,4.46265625 14.5037895,3.83667969 14.5382105,3.8303125 C14.6223684,3.81507813 14.6865263,3.76464844 14.7024737,3.70136719 Z" id="Shape"></path>
                <path d="M6.45273684,5.01636719 C6.53563158,4.97636719 6.57236842,4.9003125 6.54294737,4.83027344 C6.51363158,4.76023437 6.42536842,4.71421875 6.32621053,4.71519531 C6.17910526,4.71808594 4.88678947,4.76136719 4.79631579,5.37203125 C4.76894737,5.55453125 4.83936842,5.72128906 5.00573684,5.86757812 C5.46973684,6.27570312 6.72226316,6.51828125 8.83421053,6.60914062 C9.08405263,6.62027344 9.33784211,6.62585937 9.58863158,6.62585937 C12.2736316,6.62585937 14.0819474,6.00191406 14.1576842,5.97535156 C14.2311053,5.94957031 14.2795263,5.89601562 14.2838421,5.83585937 C14.2881579,5.77570312 14.2476842,5.71863281 14.1784211,5.6871875 L12.7955263,5.060625 C12.7475263,5.03890625 12.6901053,5.03171875 12.6353684,5.04003906 C12.6266316,5.04140625 11.7485789,5.1765625 10.4234737,5.31007812 C10.1727368,5.33539062 9.85873684,5.34824219 9.49031579,5.34824219 C8.16663158,5.34824219 6.69431579,5.18773437 6.41194737,5.08261719 C6.40784211,5.06300781 6.41305263,5.03808594 6.45273684,5.01636719 Z" id="Shape"></path>
                <path d="M8.33726316,8.50976562 C14.4874737,8.50589844 17.7883684,7.69414063 18.4242632,7.18332031 C18.6493684,7.00261719 18.6736842,6.83152344 18.6545789,6.71976563 C18.6073158,6.44476563 18.2697895,6.27640625 18.2315263,6.258125 C18.1392105,6.2140625 18.0153158,6.22558594 17.9433158,6.28722656 C17.8714737,6.34886719 17.8697895,6.43894531 17.9418947,6.50054688 C17.9806842,6.53757813 18.0031053,6.59957031 17.8896842,6.68382813 C17.6354737,6.86003906 15.0715263,7.39492188 10.8025263,7.555625 C10.2177368,7.57816406 9.60436842,7.58964844 8.97957895,7.58972656 C5.15731579,7.58972656 2.36,7.20113281 1.99278947,6.97472656 C2.13431579,6.82378906 3.12378947,6.58265625 4.17605263,6.44625 C4.29463158,6.43089844 4.37473684,6.34796875 4.35636842,6.2596875 C4.338,6.17144531 4.22836842,6.11070312 4.10852632,6.12222656 C4.07884211,6.12523438 3.97810526,6.1296875 3.86147368,6.135 C2.12526316,6.21367188 0.118894737,6.38902344 0.0142105263,7.05296875 C-0.0175789474,7.25527344 0.0634210526,7.43894531 0.255052632,7.59878906 C0.723947368,7.98980469 2.07168421,8.5096875 8.33705263,8.5096875 C8.33715789,8.50976562 8.33715789,8.50976562 8.33726316,8.50976562 Z" id="Shape"></path>
                <path d="M19.6322632,7.32726562 C19.5453158,7.29742187 19.4425789,7.3125 19.3777368,7.36445312 C19.3687368,7.37167969 18.4440526,8.08929687 15.6638421,8.51070312 C14.5994737,8.66898437 12.6015789,8.74925781 9.72563158,8.74925781 C6.84431579,8.74925781 4.10257895,8.66511719 4.07526316,8.66425781 C3.96073684,8.66011719 3.86278947,8.72191406 3.84721053,8.80558594 C3.83157895,8.88917969 3.90421053,8.96800781 4.01478947,8.98753906 C4.04331579,8.99253906 6.91663158,9.49214844 10.8452632,9.49214844 C12.7295263,9.49214844 14.5631053,9.37859375 16.2951579,9.15445313 C19.5246842,8.73425781 19.7507895,7.54574219 19.7588421,7.49535156 C19.7701053,7.42492187 19.7190526,7.35710937 19.6322632,7.32726562 Z" id="Shape"></path>
            </g>
        </g>
    </g>
</svg>