<?xml version="1.0" encoding="UTF-8"?>
<svg width="150px" height="45px" viewBox="0 0 150 45" version="1.1" xmlns="http://www.w3.org/2000/svg" xmlns:xlink="http://www.w3.org/1999/xlink">
    <!-- Generator: Sketch 48.2 (47327) - http://www.bohemiancoding.com/sketch -->
    <title>Group 4</title>
    <desc>Created with Sketch.</desc>
    <defs>
        <rect id="path-1" x="0" y="6" width="7" height="10" rx="1"></rect>
    </defs>
    <g id="Page-1" stroke="none" stroke-width="1" fill="none" fill-rule="evenodd">
        <g id="Group-4">
            <g id="Group-2">
                <path d="M0.262165501,28.9279036 L27.5955694,1.1673499 L27.5955694,28.3967411 C23.8706013,29.7707569 21.884825,29.4374458 21.6382404,27.3968078 C21.3916559,25.3561698 21.2683636,22.5669295 21.2683636,19.0290869 C20.3780147,18.2365864 19.5790493,18.2365864 18.8714675,19.0290869 C18.1638856,19.8215875 14.5519301,23.1211931 8.03560077,28.9279036 L0.262165501,28.9279036 Z" id="Path-107" fill="#80BCFA"></path>
                <g id="Group-3" transform="translate(34.000000, 1.000000)">
                    <g id="Rectangle-8">
                        <use fill="#FFFFFF" fill-rule="evenodd" xlink:href="#path-1"></use>
                        <rect stroke="#FFFFFF" stroke-width="1.5" x="0.75" y="6.75" width="5.5" height="8.5" rx="1"></rect>
                    </g>
                    <path d="M9.64322786,0.911026335 L19.7893188,0.911026335 C20.0459278,3.30675566 19.807038,4.5522275 19.0726494,4.64744183 C18.3382608,4.74265617 16.5560875,4.79026334 13.7261296,4.79026334 L9.64322786,0.911026335 Z" id="Path-114" stroke="#FFFFFF" stroke-width="1.5" fill="#FFFFFF"></path>
                    <path d="M13.9632105,10.907171 C14.8702814,16.7472206 14.1070987,19.9594617 11.6736624,20.5438942 C9.2402262,21.1283267 5.82045731,21.6558618 1.41435576,22.1264993 L1.41435576,26.6444225 L11.6736624,26.6444225 C17.000977,24.6434729 19.5656392,21.7038793 19.3676491,17.8256417 C19.3676491,15.2787499 19.2256697,13.8214562 18.9417108,13.4537607 C16.635257,11.8841429 15.3022763,10.9814248 14.9427689,10.7456065 C14.5832615,10.5097881 14.2567421,10.3918789 13.9632105,10.3918789 L13.9632105,10.907171 Z" id="Path-115" stroke="#FFFFFF" stroke-width="1.5" fill="#FFFFFF"></path>
                </g>
                <polygon id="Path-116" fill="#FFFFFF" points="58.0589817 0.904849223 58.0589817 26.4943581 62.8080292 26.4943581 62.8080292 6.26433555 64.9410789 6.26433555 70.2586864 26.4943581 75.5859599 26.4943581 80.7616863 6.90990318 82.7607947 6.90990318 82.7607947 26.4943581 86.9067611 26.4943581 86.9067611 0.904849223 78.3113891 0.904849223 73.9413817 18.1583487 71.546318 18.1583487 66.6167259 0.904849223"></polygon>
                <polygon id="Path-117" fill="#FFFFFF" points="89.4224306 0.498348457 89.4224306 26.337951 94.8861742 26.337951 94.8861742 0.498348457"></polygon>
                <polygon id="Path-118" fill="#FFFFFF" points="97.8432606 0.235816894 97.8432606 26.4318961 101.995666 26.4318961 101.995666 8.83171194 103.998419 8.83171194 116.322827 26.4318961 122.327989 26.4318961 122.327989 0.235816894 117.326013 0.235816894 117.326013 18.2064297 102.573083 0.235816894"></polygon>
                <path d="M125,0 C129.241909,0 134.37325,0 140.394024,0 C149.425184,0 150.624166,12.1843245 148.603544,19.9175763 C147.256463,25.0730775 139.388615,27.2904708 125,26.5697561 L125,0 Z M129.848766,4.96936916 L129.848766,22.2251619 L139.364316,22.2251619 C142.035385,21.4654882 143.345973,18.8142663 143.296082,14.2714962 C143.221244,7.45734105 139.573791,4.37479663 137.148917,4.32377377 C135.532334,4.28975853 133.09895,4.28975853 129.848766,4.32377377 L129.848766,4.96936916 Z" id="Combined-Shape" fill="#FFFFFF"></path>
            </g>
            <text id="Technology-Pvt.-Ltd." font-family="OpenSans-Semibold, Open Sans" font-size="10" font-weight="500" fill="#FFFFFF">
                <tspan x="53" y="42">Technology Pvt. Ltd.</tspan>
            </text>
        </g>
    </g>
</svg>