<?xml version="1.0" encoding="UTF-8"?>
<svg width="20px" height="20px" viewBox="0 0 20 20" version="1.1" xmlns="http://www.w3.org/2000/svg" xmlns:xlink="http://www.w3.org/1999/xlink">
    <!-- Generator: Sketch 48.2 (47327) - http://www.bohemiancoding.com/sketch -->
    <title>machinery</title>
    <desc>Created with Sketch.</desc>
    <defs>
        <linearGradient x1="25.7832179%" y1="60.7966046%" x2="94.6643092%" y2="50.0050008%" id="linearGradient-1">
            <stop stop-color="#5BABE4" offset="0%"></stop>
            <stop stop-color="#2160C1" offset="100%"></stop>
        </linearGradient>
    </defs>
    <g id="Page-1" stroke="none" stroke-width="1" fill="none" fill-rule="evenodd">
        <g id="machinery" fill-rule="nonzero">
            <path d="M7.33322148,8.86868914 C6.48395973,8.86868914 5.79302013,9.63985019 5.79302013,10.5877903 C5.79302013,11.5356554 6.48395973,12.3068165 7.33322148,12.3068165 C8.18255034,12.3068165 8.87348993,11.5356554 8.87348993,10.5877903 C8.87348993,9.63985019 8.18255034,8.86868914 7.33322148,8.86868914 Z M7.33322148,11.2198502 C7.0209396,11.2198502 6.76691275,10.9363296 6.76691275,10.5877903 C6.76691275,10.2392509 7.0209396,9.95565543 7.33322148,9.95565543 C7.64550336,9.95565543 7.89959732,10.2392509 7.89959732,10.5877903 C7.89959732,10.9363296 7.64550336,11.2198502 7.33322148,11.2198502 Z" id="Shape" fill="#4A90E2"></path>
            <path d="M19.445906,16.5098876 L9.40006711,16.5098876 L9.40006711,13.1934831 C10.0455034,12.5550562 10.4533557,11.6238202 10.4533557,10.5877903 C10.4533557,9.30209738 9.82536913,8.1776779 8.89422819,7.57445693 L8.03812081,5.8411985 L11.0196644,5.8411985 C11.2886577,5.8411985 11.5066443,5.59790262 11.5066443,5.2976779 L11.5066443,4.66554307 L15.7990604,4.66554307 L15.7990604,5.92966292 L14.1794631,5.92966292 C14.0106711,5.92966292 13.8539597,6.02719101 13.7652349,6.18741573 C13.6765101,6.34771536 13.6683893,6.54779026 13.7439597,6.71625468 L14.7972483,9.06741573 C14.8826174,9.25782772 15.0545638,9.36794007 15.2331544,9.36794007 C15.3063087,9.36794007 15.380604,9.3493633 15.450604,9.31041199 C15.6910738,9.17617978 15.7885906,8.84973783 15.6683221,8.5811985 L14.9674497,7.01662921 L17.604698,7.01662921 L16.9038255,8.5811985 C16.783557,8.84966292 16.8810738,9.17617978 17.1215436,9.31041199 C17.3622148,9.44486891 17.6546309,9.33580524 17.7748993,9.06741573 L18.8281208,6.71625468 C18.9036242,6.54779026 18.8955034,6.34771536 18.8068456,6.18741573 C18.7181208,6.02719101 18.5614094,5.92966292 18.3926174,5.92966292 L16.7730201,5.92966292 L16.7730201,4.57707865 C17.3843624,4.34906367 17.8263087,3.70456929 17.8263087,2.94659176 C17.8263087,1.99865169 17.1353691,1.22749064 16.2860403,1.22749064 L11.5067114,1.22749064 L11.5067114,0.595505618 C11.5067114,0.295280899 11.2887248,0.0519850187 11.0197315,0.0519850187 L3.64677852,0.0519850187 L3.6442953,0.0531835206 C3.22080537,0.0529588015 2.79154362,0.168164794 2.39510067,0.412059925 C1.78845638,0.785393258 1.34832215,1.39992509 1.15583893,2.14269663 C0.963355705,2.88539326 1.04154362,3.66734082 1.37590604,4.34449438 L4.2395302,10.1423221 C4.22275168,10.2883146 4.21308725,10.436779 4.21308725,10.5877903 C4.21308725,10.7224719 4.22067114,10.855206 4.23409396,10.9859176 L1.26456376,16.5098127 L0.486979866,16.5098127 C0.217986577,16.5098127 0,16.7531086 0,17.0533333 L0,19.4044944 C0,19.7047191 0.217986577,19.948015 0.486979866,19.948015 L19.4459732,19.948015 C19.7149664,19.948015 19.932953,19.7047191 19.932953,19.4044944 L19.932953,17.0533333 C19.9328859,16.7531835 19.7148993,16.5098876 19.445906,16.5098876 Z M7.33322148,12.983221 C6.14979866,12.983221 5.18697987,11.9086142 5.18697987,10.5877903 C5.18697987,9.26696629 6.14979866,8.19235955 7.33322148,8.19235955 C8.5166443,8.19235955 9.47946309,9.26696629 9.47946309,10.5877903 C9.47946309,11.9086142 8.5166443,12.983221 7.33322148,12.983221 Z M16.2861074,3.57865169 C15.9738255,3.57865169 15.7197987,3.29513109 15.7197987,2.94659176 C15.7197987,2.59805243 15.9738255,2.31445693 16.2861074,2.31445693 C16.5983893,2.31445693 16.8524832,2.59805243 16.8524832,2.94659176 C16.8524832,3.29513109 16.5983221,3.57865169 16.2861074,3.57865169 Z M14.8542282,2.31453184 C14.7845638,2.51033708 14.745906,2.72344569 14.745906,2.94666667 C14.745906,3.16981273 14.7846309,3.38292135 14.8542282,3.57872659 L11.5067114,3.57872659 L11.5067114,2.31453184 L14.8542282,2.31453184 Z M10.5328188,4.75423221 L7.50134228,4.75423221 L5.91845638,1.54958801 C5.84583893,1.40254682 5.76281879,1.2659176 5.67194631,1.13902622 L10.5328188,1.13902622 L10.5328188,4.75423221 Z M2.22885906,3.81970037 C1.79771812,2.94681648 2.08322148,1.84516854 2.86530201,1.36404494 C3.11255034,1.21191011 3.38020134,1.13970037 3.64442953,1.13970037 C4.21583893,1.13970037 4.77073826,1.47745318 5.06550336,2.07438202 L7.5552349,7.11513109 C7.48181208,7.1093633 7.40791946,7.10531835 7.33322148,7.10531835 C6.2095302,7.10531835 5.22288591,7.77198502 4.67348993,8.76928839 L2.22885906,3.81970037 Z M4.64020134,12.3432959 C5.18234899,13.3752809 6.1861745,14.0702622 7.33322148,14.0702622 C7.71765101,14.0702622 8.08583893,13.9917603 8.4261745,13.8492135 L8.4261745,16.5098876 L2.40033557,16.5098876 L4.64020134,12.3432959 Z M18.9589933,18.8609738 L0.973892617,18.8609738 L0.973892617,17.5968539 L18.9589933,17.5968539 L18.9589933,18.8609738 Z" id="Shape" fill="url(#linearGradient-1)"></path>
        </g>
    </g>
</svg>