<?xml version="1.0" encoding="UTF-8"?>
<svg width="1465px" height="824px" viewBox="0 0 1465 824" version="1.1" xmlns="http://www.w3.org/2000/svg" xmlns:xlink="http://www.w3.org/1999/xlink">
    <!-- Generator: Sketch 48.2 (47327) - http://www.bohemiancoding.com/sketch -->
    <title>Group</title>
    <desc>Created with Sketch.</desc>
    <defs>
        <linearGradient x1="50%" y1="0%" x2="52.2025358%" y2="91.9917982%" id="linearGradient-1">
            <stop stop-color="#154FB9" offset="0%"></stop>
            <stop stop-color="#66BAEA" offset="100%"></stop>
        </linearGradient>
    </defs>
    <g id="Page-1" stroke="none" stroke-width="1" fill="none" fill-rule="evenodd">
        <g id="Group">
            <rect id="Rectangle-6" fill="url(#linearGradient-1)" x="0" y="0" width="1465" height="824"></rect>
            <path d="M95,101.941682 L131.479942,101.941682 C134.050158,98.4115008 138.182283,97.2347737 143.876315,98.4115008 C140.605108,89.7865753 153.549704,67.3586237 175.622488,77.5876988 C181.773039,64.8043038 208.943979,71.5052981 206.647843,90.1011145 C204.112308,93.7698641 202.844541,96.5399928 202.844541,98.4115008 C208.007351,97.4601993 211.5149,98.6369264 213.367186,101.941682 C215.536632,101.941682 239.293075,101.941682 284.636514,101.941682" id="Path-2" stroke="#FFFFFF" stroke-width="4"></path>
            <path d="M229,110 L269.858635,110" id="Path-3" stroke="#FFFFFF" stroke-width="4"></path>
            <path d="M125,111 L165.858635,111" id="Path-3-Copy" stroke="#FFFFFF" stroke-width="4"></path>
            <path d="M202,167.354924 L310.871377,167.354924 C314.824615,162.840489 318.909442,160.583271 323.125858,160.583271 C327.342274,160.583271 332.104334,162.207884 337.412035,165.457111 C339.009177,148.481559 345.898864,139.277153 358.081096,137.843894 C370.263328,136.410634 377.38605,138.729616 379.449261,144.800839 C386.677608,123.828501 401.220503,116.157294 423.077945,121.78722 C444.935387,127.417145 451.955291,140.349162 444.137655,160.583271 C450.932954,161.376885 455.658451,163.634103 458.314146,167.354924 C460.376012,167.354924 474.291959,167.354924 500.061985,167.354924" id="Path-4" stroke="#FFFFFF" stroke-width="4"></path>
            <path d="M323,189 L428.05799,189" id="Path-5" stroke="#FFFFFF" stroke-width="4"></path>
            <path d="M262,177 L296.518742,177" id="Path-6" stroke="#FFFFFF" stroke-width="4"></path>
            <path d="M997,107.344186 L1068.25714,107.344186 C1072.48598,97.4139753 1077.24822,92.3960847 1082.54386,92.2905144 C1087.83949,92.1849442 1091.97385,93.6707745 1094.94694,96.7480056 C1101.16845,86.9242629 1109.01989,83.2628288 1118.50124,85.7637032 C1118.50124,69.9046217 1135.8968,51.1373644 1163.08685,54.2381347 C1176.42722,28.7193726 1214.71286,29.568928 1228.37208,59.3846859 C1236.38174,50.0698237 1265.22352,60.9913706 1264.5403,78.8696881 C1264.5403,85.0088529 1264.5403,89.4824617 1264.5403,92.2905144 C1276.41904,88.3626295 1284.633,93.38052 1289.18219,107.344186 C1295.82862,107.344186 1325.39212,107.344186 1377.87267,107.344186" id="Path-7" stroke="#FFFFFF" stroke-width="4"></path>
            <path d="M1205,124 L1305.47871,124" id="Path-8" stroke="#FFFFFF" stroke-width="4"></path>
            <path d="M1221,136 L1231.89082,136" id="Path-9" stroke="#FFFFFF" stroke-width="4"></path>
            <path d="M1074,136 L1180.30775,136" id="Path-10" stroke="#FFFFFF" stroke-width="4"></path>
            <rect id="Rectangle-2" stroke="#FFFFFF" stroke-width="3" x="608.5" y="77.5" width="296" height="206" rx="4"></rect>
            <path d="M648,109 L741.62263,109" id="Path-11" stroke="#FFFFFF" stroke-width="3"></path>
            <path d="M647,122 L708.64222,122" id="Path-12" stroke="#FFFFFF" stroke-width="3"></path>
            <path d="M646,144 L742.160847,144" id="Path-13" stroke="#FFFFFF" stroke-width="3"></path>
            <path d="M646,176 L697.765234,176" id="Path-14" stroke="#FFFFFF" stroke-width="3"></path>
            <path d="M646,158 L684.002961,158" id="Path-15" stroke="#FFFFFF" stroke-width="3"></path>
            <rect id="Rectangle-3" stroke="#FFFFFF" stroke-width="3" x="767.5" y="98.5" width="40" height="17"></rect>
            <polyline id="Path-16" stroke="#FFFFFF" stroke-width="3" points="655 197 655 269.871716 775.325298 269.871716"></polyline>
            <path d="M641,214 L785.337273,214" id="Path-17" stroke="#FFFFFF" stroke-width="3"></path>
            <rect id="Rectangle-4" stroke="#FFFFFF" stroke-width="3" x="664.5" y="238.5" width="13" height="25"></rect>
            <rect id="Rectangle-4-Copy" stroke="#FFFFFF" stroke-width="3" x="686.5" y="226.5" width="13" height="37"></rect>
            <rect id="Rectangle-4-Copy-2" stroke="#FFFFFF" stroke-width="3" x="710.5" y="215.5" width="13" height="49"></rect>
            <rect id="Rectangle-4-Copy-3" stroke="#FFFFFF" stroke-width="3" x="733.5" y="225.5" width="13" height="39"></rect>
            <rect id="Rectangle-4-Copy-4" stroke="#FFFFFF" stroke-width="3" x="756.5" y="203.5" width="13" height="62"></rect>
            <circle id="Oval" stroke="#FFFFFF" stroke-width="3" cx="843.5" cy="180.5" r="23.5"></circle>
            <circle id="Oval-2" stroke="#FFFFFF" stroke-width="3" cx="844.5" cy="181.5" r="43.5"></circle>
            <path d="M845.176983,138.058341 L845.176983,156.664464 C854.613239,158.380681 861.113135,162.859759 864.676671,170.101699 C868.240207,177.343639 867.952246,185.16467 863.812787,193.564792 C857.966687,200.375252 850.643283,203.900499 841.842577,204.140533 C834.478376,202.523936 830.139417,200.630073 828.825702,198.458944 L815,212.231965 C825.098574,222.722686 838.41787,226.359975 854.95789,223.143833 C871.497909,219.92769 882.492343,208.60536 887.941193,189.176842 C887.941193,166.875407 882.08948,152.653138 870.386054,146.510037 C858.682629,140.366936 850.279605,137.549704 845.176983,138.058341 Z" id="Path-18" fill="#4EAACD"></path>
            <path d="M844.725115,138 L844.725115,156.603445 C834.552081,158.296344 827.463418,162.10788 823.459126,168.038052 C817.452689,176.933312 818.508655,190.7539 827.745847,198.929259 C825.104255,202.080955 820.560806,206.682231 814.1155,212.733086 C803.969284,205.368698 799.70994,192.913184 801.337469,175.366543 C802.964998,157.819902 813.479406,145.885946 832.880693,139.564674 L844.725115,138 Z" id="Path-19" fill="#6DC9E6"></path>
            <polyline id="Path-20" stroke="#FFFFFF" stroke-width="3" points="766 127 814.724357 127 825.644302 152.860063"></polyline>
            <rect id="Rectangle-5" stroke="#FFFFFF" stroke-width="3" x="607.5" y="292.5" width="303" height="6" rx="3"></rect>
            <path d="M927.068055,136.077287 L908.106266,141.610608 C905.350802,136.517675 903.982105,131.628631 904.000177,126.943478 C904.018248,122.258324 907.323705,118.943832 913.916548,117 C917.104149,118.96976 920.558497,120.575739 924.279591,121.817937 C929.861233,123.681234 938.725153,117.809668 944.291474,126.943478 C949.857794,136.077287 954.871372,147.680172 942.132359,161.213532 C941.179734,162.137182 940.703421,161.080301 940.703421,158.042888 C945.506897,154.097366 947.061067,151.008019 945.365932,148.774845 C942.82323,145.425084 939.028318,146.926578 939.116458,148.241999 C939.204598,149.55742 928.130335,140.991764 928.130335,138.534526 C928.130335,136.896367 927.776242,136.077287 927.068055,136.077287 Z" id="Path-21" fill="#453427"></path>
            <path d="M910,141.08344 L910.537125,160.389392 L910.537125,173.746906 C912.072716,175.125009 914.117809,175.650775 916.672403,175.324204 C916.672403,178.608752 915.141556,184.042579 913.336202,183.874463 C911.530847,183.706347 908.101036,193.80685 915.141556,193.791391 C922.182076,193.775932 930.332817,193.939217 939.42414,186.820362 C945.485021,182.074459 946.209983,179.701508 941.599023,179.701508 L941.599023,161.698573 L941.015854,157.691629 C945.367306,153.777934 947.171316,151.181907 946.427886,149.903548 C945.312741,147.986009 941.631218,145.002392 939.42414,147.986009 C935.716181,146.009713 928.983022,140.717875 928.639162,138.772504 C928.409922,137.47559 928.109678,136.551422 927.738428,136 L910,141.08344 Z" id="Path-22" fill="#F6B48B"></path>
            <path d="M911,160.657692 L911,164.093455 L917.12699,164.093455 L917.12699,167.119228 L911,167.119228 L911,173.88915 C912.313399,175.273955 915.514475,175.782977 920.603228,175.416216 C928.236359,174.866076 938.088225,167.653398 938.197812,162.725813 C938.270871,159.440757 938.43415,154.691963 938.687652,148.479432 L936.122808,147 C934.65595,159.955928 932.076971,166.237204 928.385872,165.843827 C922.849222,165.253761 919.066525,161.235367 918.714082,160.94653 C918.479121,160.753972 915.90776,160.657692 911,160.657692 Z" id="Path-23" fill="#403524"></path>
            <path d="M910.803333,184.029034 C900.845317,186.034566 895.577539,192.720429 895,204.086621 C897.699033,207.893156 899.416147,210.24414 900.151342,211.139574 L902.901667,282.052168 C904.071586,288.86154 912.500515,291.877026 928.188453,291.098625 C943.876391,290.320224 954.429137,289.468417 959.84669,288.543203 L959.84669,234.508668 L955.867061,221.098108 C967.576545,215.04929 973.327605,211.323941 973.120242,209.922061 C972.809197,207.819242 973.569819,186.99166 953.413336,182.904297 C948.109892,181.847877 944.943723,181.213112 943.914828,181 C938.610523,188.172078 931.83559,192.148431 923.590028,192.929059 C911.221686,194.1 910.945746,193.241586 910.217112,189.717793 C909.731357,187.368598 909.926764,185.472345 910.803333,184.029034 Z" id="Path-24" fill="#E8854C"></path>
            <path d="M894.934612,203 L883.193914,240.371611 L859.245675,240.371611 C856.203983,232.379151 853.529633,228.313634 851.222625,228.175059 C848.915617,228.036485 848.836878,229.288975 850.986408,231.93253 C852.314788,233.362523 852.686253,234.320524 852.100802,234.806533 C851.222625,235.535547 840.061058,233.866227 836.16872,232.440465 C832.276381,231.014704 833.411023,233.644338 833.493217,233.866227 C833.575411,234.088115 845.453949,237.59768 843.478724,237.929511 C842.161906,238.150732 838.077843,237.272765 831.226533,235.295609 C830,235.708209 829.693367,236.365449 830.306633,237.267329 C830.9199,238.16921 834.708378,239.34003 841.67207,240.779789 C834.708378,238.819562 831.226533,238.329506 831.226533,239.309619 C831.226533,240.289732 834.708378,241.738312 841.67207,243.65536 C842.09109,244.686313 841.1812,245.221986 838.942401,245.262379 C835.584202,245.322969 833.275527,247.090515 834.976912,247.408089 C836.111169,247.619804 839.544815,247.513946 845.277851,247.090515 C846.274613,249.41753 849.388712,249.999283 854.62015,248.835776 C858.744425,250.354 869.829315,252.016965 887.87482,253.824673 C891.904205,250.828983 894.761205,248.266923 896.445819,246.138491 C898.130433,244.01006 899.651907,240.515244 901.01024,235.654043 L900.183226,211.221088 L894.934612,203 Z" id="Path-25" fill="#F6B48B"></path>
            <path d="M956,220.866473 L967.047821,245.196388 C969.062974,262.800846 972.967217,276.717038 978.760548,286.944964 C978.760548,293.027522 979.229597,301.210429 980.167697,311.493686 C981.09843,313.646166 981.859774,313.873251 982.451729,312.17494 C983.043683,310.47663 983.339661,308.441276 983.339661,306.068879 C985.568137,306.397913 985.977268,308.433266 984.567052,312.17494 C981.64048,314.651309 982.123909,318.463383 982.986921,318.432791 C983.849934,318.4022 988.695875,315.272712 989.691034,309.318194 C990.686194,303.363677 988.028286,294.610143 986.297669,292.258345 C986.297669,289.375254 985.417603,243.424648 977.254686,235.457076 C976.111213,225.730007 975.016136,217.577648 973.969456,211 L956,220.866473 Z" id="Path-26" fill="#F4B68A"></path>
            <path d="M904.613879,287 C896.373058,318.64788 892.224366,340.588598 892.167804,352.822152 C892.111241,365.055707 889.38864,390.879474 884,430.293452 C887.290345,434.297576 891.548578,436.299637 896.774698,436.299637 C902.000818,436.299637 905.33801,436.299637 906.786272,436.299637 C916.025388,388.409716 919.59896,360.583887 917.506989,352.822152 C915.415019,345.060417 919.136751,333.993571 928.672187,319.621614 L956.293955,436.299637 L972.823159,436.299637 C968.027719,386.533092 964.521353,360.107545 962.304062,357.022997 C960.08677,353.938448 958.083401,332.166625 956.293955,291.707527 L956.293955,289.74296 C931.827799,291.404822 917.903072,291.820288 914.519772,290.989356 C911.136473,290.158425 907.834508,288.82864 904.613879,287 Z" id="Path-27" fill="#2E2D2B"></path>
            <path d="M920,294 L928.549601,319.741835 L956.305751,435.872781 L971.368686,435.872781 C966.210423,390.260275 961.189445,365.158867 956.305751,360.568557 C956.305751,354.144771 953.731846,331.955252 948.584036,294 L920,294 Z" id="Path-28" fill="#3C3C3C"></path>
            <path d="M923.113658,304.990852 C914.206212,329.748701 909.701269,343.90779 909.598829,347.468121 C909.445168,352.808616 907.229108,417.694222 903.043682,426.219781 C900.253398,431.903486 897.985769,435.528974 896.240796,437.096244 C888.334062,435.237681 884.259438,432.494784 884.016926,428.867554 C883.774414,425.240324 886.137863,409.656127 891.107273,382.114962 C892.089168,347.85384 894.324044,327.221487 897.811899,320.217901 C899.200072,311.555058 901.759343,300.482425 905.48971,287 C909.722524,290.551968 913.718052,292.0384 917.476294,291.459298 C918.549481,295.522074 920.428602,300.032592 923.113658,304.990852 Z" id="Path-32" fill="#3C3C3C"></path>
            <path d="M885.208226,432 C872.008107,438.569476 863.801015,441.854215 860.586947,441.854215 C855.765846,441.854215 858.587092,444.950704 861.745574,444.950704 C863.851228,444.950704 877.150946,444.598798 901.644728,443.894984 L901.644728,436.248297 C894.816953,436.133819 890.547165,435.39715 888.835365,434.03829 C887.123565,432.67943 885.914519,432 885.208226,432 Z" id="Path-33" fill="#CE964B"></path>
            <path d="M958.011431,437 C957.872616,447.156543 958.998096,452.234814 961.387871,452.234814 C964.972533,452.234814 979.236869,447.902612 975.671337,444.617407 C973.294315,442.427271 971.711678,439.888135 970.923425,437 L958.011431,437 Z" id="Path-34" fill="#CE964B"></path>
            <polygon id="Path-46" fill="#FFFFFF" points="65 445 65 488.755618 123.541398 488.755618 123.541398 703.434797 175.322482 703.434797 175.322482 485.770738 236.943693 485.770738 236.943693 445"></polygon>
            <path d="M264,445.70112 L286.578012,445.70112 C326.160427,434.066634 365.141081,440.239342 403.519974,464.219244 C434.04469,511.488088 431.809388,552.819203 396.814069,588.212591 L427.903268,703.287363 L377.481171,703.287363 L339.668093,607.623371 L315.726134,607.623371 L315.726134,703.287363 L264,703.287363 L264,445.70112 Z M315.000042,488.374787 L315.000042,563.09444 C338.769922,566.983166 354.564185,564.474921 362.382829,555.569704 C374.110795,542.21188 378.088606,507.012951 359.395312,493.002182 C354.728395,489.917252 339.929972,488.374787 315.000042,488.374787 Z" id="Combined-Shape" fill="#FFFFFF"></path>
            <path d="M438,705.500923 L517.853455,444 L559.512847,444 L640.730077,700.758454 L586.343988,700.758454 L573.234428,648.968567 L508.385285,645.964351 L490.007867,705.500923 L438,705.500923 Z M540.467516,516.464482 L517.224666,604.889035 L562.09787,604.889035 L540.467516,516.464482 Z" id="Combined-Shape" fill="#FFFFFF"></path>
            <polygon id="Path-51" fill="#FFFFFF" points="655 444 655 701.647143 703.766109 701.647143 703.766109 444"></polygon>
            <polygon id="Path-52" fill="#FFFFFF" points="735 445 735 703.572162 780.985463 703.572162 780.985463 533.840951 856.940424 703.572162 906.813202 703.572162 906.813202 445 856.940424 445 856.940424 609.77635 783.989678 445"></polygon>
            <polygon id="Path-52-Copy" fill="#FFFFFF" points="1016 445 1016 703.572162 1062.52076 703.572162 1062.52076 533.840951 1139.35988 703.572162 1189.8132 703.572162 1189.8132 445 1139.35988 445 1139.35988 609.77635 1065.55995 445"></polygon>
            <polygon id="Path-53" fill="#FFFFFF" points="936 445 936 703.868391 986.730726 703.868391 986.730726 445"></polygon>
            <path d="M1385.8834,523.176224 C1375.90025,475.597985 1358.02501,450.067459 1332.2577,446.584647 C1306.49038,443.101834 1277.79268,445.36004 1246.1646,453.359265 C1226.05222,481.291592 1215.11617,510.136455 1213.35644,539.893854 C1210.71686,584.529953 1206.17372,683.354867 1262.90774,699.187224 C1319.64176,715.019582 1363.4069,696.678364 1376.1056,683.354867 C1381.0139,678.247165 1383.8402,674.98402 1384.5845,673.565432 L1384.5845,568.141992 L1298.9417,568.141992 L1298.9417,606.436505 L1335.11922,606.436505 L1335.11922,649.606538 C1304.36286,666.797586 1282.45404,662.360198 1269.39274,636.294373 C1265.06941,609.821021 1263.7089,572.114972 1265.31123,523.176224 C1267.68393,497.237875 1278.89409,484.093316 1298.9417,483.742548 C1318.98932,483.39178 1331.04849,493.602087 1335.11922,514.373468 L1337.12507,526.992611 L1384.5845,526.992611 L1385.8834,523.176224 Z" id="Path-113" fill="#FFFFFF"></path>
            <path d="M108.398245,328.722609 C108.843559,318.711365 112.536728,314.646286 119.477753,316.52737 C126.418778,318.408454 131.075489,321.837861 133.447887,326.815589 C136.362491,312.633075 134.269026,304.669786 127.167493,302.925721 C116.515192,300.309624 99.2727354,297.904929 96.6272771,313.313769 C94.8636382,323.586329 96.8189563,331.941096 102.493231,338.378068 L103.976374,332.339129 C101.128439,329.435782 100.169265,327.174557 101.098851,325.555455 C102.028438,323.936353 103.232398,323.936353 104.71073,325.555455 L104.71073,330.105999 L108.398245,330.105999 L108.398245,328.722609 Z" id="Path-35" fill="#433A39"></path>
            <path d="M124.023737,351 C132.210455,351.058836 138.002543,352.568146 141.400001,355.527929 C144.797459,358.487712 154.374834,365.006099 170.132124,375.08309 C167.466195,384.491964 166.273456,389.647478 166.553908,390.549632 C166.553908,391.019277 166.553908,391.400259 166.553908,391.692577 L137.684813,379.222188 C130.13933,397.327171 126.663482,407.679736 127.257269,410.279883 C127.851057,412.880031 129.040042,416.635611 130.824225,421.546625 C127.988347,427.113659 122.844197,430.369804 115.391775,431.31506 C104.213142,432.732943 103.345283,433.02261 102.072423,431.31506 C100.799563,429.607509 89.4195717,440.398651 85.8404145,439.763743 C82.2612574,439.128836 79.4681216,437.791648 80.8395673,431.877265 C82.2110129,425.962882 85.0338385,413.552117 84.7323717,411.552235 C84.5313938,410.21898 83.8098892,404.833358 82.5678578,395.39537 L71.3183649,412.899336 C61.6020205,411.73247 55.8334322,409.612063 54.0125999,406.538115 C52.1917676,403.464167 52.8265673,402.576367 55.9169988,403.874717 C64.0556387,380.32618 71.0775346,366.838797 76.9826866,363.412565 C82.8878385,359.986334 89.9300511,356.270494 98.1093243,352.265047 L124.023737,351 Z" id="Path-38" fill="#C5524E"></path>
            <path d="M132.354728,326.060946 C131.261504,340.231857 129.343179,347.488365 126.599754,347.830468 C123.856328,348.172572 121.250262,348.172572 118.781555,347.830468 C117.661943,349.104168 117.661943,349.756568 118.781555,349.787669 C119.901167,349.818769 121.267932,350.879479 122.881851,352.969798 C123.389823,359.555056 122.023058,362.847686 118.781555,362.847686 C113.919302,362.847686 106.753503,362.253245 102.61928,357.611522 C99.8631316,354.517039 99.8631316,351.909088 102.61928,349.787669 L102.61928,337.530605 L103.576442,332.125016 C100.759022,329.530626 99.6062148,327.50927 100.118021,326.060946 C100.629827,324.612622 101.46358,323.88846 102.61928,323.88846 L104.052919,325.367 L104.052919,329.836808 L107.856343,329.836808 C108.119705,320.711325 110.37704,316.100201 114.628346,316.003435 C121.005304,315.858285 127.725712,320.352647 129.385767,322.120554 C130.49247,323.299158 131.482123,324.612622 132.354728,326.060946 Z" id="Path-36" fill="#F2BE8F"></path>
            <path d="M100.776145,351.173324 L98.3760241,351.173324 C97.4441994,355.820501 98.2442396,359.12986 100.776145,361.101401 C104.574002,364.058713 107.370036,366.816667 117.084757,366.459393 C126.799477,366.102119 125.035506,353.24529 124.885429,352.787778 C124.785377,352.482769 123.946511,351.220177 122.36883,349 L120.127331,349.869325 C121.860642,351.490507 122.74483,352.662052 122.779896,353.383959 C122.832495,354.46682 123.51088,361.578502 120.297818,362.142562 C117.084757,362.706622 106.833674,362.463906 103.1286,358.203685 C102.436505,357.40789 101.723716,356.711473 101.336073,356.088668 C100.45744,354.677014 100.270797,353.038566 100.776145,351.173324 Z" id="Path-37" fill="#FFFFFF"></path>
            <path d="M55,407 C55.8744981,419.180246 57.713163,427.4608 60.5159947,431.841663 C63.3188264,436.222526 65.5052208,439.886432 67.075178,442.833382 C67.8659764,449.772949 68.7039501,453.850566 69.5890989,455.066233 C70.4742478,456.281899 71.8279605,457.978028 73.6502372,460.15462 C74.3963028,458.15419 74.3963028,456.806018 73.6502372,456.110104 C72.5311388,455.066233 76.8890026,461.452144 77.8460681,462.527109 C78.8031337,463.602074 83.6067454,462.527109 83.3450971,462.527109 C83.1706648,462.527109 80.7141125,459.247993 75.97544,452.689761 C78.8172144,454.630793 80.7559342,456.360194 81.7915993,457.877964 C83.3450971,460.15462 86.0057141,461.019006 85.5196156,459.448485 C85.1955499,458.401471 82.6377008,452.547903 77.8460681,441.887782 C81.324205,445.020915 83.6267106,445.961798 84.7535849,444.710432 C86.4438963,442.833382 78.4954604,438.918861 73.6502372,438.351431 C73.1282014,432.94193 72.0078001,424.150545 70.2890331,411.977276 C62.7376722,410.20185 58.7165256,409.147901 58.2255934,408.815429 C57.7346612,408.482957 56.6594634,407.877814 55,407 Z" id="Path-39" fill="#F6B48B"></path>
            <path d="M170.632533,375.610781 C182.576728,368.094223 188.478422,364.057482 188.337616,363.50056 C188.126405,362.665177 184.515658,349.932674 186.426637,349.134489 C187.700623,348.602365 188.81846,350.186126 189.780149,353.885771 C190.570769,354.9 191.279846,354.9 191.907382,353.885771 C192.534918,352.871542 195.376272,348.909618 200.431444,342 C201.473414,342.221508 201.473414,343.080639 200.431444,344.577394 C199.389474,346.074149 198.261129,348.172169 197.046408,350.871456 C197.148719,351.373994 197.574047,351.373994 198.32239,350.871456 C199.070733,350.368917 201.002574,347.694836 204.117913,342.849213 C205.708142,342.971304 206.323147,343.547365 205.96293,344.577394 C205.602712,345.607423 203.663119,348.174007 200.14415,352.277145 C204.48571,346.757082 206.834618,344.532553 207.190874,345.603559 C207.725257,347.210067 202.722005,352.811736 202.666448,353.348753 C202.610891,353.885771 202.519415,355.465871 203.318664,355.220128 C203.851497,355.056298 205.239997,353.828096 207.484164,351.53552 C209.110053,352.212783 209.516525,352.9962 208.703581,353.885771 C207.484164,355.220128 197.916951,366.696959 196.695984,366.798771 C195.475017,366.900582 180.454152,389.283685 176.250149,389.737445 C173.447481,390.039952 170.364098,389.7719 167,388.933287 L170.632533,375.610781 Z" id="Path-40" fill="#F6B48B"></path>
            <path d="M86,439.820357 L112.387089,493.483323 L122.421892,551.914842 C124.546353,556.571543 128.088916,557.858918 133.049582,555.776968 C138.010249,553.695017 142.226133,551.612542 145.697235,549.529543 C138.587037,506.224096 133.728448,481.82714 131.121466,476.338676 C128.514484,470.850211 125.614626,461.592369 122.421892,448.565148 C141.878757,453.107406 155.028645,454.615341 161.871557,453.088954 C168.714468,451.562566 160.091632,462.056112 136.00305,484.569592 C133.984351,491.836941 134.898486,496.407439 138.745455,498.281086 C142.592424,500.154734 144.909684,501.869144 145.697235,503.424318 L181.674001,463.817215 C193.804649,445.1293 192.567965,433.654452 177.963949,429.392671 C163.359932,425.13089 147.745771,423 131.121466,423 L87.9486049,430.618309 L86,439.820357 Z" id="Path-41" fill="#285C82"></path>
            <path d="M129,558.158733 C137.96669,568.035884 143.334921,573.027124 145.104693,573.132454 C147.75935,573.290449 161.781301,572.999507 161.097425,570.269221 C160.641507,568.44903 160.413548,567.312451 160.413548,566.859483 L131.53963,557 L129,558.158733 Z" id="Path-44" fill="#E3DE8D"></path>
            <path d="M131,557.174084 C138.507706,565.032695 143.622738,569.005317 146.345097,569.091949 C150.428634,569.221898 158.907455,570.06722 160.140654,568.232188 C160.962787,567.008833 156.106011,560.931437 145.570327,550 L131,557.174084 Z" id="Path-42" fill="#CF6E49"></path>
            <path d="M139.541094,556.046147 C143.184647,553.162326 145.689609,551.82005 147.05598,552.019319 C148.422351,552.218588 149.105537,553.012952 149.105537,554.402411 C144.764388,554.750124 142.327295,555.530775 141.794258,556.744363 C141.261222,557.957951 140.510167,558.300241 139.541094,557.771233 L139,556.42826 L139.541094,556.046147 Z" id="Path-43" fill="#FFFFFF"></path>
            <path d="M142.541094,560.046147 C146.184647,557.162326 148.689609,555.82005 150.05598,556.019319 C151.422351,556.218588 152.105537,557.012952 152.105537,558.402411 C147.764388,558.750124 145.327295,559.530775 144.794258,560.744363 C144.261222,561.957951 143.510167,562.300241 142.541094,561.771233 L142,560.42826 L142.541094,560.046147 Z" id="Path-43-Copy" fill="#FFFFFF"></path>
            <path d="M145.865038,503.334641 C144.836218,514.584502 144.836218,520.803981 145.865038,521.993077 C146.893859,523.182174 145.786342,524.274413 142.542487,525.269795 L137,497 L145.865038,503.334641 Z" id="Path-45" fill="#CF6E49"></path>
            <path d="M575.451117,313.070369 C561.700467,306.014542 550.4657,305.109662 541.746815,310.355731 C528.668487,318.224835 536.10053,330.33575 532.584785,335.561199 C529.06904,340.786649 520.125034,342.394947 519.848195,353.825428 C519.663637,361.445749 522.104478,366.667819 527.170721,369.491637 C526.625156,375.318424 525.591154,378.531641 524.068712,379.131288 C521.785049,380.030759 521.904709,383.09829 517.387073,380.030759 C512.869437,376.963229 515.877383,384.616961 517.387073,385.45437 C518.896762,386.291779 524.881008,392.639977 528.732897,387.395659 C532.584785,382.151342 541.261229,365.134161 545.225558,364.750665 C547.868445,364.495001 550.374149,363.866311 552.74267,362.864595 L553.886571,347.669652 C558.451708,347.768608 561.525415,346.413623 563.107694,343.604698 C564.689973,340.795773 564.689973,335.99625 563.107694,329.206129 C571.336643,321.911773 575.451117,317.979886 575.451117,317.410468 C575.451117,316.84105 575.451117,315.394351 575.451117,313.070369 Z" id="Path-54" fill="#433A39"></path>
            <path d="M556.960998,310 C546.372883,314.917067 541.022038,320.750497 540.908462,327.500289 C540.738098,337.624977 531.049925,349.508041 528.376783,349.891874 C526.594688,350.147762 525.13576,350.147762 524,349.891874 C532.40189,344.987578 536.922581,339.482333 537.562074,333.376138 C538.521312,324.216847 542.781098,314.553989 547.493135,312.276994 C550.634494,310.758998 553.790448,310 556.960998,310 Z" id="Path-55" fill="#382F2E"></path>
            <path d="M557.576317,314 C549.443086,318.99917 545.243054,324.012252 544.976218,329.039247 C544.575965,336.579738 544.188028,353.53062 540.052765,354.379019 C537.295924,354.944619 535.611669,355.916401 535,357.294365 C541.650812,356.591015 544.976218,355.214647 544.976218,353.165261 C544.976218,350.091181 547.998299,326.951774 550.084403,324.284105 C551.47514,322.505659 553.972444,319.077624 557.576317,314 Z" id="Path-56" fill="#382F2E"></path>
            <path d="M535.497737,348 C530.012333,352.980925 527.819495,357.073084 528.919221,360.276475 C530.56881,365.081563 534.007564,370.449741 534.007564,372.138329 C534.007564,373.264055 532.9441,375.107499 530.817172,377.668662 C532.488592,375.800815 532.906447,374.412131 532.070737,373.50261 C530.817172,372.138329 526.306288,362.889408 527.091057,357.613596 C527.614237,354.096388 530.416463,350.891856 535.497737,348 Z" id="Path-57" fill="#382F2E"></path>
            <path d="M573.645213,321.327001 C573.002704,326.137214 573.002704,329.027269 573.645213,329.997165 C574.287723,330.967061 574.878654,332.268563 575.418007,333.90167 C576.599869,334.67378 576.599869,336.094597 575.418007,338.164123 C575.418007,340.407414 574.697264,342.493794 573.25578,344.423265 L572.248406,349.641926 L557.816503,349.641926 C557.512504,354.562632 558.48817,358.233726 560.743499,360.655207 C562.998828,363.076688 566.159988,367.308232 570.226981,373.349837 C567.779883,373.349837 566.089365,373.349837 565.155426,373.349837 C564.221487,373.349837 560.572366,369.843031 554.208062,362.829417 L550,335.640055 C556.762661,330.457063 562.304387,326.557824 566.625179,323.942338 C570.94597,321.326852 573.285982,320.455073 573.645213,321.327001 Z" id="Path-58" fill="#F8CE9E"></path>
            <path d="M529.316198,386.328765 C534.650646,402.258152 536.063327,412.759902 533.554241,417.834017 C529.790612,425.445189 527.168724,428.953415 528.242461,429.18382 C529.316198,429.414226 536.372816,431.336087 539.433083,431.062481 C542.49335,430.788875 560.197527,437.068111 566.606956,431.336087 C567.604285,424.950763 568.102949,413.959042 568.102949,398.360927 C574.789386,389.448738 577.057224,382.937535 574.906464,378.827317 C572.755703,374.7171 571.232673,372.661991 570.337373,372.661991 L564.928296,372.661991 L554.160927,362 L536.251631,363.930521 L529.316198,386.328765 Z" id="Path-59" fill="#94546F"></path>
            <path d="M538.049887,386 L536,420.090536 L549.241254,420.090536 C553.457275,402.31539 555.205144,391.746693 554.484861,388.384444" id="Path-60" fill="#923F62"></path>
            <path d="M529.543861,429.166551 C528.341642,437.112322 529.132576,442.605717 531.916663,445.646738 C534.700751,448.68776 537.872635,451.869711 541.432317,455.192592 L570.406385,498.433669 C568.321195,519.096699 571.397688,535.728841 579.635865,548.330096 C579.635865,552.673043 580.438782,557.762822 582.044618,563.599436 L591.761601,563.599436 L588.187138,513.148295 C585.314883,483.282649 581.256935,466.853349 576.013294,463.860394 C583.878755,463.860394 591.07908,468.064214 606.335596,465.962304 C597.327687,475.748626 595.922864,496.748756 595.922864,498.433669 C595.922864,499.556945 593.841608,505.30026 589.679097,515.663616 L593.038668,521.102828 L624.057088,469.264752 C627.72583,457.835333 625.689433,451.041642 617.947898,448.883681 C610.206363,446.725719 593.301366,439.431159 567.232906,427 L529.543861,429.166551 Z" id="Path-63" fill="#3E4261"></path>
            <path d="M537,421 C537.788773,431.06283 545.000544,440.603108 558.635312,449.620832 C562.232279,453.952544 564.858115,455.821943 566.51282,455.22903 L575.523313,464.258713 C579.209273,463.697504 580.504392,463.006699 579.408672,462.1863 C578.312951,461.3659 577.017832,459.04681 575.523313,455.22903 C577.608611,456.416024 578.90373,457.260978 579.408672,457.763891 C580.690747,459.040817 580.376824,460.063478 580.93066,460.596685 C581.811686,461.444895 582.375177,460.699086 582.621134,458.359258 C577.13693,450.925174 572.507365,447.491144 568.73244,448.05717 C564.541132,443.788506 557.776569,434.76945 548.438751,421 L537,421 Z" id="Path-61" fill="#F4B68A"></path>
            <path d="M568.158325,418 L585.360347,434.282165 L596.46226,434.910341 L603.320582,442.619702 C602.610517,443.935538 601.868175,444.512099 601.093558,444.349387 C600.318941,444.186675 598.608728,442.469127 595.96292,439.196742 C592.70734,439.046834 591.179179,439.391197 591.378434,440.229832 C591.57769,441.068467 592.577971,441.727852 594.379276,442.207987 C595.309403,444.786843 594.861678,445.788457 593.036099,445.212829 C591.210521,444.637201 582.531821,439.319043 567,429.258356 L568.158325,418 Z" id="Path-62" fill="#F4B68A"></path>
            <path d="M584,564.288958 C585.545154,567.868699 587.954738,570.515921 591.228752,572.230624 C596.139772,574.802678 604.220482,578.251971 605.26154,575.660704 C606.302597,573.069436 592.82295,564.866874 592.436156,564.288958 C592.178293,563.903681 589.366241,563.903681 584,564.288958 Z" id="Path-64" fill="#F4B68A"></path>
            <path d="M582.226803,564.118684 C581.421193,569.091558 582.761742,572.473268 586.24845,574.263812 C591.478513,576.94963 602.439195,581.028411 604.601703,581.161893 C606.764211,581.295375 611.495233,579.457471 609.218962,577.595298 C607.701449,576.353849 606.602702,575.578657 605.922722,575.269723 C604.642007,576.637742 602.414046,576.812094 599.238839,575.792782 C594.476029,574.263812 586.780728,570.868813 584.018215,564.474017 C583.407935,563.99988 582.810798,563.881436 582.226803,564.118684 Z" id="Path-65" fill="#3E4261"></path>
            <path d="M597.519992,536.22872 C597.551331,538.037983 597.938777,538.928904 598.68233,538.901483 C599.79766,538.86035 597.273757,543.01052 594.204221,540.74992 C592.157864,539.242853 590.930329,537.344609 590.521617,535.055189 L589,516 L593.554498,522.107454 L597.519992,536.22872 Z" id="Path-67" fill="#31365F"></path>
            <path d="M590,517 L593.644458,522.366167 L597.44822,535.574127 C596.127135,535.385161 594.604585,534.124235 592.880571,531.79135 C591.156557,529.458466 590.196367,527.990013 590,527.385992 L590,517 Z" id="Path-66" fill="#F4B68A"></path>
            <polygon id="Path-68" fill="#ACAEB0" points="649 441.381895 649 444.133727 696.689028 444.133727 716.5424 402 706.964974 402 687.909643 441.381895"></polygon>
            <polygon id="Path-69" fill="#FFFFFF" points="708.516514 403 690 441.231269 696.160999 441.231269 714.99725 403.571116"></polygon>
            <path d="M322.556408,333.149045 L321.287312,327.631973 C314.343572,328.041775 310.164196,327.64217 308.749185,326.433157 C307.334174,325.224144 306.349679,324.683128 305.7957,324.810108 C304.694955,325.435563 304.144583,325.976579 304.144583,326.433157 C304.144583,327.118023 301.544758,337.453117 298.938617,337.33102 C296.332477,337.208923 295.550775,334.182811 295.311142,333.971246 C295.071509,333.759682 290.475678,333.536889 291.68928,338.082899 C292.498349,341.113573 294.458685,343.62124 297.570288,345.605902 L297.570288,348.461499 C294.499384,345.864247 292.912239,345.214934 292.808854,346.51356 C292.653777,348.461499 289.478903,360.492269 285.64302,361.983747 C283.085766,362.978066 280.30911,364.357272 277.313055,366.121364 C276.541001,343.904142 277.196973,330.674739 279.28097,326.433157 C282.406965,320.070783 287.292753,312.868038 291.68928,312.868038 C294.620299,312.868038 297.316606,313.485379 299.778204,314.72006 C303.445145,313.058338 306.767135,312.227477 309.744173,312.227477 C314.209731,312.227477 315.086948,310.374278 321.287312,317.246865 C325.420888,321.828589 325.84392,327.129316 322.556408,333.149045 Z" id="Path-70" fill="#6C4D3E"></path>
            <path d="M295.138871,361.607826 C286.235633,361.509518 280.370613,363.189702 277.543811,366.648377 C274.717009,370.107053 273.581354,374.083579 274.136848,378.577957 L284.569436,385.141911 L282.263126,413.644736 C288.096535,418.094162 292.38845,420.318693 295.138871,420.318327 C297.889293,420.317962 305.638604,419.720441 318.386804,418.525766 C320.792601,410.756537 322.912977,406.231096 324.747931,404.949442 C327.500363,403.026961 334.656356,396.541945 331.196219,387.97657 C328.889461,382.266321 330.623549,378.265492 336.398484,375.974083 C334.745162,369.118129 331.987614,364.605844 328.12584,362.437228 C324.264067,360.268613 319.942733,359.547203 315.161838,360.272998 L295.138871,361.607826 Z" id="Path-72" fill="#F4E484"></path>
            <path d="M322.60568,334.527685 C323.356991,337.64122 323.746276,340.350906 323.773536,342.656744 C323.814425,346.115501 320.419521,357.678112 316.568118,357.862953 C314.000516,357.98618 313.451353,358.910995 314.920627,360.637399 C319.25332,368.38692 321.617335,373.456603 322.012673,375.846449 C322.60568,379.431218 321.206759,389.251491 311.316743,383.635921 C304.7234,379.892208 299.464809,372.840285 295.54097,362.480153 L297.817678,360.637399 L297.817678,349.865011 L297.817678,345.833373 C293.952734,342.899018 292.013545,340.086756 292.000113,337.396586 C291.986681,334.706417 293.166967,334.004169 295.54097,335.289844 C297.139711,338.60694 298.833509,339.309187 300.622364,337.396586 C302.411218,335.483985 302.306219,331.125143 300.307367,324.32006 L317.674435,323 L323.26267,327.602122 L322.60568,334.527685 Z" id="Path-71" fill="#F8CA98"></path>
            <path d="M326.261002,405.29959 L336.705433,422.110773 C346.187274,439.342603 352.208529,447.958517 354.7692,447.958517 C357.329871,447.958517 364.162172,447.958517 375.266103,447.958517 C371.411377,444.978136 368.036231,443.379432 365.140665,443.162405 C362.245099,442.945378 360.010592,442.421519 358.437146,441.590829 C347.891373,421.018154 342.156369,407.917947 341.232133,402.290209 C340.307896,396.662471 338.798997,388.232401 336.705433,377 C335.332756,377.385694 334.362058,377.772249 333.793339,378.159667 C333.22462,378.547085 330.293507,380.818488 325,384.973876 L326.261002,405.29959 Z" id="Path-73" fill="#F4B68A"></path>
            <path d="M277.280842,426.786666 C275.253427,431.971151 274.577622,435.280277 275.253427,436.714043 C276.267135,438.864694 282.605789,446.146493 288.922578,447.754512 C293.133771,448.826524 296.925237,449.36253 300.296974,449.36253 C299.02487,445.530318 300.10152,442.690943 303.526925,440.844405 C308.665031,438.074598 320.466774,426.786666 334.374445,426.786666 C343.646225,426.786666 349.273296,426.786666 351.255658,426.786666 L318.233636,419 C308.716321,419.710558 302.226605,420.394976 298.764487,421.053255 C295.302368,421.711534 288.141154,423.622671 277.280842,426.786666 Z" id="Path-75" fill="#37395A"></path>
            <path d="M284.407932,397.499503 L278.22771,412.271912 C280.43523,413.93665 281.914882,414.730806 282.666665,414.65438 C283.418449,414.577954 289.681753,417.606144 301.456578,423.738952 C309.619618,423.210208 315.465438,423.897264 318.994039,425.800119 C322.522639,427.702974 324.171979,428.502027 323.942058,428.197278 L314.640945,431.008464 L314.640945,432.598426 C313.741008,432.8182 312.850097,432.928087 311.968211,432.928087 C310.645383,432.928087 300.244751,429.702942 300.185015,428.727359 C300.12528,427.751776 273.417484,430.346352 268,420.512367 C268.272623,413.927533 270.5541,400.090077 274.844431,379 L285.299774,385.706258 L284.407932,397.499503 Z" id="Path-74" fill="#F4B68A"></path>
            <path d="M299.373911,446.918962 L309.918458,446.918962 C294.056253,476.55169 285.832964,491.97164 285.248591,493.178813 C284.372032,494.989573 276,510.687134 276,511.577606 C276,512.468079 277.308379,519.031974 279.87331,519.031974 C281.583264,519.031974 283.619913,516.837936 285.983255,512.449861 L289.355889,500.7719 L306.076082,481.553075 L302.493595,489.805939 C296.814502,499.415339 294.26456,505.446301 294.843769,507.898823 C295.712583,511.577606 296.13416,513.887698 297.754035,513.655938 C299.373911,513.424177 307.203176,496.99455 307.125922,495.588997 C307.07442,494.651962 321.297326,480.901609 349.794642,454.337937 C358.357097,439.008691 360.030538,430.776197 354.814966,429.640455 C349.599394,428.504714 341.510454,427.624562 330.548144,427 C319.986134,428.63885 309.594723,434.093101 299.373911,443.362752 C298.938542,445.164564 298.938542,446.349968 299.373911,446.918962 Z" id="Path-76" fill="#F4B68A"></path>
            <path d="M320.758568,430.398105 C333.996589,429.415718 340.790861,430.251477 341.141384,432.905385 C341.667169,436.886246 335.379657,453.659479 316.895317,471.996807 C311.321919,477.290785 308.049023,480.154737 307.076628,480.588664 L289.596007,501.000306 C285.569985,515.125781 282.233672,521.226308 279.587067,519.301889 C275.61716,516.415261 274.408777,514.58539 278.719983,507.151759 C281.594121,502.196005 292.179579,482.20772 310.476359,447.186904 L299.51674,447.186904 C300.023044,443.513328 303.04605,440.21468 308.585757,437.290962 C314.125463,434.367244 318.183067,432.069625 320.758568,430.398105 Z" id="Path-77" fill="#EFBE8E"></path>
            <path d="M387.792523,549.288681 C389.034244,551.778906 389.034244,553.024018 387.792523,553.024018 C385.929942,553.024018 370,555.781474 370,565.58225 C370,575.383025 373.716058,584.886581 377.35018,588.841486 C379.772928,591.47809 383.253709,594.478856 387.792523,597.843783 C390.355938,592.700175 391.356669,589.699409 390.794717,588.841486 C389.951789,587.554602 387.792523,582.780332 387.792523,580.750665 C387.792523,579.397553 388.793255,578.111741 390.794717,576.893226 C391.826509,578.964836 392.342405,580.250648 392.342405,580.750665 C392.342405,581.250681 392.725934,581.689283 393.492992,582.066469 L395.591806,582.066469 C395.130721,578.655302 394.589144,576.63707 393.967074,576.011773 C393.345004,575.386476 392.192919,573.312132 390.51082,569.788741 C393.964833,567.058624 397.154601,565.542978 400.080123,565.241803 C404.468406,564.79004 407.093739,558.834839 404.468406,554.932738 C402.718184,552.331338 397.147981,549.687092 387.757797,547 L387.792523,549.288681 Z" id="Path-78" fill="#6F4843"></path>
            <path d="M403.123644,564 C407.720643,570.629104 410.223426,574.39308 410.631993,575.291928 C411.244844,576.640199 411.030037,579.368313 410.019143,579.368313 C409.345213,579.368313 409.549497,580.027345 410.631993,581.34541 C410.896696,584.038861 411.094137,585.385586 411.224317,585.385586 C411.419587,585.385586 413.131768,585.935913 413.115813,585.385586 C413.099858,584.835259 413.144202,592.168586 410.631993,592.231453 C408.957187,592.273365 407.726858,592.29432 406.941007,592.29432 L408.119784,600.351811 L389.041689,600.351811 L389.041689,595.557704 L383,564 L403.123644,564 Z" id="Path-79" fill="#F5B58B"></path>
            <path d="M389.8433,600 C385.849088,601.987927 383.851982,603.47166 383.851982,604.451199 C383.851982,605.920508 385.05257,607.387857 385.05257,609.070137 C385.05257,610.191656 384.36838,611.001051 383,611.498321 C383.032731,619.486586 383.716921,623.521139 385.05257,623.601979 C387.056045,623.723241 393.143365,607.456473 397.523562,607.249442 C401.364292,606.346759 411.456806,606.172637 415.679846,609.382686 C418.495206,611.522719 421.062101,612.328933 423.38053,611.801327 C416.503789,603.933776 411.742878,600 409.0978,600 C406.452721,600 400.034554,600 389.8433,600 Z" id="Path-80" fill="#95C960"></path>
            <path d="M385.671336,623.893545 C396.287681,664.665041 405.694337,688.978397 413.891303,696.833615 C420.393537,693.811989 427.36358,689.884381 434.801432,685.050789 L446.081536,667.013825 C434.013642,647.409314 427.661942,634.355842 427.026436,627.85341 C426.39093,621.350977 424.809921,616.118523 422.283409,612.156047 C406.026552,602.363875 395.428492,600.426072 390.489229,606.342639 C385.549966,612.259207 383.944001,618.109509 385.671336,623.893545 Z" id="Path-81" fill="#7DA352"></path>
            <path d="M391,620.78626 L400.088151,660.10568 C404.156631,667.6454 409.206035,673.060129 415.236363,676.349869 C421.26669,679.639608 432.194396,683.587089 448.019481,688.19231 C453.54099,680.320101 455.913925,676.770264 455.138287,677.5428 C454.362649,678.315335 442.391451,670.63083 419.224694,654.489285 C417.143398,629.819858 413.283565,616.93289 407.645193,615.828381 C402.006821,614.723873 397.529321,614.723873 394.212693,615.828381 L391,620.78626 Z" id="Path-82" fill="#95C760"></path>
            <polygon id="Path-83" fill="#94C664" points="426.413113 619 441.753463 647.555573 466.514167 638.771648 469.290347 647.555573 443.520031 662.604941 423 631.726555"></polygon>
            <path d="M467,639.6866 C474.485662,635.719882 478.998786,633.613769 480.539374,633.368262 C482.079961,633.122754 486.162465,633 492.786884,633 L483.219053,637.116274 C481.484418,638.829825 480.869755,639.6866 481.375065,639.6866 C481.880375,639.6866 482.935843,639.6866 484.541471,639.6866 C488.805514,639.40214 490.245683,639.841338 488.861977,641.004194 C486.786419,642.748478 481.375065,643.928844 481.375065,645.006827 C481.375065,645.725482 477.19661,646.084809 468.8397,646.084809 L467,639.6866 Z" id="Path-84" fill="#F5B58B"></path>
            <path d="M424,613.068573 C430.203479,620.770118 433.305219,625.115811 433.305219,626.105653 C433.305219,627.590416 434.277278,624.376145 433.305219,622.827854 C432.657179,621.79566 429.734893,618.186376 424.538359,612 L424,613.068573 Z" id="Path-85" fill="#FFFFFF"></path>
            <path d="M415,698.560339 C417.508844,703.387673 425.558093,706.17399 439.147748,706.919291 C452.737402,707.664592 471.864945,708.037242 496.530374,708.037242 C502.227897,707.212375 504.647607,704.053408 503.789504,698.560339 C502.502349,690.320736 488.029412,685.690302 482.592241,685.690302 C478.96746,685.690302 477.15507,684.074812 477.15507,680.843833 L496.530374,662.841795 L515.217423,687.876532 L523.97945,698.560339 L542.10606,687.876532 L507.401953,638.766569 C503.298057,633.323552 496.103856,632.542132 485.819349,636.422311 C476.615646,643.857253 463.250416,654.773614 445.723659,669.171392 L435.084811,685.690302 L415,698.560339 Z" id="Path-86" fill="#0F3B74"></path>
            <path d="M455.166057,678 L465.970882,678 C474.784741,681.754543 479.178188,684.044134 479.151223,684.868773 C479.124259,685.693412 479.137741,686.477403 479.191671,687.220745 L452.172968,687.220745 L451,685.65538 L455.166057,678 Z" id="Path-87" fill="#F5B58B"></path>
            <path d="M502.339456,689.694906 L522.356166,689.694906 C524.582146,690.069997 525.526016,692.821982 525.187776,697.950861 C524.680415,705.644179 505.314522,706.589804 503.415376,705.644179 C502.149279,705.013763 500.01082,699.465703 497,689 L502.339456,689.694906 Z" id="Path-88" fill="#403D3C"></path>
            <path d="M528.442895,695.702359 C526.805655,699.741061 526.561736,701.850346 527.711138,702.030214 C529.435242,702.300016 551.481392,706.272035 560.204566,703.534527 C566.020016,701.709522 567.150334,700.136771 563.595523,698.816275 L549.957996,691.868532 L548.868257,686 L540.701797,692.74901 L533.013086,693.980888 L528.442895,695.702359 Z" id="Path-89" fill="#403D3C"></path>
            <path d="M1127.95743,406 L1119.42897,417.426256 C1117.51315,418.597454 1116.74541,419.766765 1117.12574,420.934187 C1117.69624,422.685321 1120.62447,423.361993 1119.42897,426.055228 C1118.23347,428.748464 1115.36753,434.591476 1118.23347,435.378567 C1120.1441,435.903293 1124.00074,437.012911 1129.80341,438.70742 L1123.40171,450.089792 C1122.63459,453.342438 1123.879,455.240326 1127.13495,455.783456 C1132.01887,456.598151 1146.84689,454.499479 1147.93197,453.21975 C1148.65535,452.366597 1149.78597,451.323278 1151.32382,450.089792 L1148.87548,441.407026 C1150.14955,417.802342 1150.46807,406 1149.83103,406 C1149.194,406 1141.9028,406 1127.95743,406 Z" id="Path-91" fill="#F6B48B"></path>
            <path d="M1121,397.925013 C1123.39914,402.819856 1126.16196,405.413458 1129.28845,405.70582 C1133.9782,406.144363 1140.9178,409.26333 1140.9178,413.915867 C1140.9178,417.017559 1139.66109,419.864541 1137.14767,422.456815 L1138.40971,423.856053 C1140.8357,419.571307 1142.75218,417.759401 1144.15915,418.420334 C1146.26961,419.411733 1148.97762,418.144643 1147.31533,425.580137 C1146.20713,430.537132 1146.20713,436.170679 1147.31533,442.480775 C1155.30537,433.726133 1159.26848,425.705986 1159.20465,418.420334 C1159.1089,407.491856 1159.35064,397.061115 1143.04281,394.030558 C1132.17091,392.010186 1126.10505,391 1124.8452,391 L1127.10437,398.696924 L1121,397.925013 Z" id="Path-90" fill="#453427"></path>
            <path d="M1123.62061,450.344201 C1112.73134,452.65237 1106.85262,456.76798 1105.98445,462.691031 C1105.11628,468.614082 1101.12147,496.682823 1094,546.897254 C1100.69125,552.509098 1108.24353,555.31502 1116.65683,555.31502 C1125.07013,555.31502 1135.93858,554.852374 1149.26217,553.927083 L1154.456,518.771686 L1150.93573,495.610557 C1163.70712,495.667681 1170.85507,493.271148 1172.37957,488.420958 C1174.66632,481.145673 1169.60994,460.005308 1160.27284,456.119979 C1154.0481,453.52976 1150.93573,451.156433 1150.93573,449 L1123.62061,450.344201 Z" id="Path-92" fill="#CC5752"></path>
            <polygon id="Path-93" fill="#F6B48B" points="1152.17054 495.220282 1155.52809 527.65117 1132.74274 555.994015 1126 557.150066 1137.1534 565.867692 1169.52668 536.212095 1171.65827 490"></polygon>
            <path d="M1098.32565,515 L1085.24502,557.964955 C1083.08167,559.589314 1082,560.678823 1082,561.233482 C1082,562.06547 1085.00404,580.598438 1088.45869,580.641539 C1091.91333,580.684641 1087.20613,573.928816 1087.37397,570.205112 C1087.5418,566.481409 1090.16283,566.426552 1090.16283,567.404825 C1090.16283,568.057006 1090.55107,570.598903 1091.32754,575.030515 C1093.45954,576.438931 1094.56799,576.438931 1094.65289,575.030515 C1094.73778,573.622099 1093.62934,567.933579 1091.32754,557.964955 L1094.65289,548.743206 L1101.41393,515 L1098.32565,515 Z" id="Path-94" fill="#F6B48B"></path>
            <path d="M1097.71902,549 L1084.36738,602.74152 C1081.24795,619.659833 1080.29582,629.489868 1081.511,632.231623 C1082.72617,634.973378 1104.52223,654.851644 1146.89918,691.866419 C1155.56362,690.623665 1160.72988,686.894999 1162.39796,680.680421 C1154.75105,672.139123 1136.48079,652.831885 1107.58718,622.758707 L1113.39466,608.656208 L1124.26957,555.629355 L1097.71902,549 Z" id="Path-95" fill="#C28943"></path>
            <path d="M1103,553 L1103,566.921433 C1108.76819,571.275121 1111.47527,575.602479 1111.12124,579.903509 C1110.59019,586.355052 1115.58227,621.942443 1115.32951,628.938401 C1115.161,633.602372 1113.75824,660.43945 1111.12124,709.449632 L1129.43079,711.662528 L1138.96318,651.068806 C1139.47046,630.71911 1140.42589,615.544717 1141.82946,605.545627 C1143.23303,595.546538 1144.4242,584.421676 1145.40295,572.171042 C1148.78068,561.136845 1149.89437,555.183122 1148.74403,554.309873 C1147.59368,553.436624 1132.34567,553 1103,553 Z" id="Path-96" fill="#D1994A"></path>
            <path d="M1125.65415,557 L1138.44382,566.20618 C1140.06372,568.5841 1140.06372,570.445919 1138.44382,571.791637 C1136.01397,573.810215 1130.51844,570.900347 1128.0863,569.04101 C1125.65415,567.181673 1120.21018,558.603864 1120.00683,557.801932 C1119.87127,557.267311 1121.75371,557 1125.65415,557 Z" id="Path-97" fill="#C28943"></path>
            <path d="M1116.02122,710 C1112.54828,712.082066 1110.87689,714.694497 1111.00705,717.837295 C1111.20229,722.551491 1118.89447,723.402021 1120.53269,723.402021 C1122.17092,723.402021 1130.06805,723.275601 1129.60726,721.391269 C1129.30006,720.135048 1129.14646,716.851617 1129.14646,711.540978 L1116.02122,710 Z" id="Path-98" fill="#6B4E3E"></path>
            <path d="M1146.89327,692.608951 C1140.44959,708.585253 1137.50752,716.770888 1138.06706,717.165858 C1138.90637,717.758311 1146.66961,712.037991 1151.77129,704.887404 C1155.17241,700.120346 1160.75335,693.958179 1168.51409,686.400904 L1162.89027,681 L1149.76503,688.022671 L1146.89327,692.608951 Z" id="Path-99" fill="#6B4E3E"></path>
            <ellipse id="Oval-3" fill="#3F4243" opacity="0.0986186594" cx="733.5" cy="735.5" rx="716.5" ry="24.5"></ellipse>
            <path d="M1310.19503,322.566761 L1310.19503,351.613622 C1315.90948,353.454427 1318.59364,355.492984 1318.24752,357.729292 C1317.9014,359.965601 1316.20005,362.452471 1313.14347,365.189902 C1310.52583,370.291667 1309.54302,373.795414 1310.19503,375.701146 C1311.17304,378.559743 1310.69542,380.312271 1314.95823,379.975776 C1319.22103,379.639281 1337.0652,372.054129 1337.0652,365.189902 C1337.0652,360.613751 1338.22803,346.899278 1340.5537,324.046483 C1329.55173,318.682161 1323.73014,316 1323.08893,316 C1322.44772,316 1318.14976,318.18892 1310.19503,322.566761 Z" id="Path-101" fill="#BF8A61"></path>
            <path d="M1313.31682,354.221471 L1303,354.221471 C1306.44787,350.200622 1307.75165,347.180521 1306.91135,345.161168 C1305.65089,342.132139 1303.80196,327.027957 1309.33772,319.592852 C1314.87348,312.157747 1326.0482,308.833299 1337.23788,310.365538 C1348.42756,311.897778 1358.56083,326.014867 1353.51901,343.472947 C1348.47719,360.931027 1328.90155,366.497508 1322.68515,363.949027 C1324.44348,360.66922 1328.22327,354.4066 1334.02451,345.161168 C1337.55588,342.342477 1338.627,340.043198 1337.23788,338.263332 C1335.84875,336.483465 1333.75404,337.373398 1330.95373,340.933131 C1329.68799,336.901869 1328.66286,334.044459 1327.87834,332.360903 C1323.70071,323.395836 1319.58784,319.049504 1316.7744,319.592852 C1313.16845,320.289253 1311.64199,324.309314 1312.19501,331.653036 C1309.02287,334.13193 1308.07044,337.225295 1309.33772,340.933131 C1310.605,344.640968 1311.93137,349.070414 1313.31682,354.221471 Z" id="Path-100" stroke="#000000" stroke-width="2" fill="#000000"></path>
            <path d="M1312.79479,364 C1310.71861,369.393188 1309.80546,373.074811 1310.05535,375.044868 C1310.43018,377.999954 1312.71358,382.725402 1321.79341,377.277719 C1330.87325,371.830036 1336.94152,368.459786 1336.9711,364.589942 C1338.48476,364.196647 1341.84318,364.544589 1347.04636,365.633767 C1341.71197,367.932227 1339.22403,371.298354 1339.58255,375.732148 C1339.94107,380.165941 1339.76181,390.742944 1339.04477,407.463154 C1335.91383,416.807213 1334.60865,422.199146 1335.12921,423.638955 C1335.57199,424.863598 1331.69299,420.441697 1325.68316,418.311734 C1321.09437,416.68541 1315.03688,417.497288 1310.05535,416.643011 C1302.38486,415.327608 1298.36641,404.46415 1298,384.052637 L1307.11102,364 L1312.79479,364 Z" id="Path-102" fill="#11417F"></path>
            <path d="M1348.94581,366 C1343.46227,368.484531 1340.67318,371.239563 1340.57853,374.265098 C1340.48388,377.290633 1340.15942,388.592558 1339.60515,408.170876 C1321.02388,404.861753 1310.74552,403.403839 1308.77008,403.797134 C1306.79465,404.190428 1305.20462,404.635528 1304,405.132434 L1307.31593,412.247765 C1308.51554,410.646623 1310.24951,409.985336 1312.51785,410.263904 C1314.7862,410.542473 1324.54183,413.105161 1341.78476,417.951967 C1344.37111,417.105865 1346.21121,414.943642 1347.30505,411.465299 C1348.94581,406.247784 1357.35341,376.943766 1354.74412,371.471883 C1353.00459,367.823961 1351.07182,366 1348.94581,366 Z" id="Path-103" fill="#BF8A61"></path>
            <polygon id="Path-104" stroke="#000000" stroke-width="2" points="1270.64038 396 1274.86745 406.07349 1268 417.04477 1295.75755 417.896962 1301.23857 407.668192 1307.38693 417.04477 1309.40618 417.04477 1299.10779 396"></polygon>
            <polygon id="Path-105" stroke="#000000" stroke-width="2" points="1275.89231 406 1269 417.195974 1296.17775 418.378021 1302.15069 406"></polygon>
            <path d="M1268.66884,417.669603 L1232,477.330984 L1239.88926,479.980862 L1266.94761,454.421782 L1275.02906,505.221038 L1282.09171,505.221038 C1283.83562,470.713091 1284.2716,452.10158 1283.39965,449.386503 C1282.52769,446.671427 1281.605,445.313888 1280.63156,445.313888 L1327.90672,445.313888 C1331.95968,443.975298 1334.44713,442.623712 1335.36907,441.259132 C1340.98843,432.94176 1338.34351,425.13962 1334.35112,422.884318 C1329.37622,420.073996 1321.27834,416.779223 1310.05746,413 L1268.66884,417.669603 Z" id="Path-106" fill="#F9CD7D"></path>
            <path d="M1276.33593,433.021904 C1268.81603,432.736166 1264.76496,435.24601 1264.18272,440.551436 C1263.60047,445.856862 1264.40978,450.668767 1266.61064,454.98715 L1275.08753,505.376508 L1282.16549,505.376508 L1283.69368,451.030191 L1280.41024,445.003334 L1308.06048,445.003334 L1276.33593,433.021904 Z" id="Path-108" fill="#EFBE74"></path>
            <path d="M1232.09749,478 C1222.8626,487.764068 1218.51127,492.700857 1219.0435,492.810367 C1219.84186,492.974634 1223.68043,494.106691 1225.54874,491.237778 C1226.79428,489.32517 1231.52064,485.851459 1239.72782,480.816646 L1232.09749,478 Z" id="Path-109" fill="#BF8A61"></path>
            <path d="M1218.74134,492.241888 L1212.87544,492.241888 C1211.47286,494.024309 1211.75563,495.630019 1213.72376,497.059019 C1216.67596,499.202519 1223.61132,498.771752 1224.07253,497.915386 C1224.38,497.344475 1226.91655,494.502748 1231.68218,489.390206 L1230.19,500.642432 C1237.17456,491.835243 1240.4976,486.931767 1240.15911,485.932003 C1239.82063,484.932239 1239.65138,483.288238 1239.65138,481 C1230.61132,485.639464 1226.09129,488.436199 1226.09129,489.390206 C1226.09129,490.821216 1222.85604,493.401515 1221.71364,493.120654 C1220.95204,492.933414 1219.96128,492.640492 1218.74134,492.241888 Z" id="Path-110" fill="#11417F"></path>
            <path d="M1275.6148,504 L1270,519.399894 C1270.75978,520.504499 1271.69558,521.056801 1272.8074,521.056801 C1273.91922,521.056801 1277.07176,515.71176 1282.26505,505.021677 L1275.6148,504 Z" id="Path-111" fill="#BF8A61"></path>
            <path d="M1269.40204,520.25199 C1267,521.579132 1266.39949,523.288938 1267.60051,525.381408 C1269.40204,528.520113 1271.27832,528.403362 1272.84006,528.041535 C1274.40181,527.679707 1279.44954,523.958242 1278.8595,521.746926 C1278.46614,520.272716 1278.66282,519.288439 1279.44954,518.794096 L1280.42488,521.746926 L1283.51695,521.746926 L1283.08435,505 L1272.84006,521.315644 L1269.40204,520.25199 Z" id="Path-112" fill="#11417F"></path>
        </g>
    </g>
</svg>