<?xml version="1.0" encoding="UTF-8"?>
<svg width="30px" height="20px" viewBox="0 0 30 20" version="1.1" xmlns="http://www.w3.org/2000/svg" xmlns:xlink="http://www.w3.org/1999/xlink">
    <!-- Generator: Sketch 48.2 (47327) - http://www.bohemiancoding.com/sketch -->
    <title>php</title>
    <desc>Created with Sketch.</desc>
    <defs>
        <linearGradient x1="7.77957576%" y1="10.6215783%" x2="92.2211105%" y2="89.3956218%" id="linearGradient-1">
            <stop stop-color="#FFFFFF" stop-opacity="0.2" offset="0%"></stop>
            <stop stop-color="#FFFFFF" stop-opacity="0" offset="100%"></stop>
        </linearGradient>
    </defs>
    <g id="Page-1" stroke="none" stroke-width="1" fill="none" fill-rule="evenodd">
        <g id="php" fill-rule="nonzero">
            <path d="M15,0 C6.58875,0 0,4.39289063 0,10 C0,15.6071094 6.58875,20 15,20 C23.41125,20 30,15.6071094 30,10 C30,4.39289062 23.41125,0 15,0 Z" id="Shape" fill="#303C42"></path>
            <path d="M15,18.3333594 C11.4061523,18.3333594 8.0896875,17.4405469 5.60982422,16.0151563 L6.11326172,13.3333594 L8.30566406,13.3333594 C9.95847656,13.3333594 11.3928516,11.84 11.7944531,9.70132812 L11.9037305,9.11460937 C12.0911133,8.11851562 11.9262891,7.08257812 11.4526758,6.27359375 C10.978418,5.46390625 10.2655078,5 9.49523437,5 L6.87498047,5 C6.58810547,5 6.33849609,5.26039062 6.26888672,5.63148437 L4.45951172,15.2815625 C2.46580078,13.8321094 1.24998047,11.9840625 1.24998047,10 C1.24998047,5.48257812 7.54699219,1.66664062 15,1.66664062 C22.4530078,1.66664062 28.7500195,5.48257812 28.7500195,10 C28.7500195,14.5174219 22.4530078,18.3333594 15,18.3333594 Z" id="Shape" fill="#82B1FF"></path>
            <path d="M1.875,10.8333594 C1.875,6.3159375 8.17201172,2.5 15.6250195,2.5 C20.8443164,2.5 25.4874609,4.374375 27.8073047,7.0475 C25.7913867,3.93835938 20.7459961,1.66664062 15,1.66664062 C7.54699219,1.66664062 1.24998047,5.48257812 1.24998047,10 C1.24998047,11.3298437 1.80609375,12.5950781 2.76662109,13.7236719 C2.19369141,12.8184375 1.875,11.8439062 1.875,10.8333594 Z" id="Shape" fill="#FFFFFF" opacity="0.2"></path>
            <path d="M6.42580078,11.6666406 L7.36330078,6.66664063 L9.49523437,6.66664063 C9.87732422,6.66664063 10.2319336,6.89695313 10.4668945,7.29898438 C10.7025,7.70101563 10.7842969,8.2153125 10.6908984,8.7109375 L10.5816211,9.29765625 C10.3197656,10.6925 9.38408203,11.6666406 8.30560547,11.6666406 L6.42580078,11.6666406 Z" id="SVGCleanerId_0" fill="#82B1FF"></path>
            <path d="M6.42580078,11.6666406 L7.36330078,6.66664063 L9.49523437,6.66664063 C9.87732422,6.66664063 10.2319336,6.89695313 10.4668945,7.29898438 C10.7025,7.70101563 10.7842969,8.2153125 10.6908984,8.7109375 L10.5816211,9.29765625 C10.3197656,10.6925 9.38408203,11.6666406 8.30560547,11.6666406 L6.42580078,11.6666406 Z" id="SVGCleanerId_0_1_" fill="#82B1FF"></path>
            <g id="Group" transform="translate(12.480469, 2.500000)" fill="#303C42">
                <path d="M11.3897461,2.5 L8.76949219,2.5 C8.48261719,2.5 8.23300781,2.76039062 8.16339844,3.13148437 L6.91646484,9.77945313 C6.91400391,9.79164063 6.9121875,9.80304688 6.90972656,9.81445312 L6.28839844,13.1314844 C6.20414063,13.5774219 6.40804687,14.0299219 6.74308594,14.1414062 C6.79376953,14.1585156 6.84503906,14.1666406 6.89507812,14.1666406 C7.17521484,14.1666406 7.42974609,13.914375 7.50052734,13.5351562 L8.00771484,10.8333594 L10.2001172,10.8333594 C11.8529297,10.8333594 13.2873047,9.34 13.6889062,7.20132812 L13.7981836,6.61460937 C13.9855664,5.61851562 13.8207422,4.58257812 13.3471289,3.77359375 C12.8729297,2.96390625 12.1600195,2.5 11.3897461,2.5 Z M12.5854687,6.2109375 L12.4761914,6.79765625 C12.2143359,8.1925 11.2786523,9.16664062 10.2001758,9.16664062 L8.3203125,9.16664062 L9.2578125,4.16664062 L11.3897461,4.16664062 C11.7718359,4.16664062 12.1264453,4.39695312 12.3614062,4.79898437 C12.5970703,5.20101563 12.6788086,5.7153125 12.5854687,6.2109375 Z" id="Shape"></path>
                <path d="M5.88867187,3.51726563 C5.49375,2.87109375 4.90904297,2.5 4.2834375,2.5 L2.30214844,2.5 L2.50916016,0.982265625 C2.57144531,0.529765625 2.34621094,0.096015625 2.00625,0.013828125 C1.66875,-0.06921875 1.34097656,0.23109375 1.27992188,0.684375 L0.0298828125,9.85109375 C-0.0324023437,10.3035937 0.192832031,10.7373437 0.532792969,10.8195313 C0.570644531,10.8292969 0.607851563,10.8333594 0.645117188,10.8333594 C0.941777344,10.8333594 1.20480469,10.5517969 1.25912109,10.1489844 L2.07486328,4.16671875 L4.2834375,4.16671875 C4.53123047,4.16671875 4.76255859,4.31320313 4.91882812,4.56953125 C5.07509766,4.82585938 5.13609375,5.15789063 5.08546875,5.48179688 L4.40736328,9.83078125 C4.33716797,10.2807813 4.55443359,10.721875 4.89257812,10.8163281 C4.93529297,10.8277344 4.97800781,10.8334375 5.02013672,10.8334375 C5.31005859,10.8334375 5.57003906,10.5632813 5.63173828,10.169375 L6.30984375,5.82039063 C6.43675781,5.0040625 6.28294922,4.16421875 5.88867187,3.51726563 Z" id="Shape"></path>
            </g>
            <path d="M15,0 C6.58875,0 0,4.39289063 0,10 C0,15.6071094 6.58875,20 15,20 C23.41125,20 30,15.6071094 30,10 C30,4.39289062 23.41125,0 15,0 Z" id="Shape" fill="url(#linearGradient-1)"></path>
        </g>
    </g>
</svg>