<?xml version="1.0" encoding="UTF-8"?>
<svg width="618px" height="404px" viewBox="0 0 618 404" version="1.1" xmlns="http://www.w3.org/2000/svg" xmlns:xlink="http://www.w3.org/1999/xlink">
    <!-- Generator: Sketch 48.2 (47327) - http://www.bohemiancoding.com/sketch -->
    <title>71380-ODSR85-970</title>
    <desc>Created with Sketch.</desc>
    <defs></defs>
    <g id="Page-1" stroke="none" stroke-width="1" fill="none" fill-rule="evenodd">
        <g id="71380-ODSR85-970">
            <path d="M187.98,230.347 L184.637,230.263 C179.607,230.131 175.384,234.144 175.256,239.174 L174.97,250.432 C174.84,255.462 178.853,259.684 183.884,259.816 L187.226,259.902 C192.257,260.029 196.479,256.017 196.607,250.986 L196.895,239.729 C197.023,234.697 193.013,230.476 187.98,230.347" id="Fill-8" fill="#4976AE"></path>
            <polyline id="Fill-9" fill="#161716" points="122.776 293.103 33.444 293.103 33.444 334.342 497.645 334.342 497.645 293.103 122.776 293.103"></polyline>
            <path d="M53.276,124.679 C35.593,124.679 21.256,144.296 21.256,168.493 L21.256,240.636 L502.226,240.636 L502.226,168.493 C502.226,144.296 487.891,124.679 470.205,124.679 L53.276,124.679 Z" id="Fill-10" fill="#80BCFA"></path>
            <path d="M231.589,124.679 L68.171,124.679 C68.415,135.461 68.778,151.772 68.778,153.048 C68.778,154.967 64.393,159.9 62.475,167.027 C60.556,174.153 70.423,180.458 70.423,180.458 C70.423,180.458 57.541,198.273 53.978,208.963 C50.415,219.652 53.704,238.886 53.704,238.886 C53.704,238.886 54.319,239.214 55.017,240.636 L205.73,240.636 C206.318,239.662 206.642,239.05 206.642,238.886 C206.642,237.136 149.359,207.318 149.359,207.318 L154.018,190.599 C154.018,190.599 188.005,191.147 193.486,190.599 C197.694,190.178 220.311,146.801 231.589,124.679" id="Fill-11" fill="#5290D0"></path>
            <path d="M470.206,124.679 L278.789,124.679 C295.012,141.05 339.951,186.068 345.329,187.861 C351.907,190.054 365.063,186.765 365.063,186.765 L357.389,216.64 L360.13,238.886 L364.691,240.636 L495.815,240.636 C497.725,236.279 499.895,231.309 502.226,225.934 L502.226,168.494 C502.226,144.296 487.891,124.679 470.206,124.679" id="Fill-12" fill="#5290D0"></path>
            <polyline id="Fill-13" fill="#3A3A39" points="162.555 293.103 487.893 293.103 487.893 238.886 162.555 238.886 162.555 239.862 156.555 238.886 35.591 238.886 35.591 293.103 162.555 293.103"></polyline>
            <path d="M162.555,293.103 L169.855,293.103 C169.855,293.103 206.642,240.636 206.642,238.886 L162.555,238.886 L162.555,239.862 L156.555,238.886 L53.704,238.886 C53.704,238.886 56.993,240.636 56.993,253.638 C56.993,266.641 95.913,271.728 95.913,271.728 L89.883,293.103 L162.555,293.103" id="Fill-14" fill="#333332"></path>
            <polyline id="Fill-15" fill="#333332" points="388.871 293.103 455.93 293.103 487.893 258.575 487.893 238.886 360.13 238.886 397.167 253.094 388.871 293.103"></polyline>
            <path d="M505.646,179.585 L493.805,179.585 C483.783,179.585 475.658,185.792 475.658,193.454 L475.658,358.461 L523.793,358.461 L523.793,193.454 C523.793,185.792 515.668,179.585 505.646,179.585" id="Fill-16" fill="#1B1A19"></path>
            <path d="M465.742,235.181 L407.636,235.181 L407.709,231.997 C407.709,231.997 406.544,228.046 403.36,224.033 L465.889,231.224 L465.742,235.181" id="Fill-17" fill="#656C71"></path>
            <path d="M144.583,100.288 C138.479,99.695 127.51,109.47 127.424,119.073 C127.341,128.678 138.092,178.325 140.605,180.279 C143.117,182.233 151.369,183.519 153.172,179.393 C154.974,175.264 152.605,132.227 151.235,124.326 C149.866,116.423 152.536,101.058 144.583,100.288" id="Fill-18" fill="#161716"></path>
            <path d="M148.503,162.592 C146.125,164.65 136.678,174.549 146.155,178.754 C151.658,181.197 163.896,171.662 171.953,164 C180.013,156.343 203.561,132.823 203.561,132.823 L197.016,125.439 C197.016,125.439 150.883,160.53 148.503,162.592" id="Fill-19" fill="#ED9874"></path>
            <path d="M117.538,330.484 C114.426,333.392 111.258,334.352 108.963,335.316 C105.984,336.572 103.126,340.447 103.337,342.316 C103.921,347.453 108.122,349.267 109.764,354.372 C111.406,359.472 109.987,371.721 112.343,374.914 C114.697,378.104 121.721,383.466 123.354,382.411 C124.988,381.354 122.307,370.288 122.307,370.288 C122.827,348.41 126.937,341.325 126.937,341.325 C138.524,324.138 177.926,284.847 181.876,281.028 C185.827,277.208 201.549,260.545 204.117,252.892 C212.325,235.803 127.922,211.37 113.524,208.155 C109.172,207.186 82.622,222.745 86.616,248.575 C87.537,254.531 121.984,257.766 144.947,257.199 C148.995,257.098 160.393,259.865 164.741,259.903 C146.951,278.402 129.629,307.689 117.538,330.484" id="Fill-20" fill="#ED9874"></path>
            <path d="M122.61,375.815 C121.393,376.221 118.214,373.304 117.689,372.193 C112.966,362.215 109.453,345.672 109.472,341.396 C109.492,336.952 111.75,333.78 111.75,333.78 C111.025,333.303 104.436,335.449 102.295,339.238 C101.941,339.919 101.412,341.61 101.257,342.564 C100.392,344.875 99.366,347.581 98.819,348.89 C97.22,352.726 92.26,359.769 92.26,359.769 L93.796,360.786 C93.796,360.786 102.591,347.094 106.269,356.009 C108.188,361.313 106.38,373.823 109.047,377.116 C111.713,380.407 123.155,388.799 124.936,387.661 C126.335,386.77 124.365,377.264 122.754,372.003 C122.754,372.003 123.456,375.533 122.61,375.815" id="Fill-21" fill="#0A0B09"></path>
            <path d="M88.621,235.265 C96.746,239.742 103.991,242.819 104.615,242.928 C105.187,243.028 108.333,241.868 112.244,240.17 C105.06,238.687 96.836,237.008 88.621,235.265 Z M143.753,105.657 C141.574,101.598 128.228,91.645 128.302,89.822 C128.373,87.997 113.66,88.716 111.739,88.136 C111.739,88.136 107.69,79.525 105.75,80.611 C99.708,83.998 83.512,85.252 78.558,92.12 C75.216,96.758 79.214,108.971 83.21,123.883 C104.646,123.551 130.837,123.204 147.167,123.197 C145.053,119.102 143.034,115.703 143.035,114.422 C143.038,111.535 144.849,107.697 143.753,105.657 Z" id="Fill-22" fill="#DAA47E"></path>
            <path d="M115.091,214.504 C111.928,213.1 76.926,192.593 67.345,206.436 C64.667,210.309 60.365,223.107 61.876,231.474 C64.29,244.856 86.857,253.009 109.334,257.618 C139.631,263.829 165.475,270.663 167.607,269.525 C169.737,268.388 177.919,253.525 177.362,250.646 C176.804,247.77 119.157,216.312 115.091,214.504" id="Fill-23" fill="#F2B58A"></path>
            <path d="M105.876,41.702 C88.296,39.9 88.865,60.074 93.607,63.249 C99.892,67.458 103.61,67.439 106.717,64.685 C109.825,61.931 113.719,55.282 113.061,51.759 C112.402,48.235 105.876,41.702 105.876,41.702" id="Fill-24" fill="#1B1A19"></path>
            <path d="M107.511,60.226 C107.834,69.483 108.158,76.839 104.198,85.859 L132.36,94.358 C130.953,92.672 129.544,90.985 128.137,89.298 C124.916,85.136 122.053,81.927 124.9,69.317 C119.103,66.286 113.307,63.256 107.511,60.226" id="Fill-25" fill="#DAA47E"></path>
            <path d="M155.093,249.874 C141.262,254.998 128.718,277.428 125.043,286.959 C121.369,296.491 110.016,351.16 107.974,354.291 C105.933,357.425 118.801,362.805 119.656,360.908 C130.538,336.8 158.617,295.616 161.62,291.05 C164.622,286.48 175.17,266.844 179.038,258.268 C184.17,246.895 163,246.674 155.093,249.874" id="Fill-26" fill="#F2B58A"></path>
            <path d="M120.466,359.581 C120.466,359.581 109.766,349.573 109.4,350.181 C106.917,354.291 103.735,356.047 101.552,357.596 C98.924,359.456 96.996,363.841 97.625,365.618 C99.349,370.498 103.861,371.356 106.61,375.973 C109.361,380.594 110.727,392.826 113.744,395.428 C116.762,398.028 124.831,401.739 126.19,400.358 C127.549,398.98 122.444,388.778 122.444,388.778 C118.042,367.362 120.466,359.581 120.466,359.581" id="Fill-27" fill="#F2B58A"></path>
            <path d="M123.068,392.367 C122.065,392.962 118.666,390.802 117.981,389.859 C111.82,381.373 105.444,366.539 104.619,362.545 C103.762,358.389 105.146,355.023 105.146,355.023 C104.405,354.7 98.976,357.881 97.817,361.803 C97.591,362.681 97.434,365.08 97.625,365.618 C98.596,368.365 103.447,374.747 104.649,376.767 C107.398,381.383 108.252,393.392 111.269,395.992 C114.288,398.596 126.107,404.401 127.466,403.024 C128.533,401.94 124.911,393.406 122.444,388.778 C122.444,388.778 123.763,391.953 123.068,392.367" id="Fill-28" fill="#0A0B09"></path>
            <path d="M96.628,371.442 C95.961,375.308 92.942,382.773 92.942,382.773 L94.508,383.449 C94.508,383.449 99.627,369.089 104.649,376.767 C106.216,379.163 98.077,361.117 98.077,361.117 C98.077,361.117 97.069,368.885 96.628,371.442" id="Fill-29" fill="#0A0B09"></path>
            <path d="M134.011,207.264 C110.161,215.727 90.502,214.589 70.925,195.708 C68.841,199.485 66.922,203.224 65.438,206.772 C59.957,219.88 57.782,227.198 64.489,239.31 C74.584,257.55 111.529,260.835 136.679,263.548 C136.679,263.548 149.771,242.353 169.408,242.665 C186.706,240.109 201.618,244.149 201.636,242.755 C201.807,228.78 133.793,213.182 134.011,207.264" id="Fill-30" fill="#191716"></path>
            <path d="M74.375,198.85 C73.648,198.226 72.921,197.577 72.194,196.905 L70.112,197.195 C68.344,200.465 66.727,203.69 65.438,206.772 C59.957,219.88 57.782,227.198 64.489,239.31 C74.584,257.55 111.529,260.835 136.679,263.548 C136.679,263.548 139.937,258.275 145.639,253.028 L144.08,252.541 C144.08,252.541 119.656,256.526 99.13,247.607 C78.604,238.688 76.929,229.243 76.929,229.243 L74.375,198.85" id="Fill-31" fill="#161514"></path>
            <path d="M84.253,127.859 C84.253,127.859 88.977,150.733 88.695,160.218 C88.474,167.66 71.87,185.025 64.263,198.801 C83.84,217.682 114.92,217.631 138.77,209.167 C139.015,202.713 134.312,186.8 135.141,178.882 C136.126,169.505 139.859,153.086 142.83,150.659 C145.8,148.233 151.795,142.966 152.507,137.065 C153.122,131.962 148.114,124.229 146.745,122.228 L145.541,102.378 C145.541,102.378 145.541,102.378 144.583,100.288 C143.624,98.201 126.393,86.982 126.393,86.982 L132.674,120.393 C129.825,120.006 127.094,119.536 125.126,118.987 L105.859,80.53 C105.859,80.53 82.679,85.627 78.899,90.523 C75.116,95.414 74.433,104.733 74.433,104.733 C89.43,121.548 80.867,115.432 84.253,127.859" id="Fill-32" fill="#1D1D1B"></path>
            <path d="M84.253,127.859 C84.253,127.859 88.977,150.733 88.695,160.218 C88.474,167.66 71.87,185.025 64.263,198.801 C74.494,208.669 87.867,213.363 101.708,214.39 C97.216,211.407 89.166,206.757 87.289,202.869 C84.449,196.984 90.934,186.168 98.067,173.874 C105.201,161.581 126.862,152.143 128.528,152.143 C130.194,152.143 103.461,150.817 101.879,143.816 C100.298,136.813 97.946,101.942 95.937,101.603 C93.929,101.263 83.659,125.232 83.657,125.239 C83.793,126.01 83.985,126.876 84.253,127.859" id="Fill-33" fill="#191917"></path>
            <path d="M134.961,112.71 C133.415,112.71 115.569,113.186 115.569,113.186 L131.651,128.713 L134.961,112.71" id="Fill-34" fill="#FFFFFE"></path>
            <path d="M146.366,53.359 C146.975,52.275 153.853,38.248 147.01,29.487 C141.036,21.844 122.64,13.894 110.54,25.896 C98.436,37.904 102.401,47.702 106.571,56.978 C107.361,58.684 107.641,61.87 108.576,63.428 C111.268,67.918 113.706,71.521 119.373,75.319 C120.92,76.356 131.693,81.073 134.861,80.538 C137.03,80.167 141.936,68.118 142.526,68.28 C143.118,68.442 147.453,66.565 148.596,65.495 C148.997,63.713 144.797,57.329 146.366,53.359" id="Fill-35" fill="#F2B58A"></path>
            <path d="M127.251,17.548 C119.103,16.542 105.635,19.535 100.944,30.866 C96.255,42.194 107.746,63.678 106.134,63.024 C106.134,63.024 112.783,57.802 115.79,56.999 C116.208,56.292 119.764,51.067 120.132,49.426 C121.121,45.017 119.536,43.442 121.233,42.559 C125.618,40.274 131.846,44.346 135.09,44.306 C137.484,44.276 141.381,43.222 144.784,41.95 C150.633,41.202 155.58,40.495 154.719,36.451 C148.159,24.955 140.434,19.169 127.251,17.548" id="Fill-36" fill="#1B1A19"></path>
            <path d="M87.763,88.742 C81.901,87.023 76.329,93.595 74.613,103.424 C72.897,113.254 74.963,166.088 77.084,168.55 C79.206,171.011 87.048,173.833 89.511,169.932 C91.973,166.031 96.972,121.497 96.979,113.145 C96.982,104.798 95.4,90.982 87.763,88.742" id="Fill-37" fill="#1D1D1B"></path>
            <path d="M206.414,145.606 C207.604,143.226 219.381,111.581 219.381,111.581 L203.718,94.666 C203.718,94.666 185.537,145.15 184.524,143.821 C183.51,142.492 206.414,145.606 206.414,145.606" id="Fill-38" fill="#9E402B"></path>
            <path d="M191.467,135.47 C191.586,134.042 204.077,100.374 204.077,100.374 C204.077,100.374 216.607,113.406 216.688,112.39 C216.769,111.373 204.196,137.135 204.196,137.135 L191.467,135.47" id="Fill-39" fill="#FFFFFE"></path>
            <polyline id="Fill-40" fill="#DF5431" points="219.381 111.581 171.556 107.774 149.666 179.868 193.446 179.63 219.381 111.581"></polyline>
            <path d="M89.701,157.688 C86.672,157.807 73.64,159.623 78.427,168.828 C81.207,174.173 96.166,174.386 106.824,173.445 C117.482,172.509 149.296,168.882 149.296,168.882 L148.615,159.033 C148.615,159.033 111.974,158.07 96.423,157.77 C92.769,157.7 90.277,157.665 89.701,157.688" id="Fill-41" fill="#F2B58A"></path>
            <path d="M158.67,158.359 C157.169,158.08 154.87,156.259 153.535,156.259 C152.201,156.259 148.615,159.033 148.615,159.033 L148.196,168.774 C148.196,168.774 157.397,169.294 161.997,168.63 C169.336,165.546 174.571,154.566 171.417,155.658 C168.964,154.745 160.001,158.609 158.67,158.359" id="Fill-42" fill="#F2B58A"></path>
            <polyline id="Fill-43" fill="#B6C7DC" points="436.511 79.846 401.678 80.086 401.597 67.943 436.425 67.702 436.511 79.846"></polyline>
            <path d="M486.377,297.436 C487.999,305.899 488.823,312.394 494.533,308.646 C502.385,304.006 508.288,296.546 508.633,287.733 C509.591,263.995 517.294,271.659 497.873,258.566 L484.464,274.715 C484.464,274.715 484.754,288.982 486.377,297.436" id="Fill-44" fill="#151514"></path>
            <path d="M372.905,84.269 C370.497,83.489 369.852,81.166 367.601,82.937 C363.741,85.971 358.522,95.445 355.941,104.919 C352.537,117.991 346.213,147.275 343.368,160.966 C342.144,166.86 345.703,170.735 351.15,172.471 C355.708,173.924 359.274,173.665 364.159,164.516 C367.998,155.483 391.229,90.457 372.905,84.269" id="Fill-45" fill="#1D1D1B"></path>
            <path d="M466.356,86.811 C454.17,79.328 419.001,74.541 419.001,74.541 L418.998,75.149 C418.998,75.149 383.476,77.872 371.189,85.19 C361.763,90.806 377.861,125.123 383.925,144.201 C385.381,148.78 385.075,169.259 384.382,187.413 C384.211,191.894 380.431,212.466 380.992,220.988 C381.162,223.529 410.004,230.763 418.061,231.224 C426.119,230.875 454.79,223.433 454.995,220.89 C455.672,212.381 452.178,191.758 452.069,187.277 C451.624,169.112 451.606,148.633 453.121,144.074 C459.445,125.081 475.707,92.555 466.356,86.811" id="Fill-46" fill="#F2B58A"></path>
            <path d="M407.727,47.428 L418.934,47.347 L418.938,47.955 L430.822,47.869 C430.822,47.869 428.988,58.524 433.79,69.406 C434.622,73.028 444.44,78.43 444.44,78.43 L443.244,78.437 C431.937,75.508 412.472,81.905 410.958,81.479 C407.794,80.597 402.394,77.028 402.394,77.028 L405.145,63.941 C405.862,58.442 406.708,50.622 406.969,48.187 L407.727,47.428" id="Fill-47" fill="#DAA47E"></path>
            <polyline id="Fill-48" fill="#252522" points="387.59 195.149 376.853 222.379 391.266 231.034 420.863 238.886 459.689 237.666 467.641 233.322 456.857 195.149 387.59 195.149"></polyline>
            <path d="M430.026,354.024 L409.132,356.118 L407.973,368.456 C407.973,374.173 422.703,379.79 427.293,381.346 C434.801,385.985 445.396,385.63 451.105,383.309 C458.599,379.919 453.899,374.393 447.788,368.315 C441.686,362.24 430.026,354.024 430.026,354.024" id="Fill-49" fill="#151514"></path>
            <path d="M469.979,86.882 C468.64,84.065 459.778,81.925 451.845,79.394 C444.852,77.165 438.599,74.359 438.599,74.359 L419.044,85.342 L399.672,74.03 C399.672,74.03 401.918,73.859 394.89,75.972 C386.914,78.366 372.089,92.032 370.703,94.829 C369.295,97.666 380.485,143.626 382.045,148.284 C383.608,152.948 379.219,183.829 383.194,193.584 L418.069,196.568 L418.069,196.573 L418.138,196.568 L418.146,196.573 L418.146,196.568 L454.043,197.358 C457.321,186.233 453.296,152.92 454.937,148.289 C456.578,143.652 471.338,89.741 469.979,86.882" id="Fill-50" fill="#CFDCE8"></path>
            <path d="M440.426,74.438 C440.426,74.438 467.949,80.989 471.374,82.877 C474.8,84.77 465.494,135.141 461.601,147.606 C455.607,166.801 469.924,218.65 469.924,218.65 C449.133,223.784 443.791,221.798 429.731,210.619 L432.454,143.414 L440.426,74.438" id="Fill-51" fill="#1D1D1B"></path>
            <polyline id="Fill-52" fill="#B6C7DC" points="424.006 78.209 430.795 81.352 419.104 85.856 420.606 79.297 424.006 78.209"></polyline>
            <polyline id="Fill-53" fill="#B6C7DC" points="417.661 79.359 419.196 85.856 407.448 81.51 414.189 78.275 417.661 79.359"></polyline>
            <polyline id="Fill-54" fill="#1D1D1B" points="416.521 91.493 413.303 81.096 424.746 81.015 421.152 91.462 425.389 189.331 417.916 198.58 409.793 189.613 416.521 91.493"></polyline>
            <path d="M398.55,74.498 C398.55,74.498 371.026,81.048 367.601,82.937 C364.175,84.829 373.481,135.201 377.374,147.666 C383.368,166.86 369.051,218.709 369.051,218.709 C389.842,223.843 395.897,221.859 409.957,210.68 L406.521,143.474 L398.55,74.498" id="Fill-55" fill="#1D1D1B"></path>
            <path d="M399.583,74.388 C398.619,75.098 381.988,91.972 381.988,91.972 L392.517,96.79 C392.517,96.79 382.255,109.639 383.326,110.353 C384.396,111.067 407.005,152.781 407.005,152.781 C407.005,152.781 399.943,74.189 399.583,74.388" id="Fill-56" fill="#222321"></path>
            <path d="M294.328,112.611 L294.364,112.673 L294.328,112.611 C293.96,112.292 297.15,113.972 299.029,114.44 C301.015,114.934 308.895,115.497 310.565,116.172 C312.235,116.848 315.666,121.272 315.666,121.272 L312.482,130.664 C312.482,130.664 301.674,125.569 296.172,122.616 C290.674,119.663 274.21,104.561 278.252,101.488 C280.009,99.417 293.634,111.885 294.328,112.611" id="Fill-57" fill="#F2B58A"></path>
            <path d="M323.062,125.579 C322.513,125.237 315.182,119.481 315.182,119.481 L304.287,131.678 L309.7,136.131 L323.062,125.579" id="Fill-58" fill="#FFFFFE"></path>
            <path d="M357.463,171.625 C373.882,156.816 327.164,125.817 316.848,119.895 L304.95,135.205 C304.95,135.205 323.121,153.039 334.159,163.991 C345.197,174.944 353.116,175.544 357.463,171.625" id="Fill-59" fill="#1D1D1B"></path>
            <polyline id="Fill-60" fill="#E2F3F8" points="417.661 79.359 411.937 90.164 394.89 75.972 401.624 67.943 417.661 79.359"></polyline>
            <path d="M419.333,3.433 C435.375,5.174 443.752,15.829 442.336,33.35 C441.036,50.774 420.783,65.859 409.973,65.052 C401.55,64.377 397.168,54.586 392.695,41.803 C391.577,38.606 393.747,37.341 393.588,33.837 C393.547,32.94 391.332,29.704 391.33,28.802 C391.402,27.565 391.546,26.364 391.754,25.201 C394.332,10.862 406.927,2.192 419.333,3.433" id="Fill-61" fill="#F2B58A"></path>
            <path d="M416.698,1.018 C420.955,-0.176 434.37,-3.27 441.531,13.598 C448.69,30.462 441.543,45.523 430.537,55.294 C429.188,55.283 434.841,39.317 430.195,29.113 C429.554,27.701 425.925,39.369 424.978,38.18 C424.093,37.069 427.761,23.66 424.316,20.795 C408.308,7.472 393.099,17.778 393.099,17.778 C379.018,4.151 412.444,2.206 416.698,1.018" id="Fill-62" fill="#1B1A19"></path>
            <path d="M432.666,28.56 C435.241,29.174 436.385,33.648 435.214,38.551 C434.044,43.454 431.004,46.927 428.429,46.314 C425.853,45.7 426.167,39.166 427.337,34.264 C428.507,29.362 430.091,27.945 432.666,28.56" id="Fill-63" fill="#F2B58A"></path>
            <polyline id="Fill-64" fill="#ED9874" points="431.281 170.653 431.218 170.688 431.281 170.653"></polyline>
            <polyline id="Fill-65" fill="#60686D" points="346.114 309.855 343.81 309.855 344.371 309.82 346.114 309.855"></polyline>
            <path d="M153.041,159.827 C153.041,159.262 152.19,156.678 152.518,156.545 C152.845,156.412 157.886,152.798 157.886,152.798 L156.739,156.573 L153.041,159.827" id="Fill-66" fill="#F2B58A"></path>
            <path d="M113.151,43.18 C106.421,46.679 110.515,60.748 114.388,58.444 C116.681,57.08 117.82,49.484 118.094,47.567 C118.515,44.641 116.497,41.441 113.151,43.18" id="Fill-67" fill="#F2B58A"></path>
            <path d="M91.664,149.653 L96.433,157.995 C96.433,157.995 88.262,159.766 83.574,165.238 C78.887,170.71 79.47,176.832 79.47,176.832 C79.47,176.832 69.655,173.447 69.179,171.543 C67.089,163.183 77.35,153.474 85.24,150.605 C90.474,148.702 91.664,149.653 91.664,149.653" id="Fill-68" fill="#FFFFFE"></path>
            <path d="M106.584,78.204 L99.988,81.96 C98.935,82.559 94.441,96.237 94.441,96.237 L108.915,101.351 C108.915,101.351 100.23,113.366 101.658,113.604 C103.085,113.842 132.614,130.558 131.637,128.594 L106.584,78.204" id="Fill-69" fill="#9EA0A0"></path>
            <path d="M124.29,82.647 C130.152,87.44 136.137,89.951 141.339,95.078 L134.379,106.313 C134.379,106.313 144.2,113.947 143.035,114.422 C141.869,114.898 131.851,130.103 131.618,128.636 L124.29,82.647" id="Fill-70" fill="#9EA0A0"></path>
            <path d="M115.624,45.49 C114.494,45.133 112.293,45.371 111.877,47.691 C111.46,50.011 111.406,53.53 112.772,54.923 C114.137,56.317 115.803,54.234 115.386,52.926 C114.97,51.617 114.018,50.249 115.029,49.238 C116.04,48.227 116.1,48.703 116.1,47.513 C116.1,46.323 115.624,45.49 115.624,45.49" id="Fill-71" fill="#E3A276"></path>
            <path d="M150.541,34.23 C151.076,34.706 154.127,35.433 154.188,35.782 C154.249,36.131 155.121,39.643 150.422,45.829 C145.722,52.016 131.208,53.086 131.208,53.086 C131.208,53.086 139.834,51.123 143.759,48.387 C147.685,45.651 149.484,38.993 149.484,38.993 L150.541,34.23" id="Fill-72" fill="#1B1A19"></path>
            <path d="M314.476,119.817 C314.476,119.817 311.706,118.159 310.565,116.172 C309.424,114.184 305.082,112.102 301.275,109.366 C299.192,107.869 293.458,102.799 296.692,110.601 C297.703,113.039 301.87,117.158 303.535,118.169 C305.2,119.181 314.407,120.019 314.476,119.817" id="Fill-73" fill="#F2B58A"></path>
            <path d="M508.155,163.393 C503.761,153.33 493.404,146.721 486.319,151.835 C479.457,156.787 469.406,167.862 465.223,171.768 C468.213,178.609 474.494,193.414 478.448,191.929 C481.165,190.909 484.289,186.211 492.69,182.424 C506.867,176.035 510.26,168.854 508.155,163.393" id="Fill-74" fill="#1D1D1B"></path>
            <path d="M465.223,171.769 C468.051,170.598 466.955,166.898 471.066,168.542 C475.178,170.187 480.522,180.191 480.933,185.399 C481.899,197.632 465.112,186.104 465.112,181.181 C465.112,175.925 465.223,171.769 465.223,171.769" id="Fill-75" fill="#FFFFFE"></path>
            <path d="M465.223,171.769 L465.319,172 C466.569,171.483 467.107,170.495 467.572,169.715 C467.805,169.322 468.025,168.98 468.288,168.749 C468.553,168.518 468.85,168.381 469.323,168.378 C469.729,168.377 470.265,168.491 470.973,168.775 C472.915,169.538 475.289,172.422 477.17,175.757 C479.059,179.089 480.487,182.881 480.684,185.418 C480.711,185.754 480.723,186.071 480.723,186.369 C480.723,187.956 480.361,189.008 479.789,189.656 C479.217,190.303 478.419,190.587 477.438,190.589 C475.209,190.596 472.144,189.041 469.678,187.061 C468.443,186.073 467.354,184.982 466.581,183.943 C465.805,182.906 465.357,181.916 465.362,181.181 C465.362,178.555 465.39,176.203 465.417,174.508 C465.445,172.813 465.473,171.778 465.473,171.775 L465.223,171.769 L465.319,172 L465.223,171.769 L464.973,171.762 C464.973,171.763 464.862,175.922 464.862,181.181 C464.866,182.108 465.375,183.156 466.18,184.242 C467.391,185.866 469.296,187.566 471.35,188.87 C473.405,190.173 475.602,191.085 477.438,191.089 C478.512,191.091 479.482,190.763 480.164,189.986 C480.846,189.21 481.223,188.027 481.223,186.369 C481.223,186.057 481.21,185.727 481.182,185.379 C480.969,182.708 479.519,178.895 477.605,175.511 C475.682,172.131 473.329,169.191 471.159,168.31 C470.413,168.012 469.821,167.878 469.323,167.878 C468.744,167.875 468.294,168.072 467.957,168.374 C467.451,168.827 467.163,169.466 466.779,170.058 C466.394,170.653 465.938,171.201 465.128,171.538 L464.978,171.6 L464.973,171.762 L465.223,171.769" id="Fill-76" fill="#1B1A19"></path>
            <path d="M462.998,89.259 C465.279,88.164 468.355,81.131 470.744,82.71 C474.593,85.255 480.508,94.019 485.242,102.932 C490.366,115.43 502.646,148.27 507.3,161.456 C509.302,167.133 504.202,166.784 499.037,169.234 C494.715,171.284 491.146,171.505 485.08,163.093 C485.08,163.093 475.981,140.714 467.258,122.412 C460.229,107.666 456.773,93.31 462.998,89.259" id="Fill-77" fill="#1D1D1B"></path>
            <path d="M439.259,76.883 C440.223,77.594 456.854,94.467 456.854,94.467 L446.325,99.285 C446.325,99.285 456.587,112.134 455.516,112.848 C454.446,113.562 431.836,155.276 431.836,155.276 C431.836,155.276 438.898,76.684 439.259,76.883" id="Fill-78" fill="#222321"></path>
            <polyline id="Fill-79" fill="#E2F3F8" points="443.271 75.64 426.422 90.063 420.606 79.297 436.425 67.702 443.271 75.64"></polyline>
            <path d="M440.018,170.323 L449.368,162.879 C451.179,161.438 452.998,160.94 454.439,162.75 L475.785,189.1 C477.226,190.91 476.184,192.846 474.373,194.288 L465.023,201.731 C463.212,203.173 461.292,203.596 459.85,201.785 L438.504,175.436 C437.063,173.625 438.207,171.764 440.018,170.323" id="Fill-80" fill="#3A3A39"></path>
            <polyline id="Fill-81" fill="#676866" points="440.27 174.425 453.31 164.044 453.392 164.054 473.92 189.839 473.911 189.922 460.871 200.303 460.788 200.294 440.261 174.508 440.27 174.425"></polyline>
            <path d="M442.57,170.487 L447.402,166.641 C447.533,166.537 447.725,166.559 447.829,166.69 C447.934,166.821 447.912,167.013 447.781,167.117 L442.95,170.963 C442.819,171.068 442.626,171.046 442.522,170.915 C442.418,170.784 442.439,170.592 442.57,170.487" id="Fill-82" fill="#515251"></path>
            <path d="M467.868,195.711 C468.313,195.358 468.96,195.431 469.314,195.876 C469.668,196.32 469.594,196.968 469.15,197.321 C468.705,197.675 468.058,197.602 467.704,197.157 C467.35,196.713 467.423,196.066 467.868,195.711" id="Fill-83" fill="#515251"></path>
            <path d="M448.674,165.231 C448.953,165.009 449.358,165.055 449.58,165.333 C449.802,165.612 449.756,166.017 449.477,166.239 C449.199,166.461 448.793,166.415 448.572,166.136 C448.35,165.858 448.396,165.453 448.674,165.231" id="Fill-84" fill="#515251"></path>
            <path d="M478.438,184.433 C478.692,178.7 471.744,169.97 467.707,168.88 C463.669,167.79 456.07,171.54 455.049,172.89 C454.028,174.241 447.908,178.992 450.825,179.568 C451.902,179.781 455.572,178.616 456.059,178.761 C457.174,179.092 456.788,180.815 453.496,182.351 C448.275,184.788 452.267,183.629 453.361,185.129 C454.456,186.629 459.724,182.501 460.616,183.259 C461.508,184.017 454.927,188.578 456.473,190.136 C458.018,191.695 465.327,186.471 465.684,186.962 C466.041,187.453 458.913,193.504 461.591,194.221 C464.268,194.937 470.086,193.889 473.48,191.928 C476.874,189.968 478.438,184.433 478.438,184.433" id="Fill-85" fill="#F2B58A"></path>
            <path d="M462.345,181.5 C460.328,180.435 460.475,176.345 458.059,177.924 C455.643,179.504 446.505,185.673 444.271,188.765 C442.037,191.856 443.155,193.39 445.428,193.195 C447.701,192.999 454.436,186.985 454.703,186.717 C454.971,186.449 462.345,181.5 462.345,181.5" id="Fill-86" fill="#F2B58A"></path>
            <path d="M461.012,174.76 C459.583,174.005 463.523,170.303 462.585,169.605 C462.2,169.318 457.43,170.724 456.726,171.184 C454.31,172.763 445.172,178.933 442.938,182.025 C440.704,185.116 441.822,186.65 444.095,186.455 C446.368,186.259 453.898,180.212 454.166,179.944 C454.434,179.676 461.012,174.76 461.012,174.76" id="Fill-87" fill="#F2B58A"></path>
            <path d="M467.793,184.887 C465.777,183.823 465.924,179.732 463.507,181.311 C461.091,182.891 451.953,189.06 449.719,192.152 C447.485,195.244 448.603,196.778 450.876,196.582 C453.149,196.386 459.583,190.859 459.85,190.592 C460.118,190.324 467.793,184.887 467.793,184.887" id="Fill-88" fill="#F2B58A"></path>
            <path d="M473.01,188.967 C471.079,187.755 470.684,182.482 468.558,184.768 C466.432,187.054 457.934,193.435 454.761,195.503 C451.588,197.571 452.982,199.385 455.263,199.36 C460.78,199.3 468.919,192.207 473.01,188.967" id="Fill-89" fill="#F2B58A"></path>
            <path d="M452.782,216.13 C436.33,212.951 428.872,230.894 428.872,230.894 L406.04,358.086 L439.448,362.804 L468.816,238.613 C468.816,238.613 468.647,225.86 463.883,220.023 C461.569,217.188 457.396,217.021 452.782,216.13" id="Fill-90" fill="#252522"></path>
            <path d="M376.247,211.573 C374.998,214.607 375.046,226.133 375.046,226.133 C375.046,226.133 379.816,236.368 384.813,237.627 C389.809,238.886 406.103,240.292 406.762,237.806 C407.422,235.32 376.247,211.573 376.247,211.573" id="Fill-91" fill="#252522"></path>
            <path d="M373.127,129.675 C375.459,124.928 377.253,121.417 377.253,121.417 C377.253,121.417 382.962,141.439 382.366,154.604 C381.77,167.77 381.302,191.079 379.931,197.931 C379.11,202.036 378.141,212.433 375.258,220.112 C373.34,219.728 371.281,219.26 369.051,218.709 C369.051,218.709 383.368,166.86 377.374,147.666 C376.26,144.099 374.702,137.426 373.127,129.675 Z M304.95,135.205 C304.95,135.205 323.121,153.039 334.159,163.991 C343.46,173.221 350.547,175.099 355.148,173.116 C358.03,172.92 360.779,170.846 364.159,164.516 C365.686,160.923 370.282,148.468 374.11,134.382 C373.786,132.873 373.457,131.298 373.127,129.676 C370.447,135.133 367.055,142.224 364.856,147.5 C363.19,151.499 361.839,155.936 360.119,159.723 C357.595,165.28 354.276,169.434 348,168.741 C346.916,168.622 345.623,168.142 344.177,167.378 C334.255,162.135 317.089,143.496 310.187,135.747 C308.304,133.633 307.185,132.329 307.185,132.329 L306.364,133.386 L304.95,135.205 Z" id="Fill-92" fill="#1B1C1A"></path>
            <path d="M370.559,201.429 C363.339,213.853 375.046,226.133 375.046,226.133 C408.597,242.434 431.918,248.91 484.979,285.46 L504.198,257.658 L395.472,190.98 C395.472,190.98 378.971,186.951 370.559,201.429" id="Fill-93" fill="#2A2B28"></path>
            <path d="M370.559,201.429 C363.339,213.852 375.046,226.133 375.046,226.133 C408.597,242.434 431.918,248.91 484.979,285.46 L489.991,278.21 C478.455,272.647 378.6,222.887 374.997,212.52 C371.176,201.524 375.756,195.293 376.441,194.738 C374.285,196.337 372.257,198.505 370.559,201.429" id="Fill-94" fill="#272826"></path>
            <path d="M30.292,179.585 L18.452,179.585 C8.429,179.585 0.305,185.792 0.305,193.454 L0.305,358.461 L48.439,358.461 L48.439,193.454 C48.439,185.792 40.315,179.585 30.292,179.585" id="Fill-95" fill="#1B1A19"></path>
            <polygon id="Fill-96" fill="#212321" points="197.693 386.429 212.779 386.429 212.779 282.752 197.693 282.752"></polygon>
            <polygon id="Fill-97" fill="#2F312F" points="171.282 399.635 186.368 399.635 186.368 295.958 171.282 295.958"></polygon>
            <polygon id="Fill-98" fill="#212321" points="361.868 386.429 376.954 386.429 376.954 282.752 361.868 282.752"></polygon>
            <polygon id="Fill-99" fill="#2F312F" points="388.279 399.635 403.365 399.635 403.365 295.958 388.279 295.958"></polygon>
            <polygon id="Fill-100" fill="#B5B7B4" points="161.253 304.699 413.468 304.699 413.468 275.659 161.253 275.659"></polygon>
            <polygon id="Fill-101" fill="#CCCDC9" points="153.351 280.212 421.37 280.212 421.37 267.872 153.351 267.872"></polygon>
            <polygon id="Fill-102" fill="#E5E6E3" points="343.016 267.872 364.947 267.872 364.947 266.249 343.016 266.249"></polygon>
            <path d="M365.586,250.249 L365.586,258.793 C365.586,259.024 365.574,259.251 365.552,259.475 L368.481,259.475 C369.394,259.475 370.141,258.727 370.141,257.814 L370.141,251.91 C370.141,250.996 369.394,250.249 368.481,250.249 L365.586,250.249 Z M365.586,248.435 L365.586,248.81 L368.481,248.81 C370.186,248.81 371.581,250.205 371.581,251.91 L371.581,257.814 C371.581,259.519 370.186,260.914 368.481,260.914 L365.243,260.914 C364.491,263.152 362.588,264.752 360.373,264.752 L347.589,264.752 C344.722,264.752 342.376,262.071 342.376,258.793 L342.376,248.435 L365.586,248.435 Z" id="Fill-103" fill="#935140"></path>
            <polygon id="Fill-104" fill="#CCCDC9" points="342.376 248.435 365.586 248.435 365.586 247.563 342.376 247.563"></polygon>
            <polyline id="Fill-105" fill="#CCCDC9" points="366.008 266.936 377.648 263.192 330.314 263.192 341.954 266.936 366.008 266.936"></polyline>
            <polygon id="Fill-106" fill="#E5E6E3" points="215.704 267.872 237.635 267.872 237.635 266.249 215.704 266.249"></polygon>
            <path d="M215.064,250.249 L215.064,258.793 C215.064,259.024 215.076,259.251 215.099,259.475 L212.169,259.475 C211.256,259.475 210.509,258.727 210.509,257.814 L210.509,251.91 C210.509,250.996 211.256,250.249 212.169,250.249 L215.064,250.249 Z M215.064,248.435 L215.064,248.81 L212.169,248.81 C210.465,248.81 209.07,250.205 209.07,251.91 L209.07,257.814 C209.07,259.519 210.465,260.914 212.169,260.914 L215.408,260.914 C216.16,263.152 218.063,264.752 220.277,264.752 L233.062,264.752 C235.929,264.752 238.274,262.071 238.274,258.793 L238.274,248.435 L215.064,248.435 Z" id="Fill-107" fill="#935140"></path>
            <polygon id="Fill-108" fill="#CCCDC9" points="215.064 248.435 238.274 248.435 238.274 247.563 215.064 247.563"></polygon>
            <polyline id="Fill-109" fill="#CCCDC9" points="214.642 266.936 203.003 263.192 250.336 263.192 238.697 266.936 214.642 266.936"></polyline>
            <polygon id="Fill-110" fill="#76634B" points="252.673 267.872 318.413 267.872 318.413 253.929 252.673 253.929"></polygon>
            <polygon id="Fill-111" fill="#F8CC98" points="250.221 253.929 315.961 253.929 315.961 246.957 250.221 246.957"></polygon>
            <polygon id="Fill-112" fill="#935140" points="260.129 246.957 325.87 246.957 325.87 237.661 260.129 237.661"></polygon>
            <polygon id="Fill-113" fill="#CAE3CA" points="257.676 237.661 323.417 237.661 323.417 233.014 257.676 233.014"></polygon>
            <path d="M511.419,299.661 L610.636,299.485 C612.095,299.483 613.219,300.681 613.287,302.137 L616.71,375.115 C616.779,376.571 615.517,377.766 614.059,377.766 L507.733,377.766 C506.275,377.766 505.008,376.571 505.082,375.115 L508.767,302.313 C508.841,300.856 509.96,299.664 511.419,299.661" id="Fill-114" fill="#3A3A39"></path>
            <polyline id="Fill-115" fill="#292B28" points="511.589 302.487 507.92 374.94 613.872 374.94 610.461 302.312 511.589 302.487"></polyline>
            <path d="M547.287,293.469 C547.146,293.469 547.03,293.585 547.03,293.726 L547.03,300.143 C547.03,300.285 547.146,300.401 547.287,300.401 L574.504,300.401 C574.646,300.401 574.762,300.285 574.762,300.143 L574.762,293.726 C574.762,293.585 574.646,293.469 574.504,293.469 L547.287,293.469 Z M547.287,288.642 L574.504,288.642 C576.239,288.642 577.658,290.061 577.658,291.795 L577.658,300.144 C577.658,301.878 576.239,303.297 574.504,303.297 L547.287,303.297 C545.553,303.297 544.134,301.878 544.134,300.144 L544.134,291.795 C544.134,290.061 545.553,288.642 547.287,288.642 Z" id="Fill-116" fill="#191316"></path>
            <path d="M506.562,298.77 L615.229,298.77 C616.72,298.77 617.939,299.988 617.939,301.479 L617.939,334.769 C604.798,343.418 584.137,348.994 560.896,348.994 C537.654,348.994 516.993,343.418 503.853,334.769 L503.853,301.479 C503.853,299.988 505.072,298.77 506.562,298.77" id="Fill-117" fill="#333431"></path>
            <path d="M560.895,347.599 C539.164,347.599 518.956,342.316 505.451,333.103 L505.248,332.965 L505.248,299.112 C505.531,298.954 505.845,298.845 506.179,298.797 L506.179,332.472 C519.531,341.497 539.455,346.669 560.895,346.669 C582.336,346.669 602.261,341.497 615.613,332.472 L615.613,298.797 C615.946,298.845 616.26,298.954 616.543,299.112 L616.543,332.964 L616.341,333.103 C602.837,342.316 582.628,347.599 560.895,347.599" id="Fill-118" fill="#515251"></path>
            <path d="M554.572,342.936 L564.408,342.936 C565.032,342.936 565.542,343.447 565.542,344.07 L565.542,354.591 C565.542,355.215 565.032,355.725 564.408,355.725 L554.572,355.725 C553.948,355.725 553.438,355.215 553.438,354.591 L553.438,344.07 C553.438,343.447 553.948,342.936 554.572,342.936" id="Fill-119" fill="#E3E3DE"></path>
            <path d="M555.757,345.134 L563.223,345.134 C563.589,345.134 563.886,345.432 563.886,345.797 L563.886,352.864 C563.886,353.229 563.589,353.527 563.223,353.527 L555.757,353.527 C555.392,353.527 555.094,353.229 555.094,352.864 L555.094,345.797 C555.094,345.432 555.392,345.134 555.757,345.134" id="Fill-120" fill="#7B7A7A"></path>
            <path d="M430.507,31.486 C431.69,31.129 433.856,31.367 433.929,33.687 C434.001,36.006 433.535,39.525 431.963,40.918 C430.391,42.312 429.034,40.23 429.644,38.921 C430.254,37.613 431.408,36.244 430.547,35.233 C429.685,34.222 429.555,34.698 429.732,33.508 C429.908,32.318 430.507,31.486 430.507,31.486" id="Fill-121" fill="#E3A276"></path>
        </g>
    </g>
</svg>