<?xml version="1.0" encoding="UTF-8"?>
<svg width="20px" height="20px" viewBox="0 0 20 20" version="1.1" xmlns="http://www.w3.org/2000/svg" xmlns:xlink="http://www.w3.org/1999/xlink">
    <!-- Generator: Sketch 48.2 (47327) - http://www.bohemiancoding.com/sketch -->
    <title>settings</title>
    <desc>Created with Sketch.</desc>
    <defs></defs>
    <g id="Page-1" stroke="none" stroke-width="1" fill="none" fill-rule="evenodd">
        <g id="settings" fill-rule="nonzero">
            <path d="M4.82299376,8.41482402 C5.38016632,8.34028986 5.93733888,8.53076605 6.33234927,8.92414079 L7.33027027,9.91792961 L8.27413721,8.9821118 L6.91031185,7.62807453 C6.69825364,7.41689441 6.69825364,7.07320911 6.91031185,6.86202899 C7.12237006,6.65084886 7.46748441,6.65084886 7.67954262,6.86202899 L9.04336798,8.22020704 L9.98723493,7.28438923 L8.98515593,6.28645963 C8.59014553,5.89308489 8.39887734,5.33407867 8.47372141,4.78335404 C8.64004158,3.52455487 8.23671518,2.20778468 7.26790021,1.23884058 C6.27829522,0.253333333 4.92278586,-0.144182195 3.63796258,0.0462939959 C3.43422037,0.0752795031 3.35106029,0.327867495 3.49659044,0.472795031 L4.78141372,1.75229814 C5.39264033,2.36099379 5.39264033,3.34650104 4.78141372,3.9510559 L3.99139293,4.73780538 C3.38016632,5.34650104 2.39056133,5.34650104 1.78349272,4.73780538 L0.494511435,3.45830228 C0.348981289,3.31337474 0.0995010395,3.39619048 0.0662370062,3.59908903 C-0.125031185,4.87859213 0.274137214,6.22848861 1.2637422,7.21399586 C2.23671518,8.17879917 3.5589605,8.58045549 4.82299376,8.41482402 Z" id="Shape" fill="#4FC0E0"></path>
            <path d="M12.8146778,10.1001242 L11.8708108,11.035942 L17.4758004,16.6177226 C17.6878586,16.8289027 17.6878586,17.172588 17.4758004,17.3837681 C17.2637422,17.5949482 16.9186279,17.5949482 16.7065696,17.3837681 L11.10158,11.8019876 L10.1577131,12.7378054 L15.9331809,18.4893582 C16.6649896,19.2181366 17.8500208,19.2139959 18.5818295,18.4852174 C19.3136383,17.7564389 19.3136383,16.5763147 18.5859875,15.8475362 L12.8146778,10.1001242 Z" id="Shape" fill="#4FC0E0"></path>
            <path d="M14.9809979,6.37341615 L17.4716424,6.37341615 L19.9622869,1.41689441 L18.7190437,0.178799172 L13.7377547,2.65498965 L13.7377547,5.13532091 L6.96852391,11.8558178 L5.75022869,10.6467081 L0.843783784,15.5328364 C-0.179085239,16.55147 -0.179085239,18.1995031 0.843783784,19.2181366 C1.86665281,20.2367702 3.52153846,20.2367702 4.54440748,19.2181366 L9.45085239,14.3320083 L8.20760915,13.093913 L14.9809979,6.37341615 Z" id="Shape" fill="#66E5C8"></path>
        </g>
    </g>
</svg>