<?xml version="1.0" encoding="UTF-8"?>
<svg width="20px" height="20px" viewBox="0 0 20 20" version="1.1" xmlns="http://www.w3.org/2000/svg" xmlns:xlink="http://www.w3.org/1999/xlink">
    <!-- Generator: Sketch 48.2 (47327) - http://www.bohemiancoding.com/sketch -->
    <title>teacher</title>
    <desc>Created with Sketch.</desc>
    <defs></defs>
    <g id="Page-1" stroke="none" stroke-width="1" fill="none" fill-rule="evenodd">
        <g id="teacher" fill="#4259E9" fill-rule="nonzero">
            <path d="M19.3357143,0.191211499 L8.71738776,0.191211499 C8.36412245,0.191211499 8.07840816,0.479589322 8.07840816,0.83449692 L8.07840816,5.37182752 L8.54040816,4.82833676 C8.75979592,4.5699384 9.04902041,4.41059548 9.35640816,4.34402464 L9.35640816,1.47753593 L18.6966531,1.47753593 L18.6966531,9.87716632 L9.35644898,9.87716632 L9.35644898,8.4710883 L9.06869388,8.80965092 C8.81722449,9.10488706 8.4622449,9.28809035 8.07840816,9.32418891 L8.07840816,10.5202464 C8.07840816,10.875154 8.36412245,11.1631622 8.71738776,11.1631622 L12.1659184,11.1631622 L10.4139184,19.1663244 C10.3354286,19.5252156 10.5608571,19.8801643 10.9178367,19.9593429 C11.2715918,20.0375359 11.6273061,19.8114579 11.7050612,19.4529363 L13.5196327,11.1632033 L14.5744898,11.1632033 L16.3890612,19.4529363 C16.4570612,19.7632854 16.7306531,19.9750719 17.0340816,19.9747023 C17.0811837,19.9747023 17.1293469,19.9698973 17.1770204,19.9593429 C17.534,19.8801643 17.7593878,19.5252567 17.6802041,19.1663244 L15.9283673,11.1631622 L19.3357551,11.1631622 C19.6886939,11.1631622 19.9747347,10.875154 19.9747347,10.5202464 L19.9747347,0.83449692 C19.9746939,0.479589322 19.6886531,0.191211499 19.3357143,0.191211499 Z" id="XMLID_134_"></path>
            <path d="M14.2599184,3.94726899 C14.209551,3.81954825 14.0667755,3.75683778 13.9399184,3.8073922 L10.1752653,5.14435318 C9.8297551,4.87519507 9.33126531,4.92328542 9.04314286,5.26045175 L7.84857143,6.66406571 L6.78934694,5.75051335 C6.79632653,5.82595483 6.81220408,5.89926078 6.81220408,5.97667351 L6.81220408,7.9598768 L7.4015102,8.46792608 C7.75122449,8.76928131 8.27436735,8.72271047 8.56677551,8.37765914 L9.98889796,6.70443532 L11.1358367,6.02932238 L14.1542449,4.25244353 C14.2586122,4.19190965 14.3048571,4.0625462 14.2599184,3.94726899 Z" id="XMLID_132_"></path>
            <path d="M4.48685714,4.30291581 L3.77742857,4.30291581 C3.2342449,4.30291581 2.75661224,4.56854209 2.45302041,4.97342916 L0.275387755,6.99067762 C-0.0639183673,7.29478439 -0.0946938776,7.82156057 0.210857143,8.16501027 L1.9875102,10.1602875 C2.29040816,10.5015195 2.81473469,10.5317043 3.154,10.2250103 C3.49416327,9.91827515 3.52289796,9.39289528 3.21808163,9.05104723 L1.99346939,7.67511294 L3.73289796,6.10903491 L2.71983673,7.4938809 L3.71081633,8.60710472 C4.25840816,9.22279261 4.20677551,10.1687885 3.59514286,10.7201643 C3.17755102,11.0968378 2.60767347,11.1852156 2.11363265,11.011499 C2.11363265,11.011499 2.12130612,14.8578645 2.12130612,18.9770842 C2.12130612,19.5280493 2.56514286,19.9746612 3.11277551,19.9746612 C3.65983673,19.9746612 4.1042449,19.5280493 4.1042449,18.9770842 C4.1042449,14.8591376 4.1042449,17.209076 4.1042449,13.0316632 L4.76559184,13.0316632 C4.76559184,17.206037 4.76559184,14.8578645 4.76559184,18.9770842 C4.76559184,19.2647228 4.68587755,19.5310883 4.55877551,19.7668583 C4.72514286,19.8956057 4.93216327,19.9746612 5.15779592,19.9746612 C5.70571429,19.9746612 6.14955102,19.5280493 6.14955102,18.9770842 C6.14955102,14.8591376 6.15081633,16.5854209 6.15081633,5.97663244 C6.15089796,5.05223819 5.40612245,4.30291581 4.48685714,4.30291581 Z" id="XMLID_131_"></path>
            <path d="M3.24865306,3.70422998 C3.5137551,3.84287474 3.81138776,3.9289117 4.13110204,3.9289117 C4.45163265,3.9289117 4.74926531,3.84287474 5.01514286,3.70398357 C5.63571429,3.38049281 6.06346939,2.73646817 6.06346939,1.98480493 C6.06346939,0.911047228 5.19832653,0.040862423 4.13106122,0.040862423 C3.06395918,0.040862423 2.19902041,0.911047228 2.19902041,1.98480493 C2.19906122,2.73687885 2.62726531,3.3811499 3.24865306,3.70422998 Z" id="XMLID_130_"></path>
        </g>
    </g>
</svg>