<?xml version="1.0" encoding="UTF-8"?>
<svg width="705px" height="609px" viewBox="0 0 705 609" version="1.1" xmlns="http://www.w3.org/2000/svg" xmlns:xlink="http://www.w3.org/1999/xlink">
    <!-- Generator: Sketch 48.2 (47327) - http://www.bohemiancoding.com/sketch -->
    <title>697</title>
    <desc>Created with Sketch.</desc>
    <defs>
        <polygon id="path-1" points="127.516 145.384 4.337 145.384 0.337 0.018 123.516 0.018"></polygon>
    </defs>
    <g id="Page-1" stroke="none" stroke-width="1" fill="none" fill-rule="evenodd">
        <g id="697">
            <polyline id="Fill-1" fill="#CCCED1" points="139.443 185.307 0.566 185.307 0.566 176.923 138.905 176.923 138.905 13.466 139.443 13.466 139.443 185.307"></polyline>
            <polyline id="Fill-2" fill="#CCCED1" points="324 185.307 185.123 185.307 185.123 176.923 323.462 176.923 323.462 13.466 324 13.466 324 185.307"></polyline>
            <polyline id="Fill-3" fill="#CCCED1" points="508.557 185.307 369.68 185.307 369.68 176.923 508.018 176.923 508.018 13.466 508.557 13.466 508.557 185.307"></polyline>
            <polyline id="Fill-4" fill="#CCCED1" points="693.113 185.307 554.236 185.307 554.236 176.923 692.575 176.923 692.575 13.466 693.113 13.466 693.113 185.307"></polyline>
            <path d="M139.443,388.16 L128.766,388.16 L128.605,379.776 L138.905,379.776 L138.905,216.319 L139.443,216.319 L139.443,388.16 M44.779,388.16 L0.566,388.16 L0.566,379.776 L44.127,379.776 L44.779,388.16 M80.783,381.618 L80.561,379.776 L98.613,379.776 L80.783,381.618" id="Fill-5" fill="#CCCED1"></path>
            <polyline id="Fill-6" fill="#CCCED1" points="323.518 388.158 184.638 388.158 184.638 379.774 322.98 379.774 322.98 216.317 323.518 216.317 323.518 388.158"></polyline>
            <polyline id="Fill-7" fill="#CCCED1" points="691.667 388.16 552.79 388.16 552.79 379.776 620.651 379.776 620.572 380.721 620.092 380.721 620.092 387.555 685.55 387.555 685.55 380.721 685.389 380.721 685.446 379.776 691.129 379.776 691.129 216.319 691.667 216.319 691.667 388.16"></polyline>
            <polyline id="Fill-8" fill="#CCCED1" points="507.593 388.16 368.715 388.16 368.715 379.776 507.055 379.776 507.055 216.319 507.593 216.319 507.593 388.16"></polyline>
            <polygon id="Fill-9" fill="#7987AB" points="0.028 176.923 138.905 176.923 138.905 5.083 0.028 5.083"></polygon>
            <polygon id="Fill-10" fill="#7987AB" points="184.585 176.923 323.462 176.923 323.462 5.083 184.585 5.083"></polygon>
            <polygon id="Fill-11" fill="#7987AB" points="369.142 176.923 508.018 176.923 508.018 5.083 369.142 5.083"></polygon>
            <polygon id="Fill-12" fill="#7987AB" points="553.698 176.923 692.575 176.923 692.575 5.083 553.698 5.083"></polygon>
            <polygon id="Fill-13" fill="#7987AB" points="0.028 379.776 138.905 379.776 138.905 207.935 0.028 207.935"></polygon>
            <polygon id="Fill-14" fill="#7987AB" points="184.1 379.774 322.98 379.774 322.98 207.934 184.1 207.934"></polygon>
            <polygon id="Fill-15" fill="#7987AB" points="552.252 379.776 691.129 379.776 691.129 207.935 552.252 207.935"></polygon>
            <polygon id="Fill-16" fill="#7987AB" points="368.177 379.776 507.055 379.776 507.055 207.935 368.177 207.935"></polygon>
            <path d="M565.999,604.643 L700.599,604.643 M34.678,604.643 L177.999,604.643" id="Stroke-17" stroke="#6C6976" stroke-width="7" stroke-linecap="round"></path>
            <polygon id="Fill-18" fill="#9EA6C3" points="0.028 171.923 138.905 171.923 138.905 0.082 0.028 0.082"></polygon>
            <polyline id="Fill-19" fill="#424968" points="134.683 157.384 11.504 157.384 7.504 12.018 130.683 12.018 134.683 157.384"></polyline>
            <polygon id="Fill-20" fill="#FFFFFE" points="7.78 151.884 130.959 151.884 130.959 11.518 7.78 11.518"></polygon>
            <path d="M127.617,16.77 C127.617,18.088 126.549,19.157 125.23,19.157 C123.912,19.157 122.843,18.088 122.843,16.77 C122.843,15.451 123.912,14.382 125.23,14.382 C126.549,14.382 127.617,15.451 127.617,16.77" id="Fill-21" fill="#12182F"></path>
            <polygon id="Fill-22" fill="#9EA6C3" points="21.865 43.054 114.727 43.054 114.727 29.686 21.865 29.686"></polygon>
            <polygon id="Fill-23" fill="#5568A2" points="21.626 74.062 53.614 74.062 53.614 55.919 21.626 55.919"></polygon>
            <polygon id="Fill-24" fill="#9EA6C3" points="58.866 96.979 90.854 96.979 90.854 78.836 58.866 78.836"></polygon>
            <polygon id="Fill-25" fill="#908D9A" points="95.391 74.062 115.389 74.062 115.389 55.919 95.391 55.919"></polygon>
            <polygon id="Fill-26" fill="#C83739" points="95.391 97.337 115.389 97.337 115.389 79.194 95.391 79.194"></polygon>
            <polygon id="Fill-27" fill="#12182F" points="59.105 71.748 91.094 71.748 91.094 70.446 59.105 70.446"></polygon>
            <polygon id="Fill-28" fill="#12182F" points="59.105 67.118 91.094 67.118 91.094 65.817 59.105 65.817"></polygon>
            <polygon id="Fill-29" fill="#12182F" points="59.105 62.488 91.094 62.488 91.094 61.188 59.105 61.188"></polygon>
            <polygon id="Fill-30" fill="#12182F" points="59.105 57.859 91.094 57.859 91.094 56.558 59.105 56.558"></polygon>
            <polygon id="Fill-31" fill="#F2C54C" points="21.626 119.538 53.614 119.538 53.614 101.396 21.626 101.396"></polygon>
            <polygon id="Fill-32" fill="#908D9A" points="95.391 119.538 115.389 119.538 115.389 101.396 95.391 101.396"></polygon>
            <polygon id="Fill-33" fill="#12182F" points="59.105 117.223 91.094 117.223 91.094 115.922 59.105 115.922"></polygon>
            <polygon id="Fill-34" fill="#12182F" points="59.105 112.594 91.094 112.594 91.094 111.293 59.105 111.293"></polygon>
            <polygon id="Fill-35" fill="#12182F" points="59.105 107.964 91.094 107.964 91.094 106.663 59.105 106.663"></polygon>
            <polygon id="Fill-36" fill="#12182F" points="59.105 103.335 91.094 103.335 91.094 102.034 59.105 102.034"></polygon>
            <polygon id="Fill-37" fill="#12182F" points="21.507 93.948 53.495 93.948 53.495 92.647 21.507 92.647"></polygon>
            <polygon id="Fill-38" fill="#12182F" points="21.507 89.319 53.495 89.319 53.495 88.018 21.507 88.018"></polygon>
            <polygon id="Fill-39" fill="#12182F" points="21.507 84.689 53.495 84.689 53.495 83.388 21.507 83.388"></polygon>
            <polygon id="Fill-40" fill="#12182F" points="21.507 80.06 53.495 80.06 53.495 78.759 21.507 78.759"></polygon>
            <path d="M14.942,16.77 C14.942,18.088 13.873,19.157 12.555,19.157 C11.236,19.157 10.168,18.088 10.168,16.77 C10.168,15.451 11.236,14.382 12.555,14.382 C13.873,14.382 14.942,15.451 14.942,16.77" id="Fill-41" fill="#12182F"></path>
            <polygon id="Fill-42" fill="#9EA6C3" points="184.585 171.923 323.462 171.923 323.462 0.082 184.585 0.082"></polygon>
            <polyline id="Fill-43" fill="#424968" points="319.016 157.384 195.837 157.384 191.837 12.018 315.016 12.018 319.016 157.384"></polyline>
            <polygon id="Fill-44" fill="#FFFFFE" points="192.337 151.884 315.516 151.884 315.516 11.518 192.337 11.518"></polygon>
            <path d="M312.174,16.77 C312.174,18.088 311.105,19.157 309.787,19.157 C308.469,19.157 307.399,18.088 307.399,16.77 C307.399,15.451 308.469,14.382 309.787,14.382 C311.105,14.382 312.174,15.451 312.174,16.77" id="Fill-45" fill="#12182F"></path>
            <path d="M199.499,16.77 C199.499,18.088 198.43,19.157 197.111,19.157 C195.793,19.157 194.725,18.088 194.725,16.77 C194.725,15.451 195.793,14.382 197.111,14.382 C198.43,14.382 199.499,15.451 199.499,16.77" id="Fill-46" fill="#12182F"></path>
            <polygon id="Fill-47" fill="#B6D044" points="229.655 48.553 267.988 48.553 267.988 39.116 229.655 39.116"></polygon>
            <polygon id="Fill-48" fill="#B6D044" points="229.655 65.119 284.556 65.119 284.556 55.681 229.655 55.681"></polygon>
            <polygon id="Fill-49" fill="#B6D044" points="229.655 81.684 260.191 81.684 260.191 72.247 229.655 72.247"></polygon>
            <polygon id="Fill-50" fill="#C83739" points="260.191 81.684 264.404 81.684 264.404 72.247 260.191 72.247"></polygon>
            <polygon id="Fill-51" fill="#C83739" points="267.988 48.553 277.507 48.553 277.507 39.116 267.988 39.116"></polygon>
            <polygon id="Fill-52" fill="#B6D044" points="229.655 98.25 290.728 98.25 290.728 88.812 229.655 88.812"></polygon>
            <polygon id="Fill-53" fill="#B6D044" points="229.655 114.947 267.988 114.947 267.988 105.51 229.655 105.51"></polygon>
            <polygon id="Fill-54" fill="#B6D044" points="229.655 131.513 248.821 131.513 248.821 122.075 229.655 122.075"></polygon>
            <path d="M218.285,45.602 L218.285,42.067 C218.285,40.437 219.606,39.116 221.236,39.116 L221.649,39.116 C223.279,39.116 224.601,40.437 224.601,42.067 L224.601,45.602 C224.601,47.232 223.279,48.553 221.649,48.553 L221.236,48.553 C219.606,48.553 218.285,47.232 218.285,45.602" id="Fill-55" fill="#687498"></path>
            <path d="M218.285,62.167 L218.285,58.632 C218.285,57.002 219.606,55.681 221.236,55.681 L221.649,55.681 C223.279,55.681 224.601,57.002 224.601,58.632 L224.601,62.167 C224.601,63.797 223.279,65.119 221.649,65.119 L221.236,65.119 C219.606,65.119 218.285,63.797 218.285,62.167" id="Fill-56" fill="#687498"></path>
            <path d="M218.285,78.733 L218.285,75.198 C218.285,73.568 219.606,72.247 221.236,72.247 L221.649,72.247 C223.279,72.247 224.601,73.568 224.601,75.198 L224.601,78.733 C224.601,80.363 223.279,81.684 221.649,81.684 L221.236,81.684 C219.606,81.684 218.285,80.363 218.285,78.733" id="Fill-57" fill="#687498"></path>
            <path d="M218.285,95.298 L218.285,91.763 C218.285,90.133 219.606,88.812 221.236,88.812 L221.649,88.812 C223.279,88.812 224.601,90.133 224.601,91.763 L224.601,95.298 C224.601,96.928 223.279,98.25 221.649,98.25 L221.236,98.25 C219.606,98.25 218.285,96.928 218.285,95.298" id="Fill-58" fill="#687498"></path>
            <path d="M218.285,111.996 L218.285,108.461 C218.285,106.832 219.606,105.51 221.236,105.51 L221.649,105.51 C223.279,105.51 224.601,106.832 224.601,108.461 L224.601,111.996 C224.601,113.626 223.279,114.947 221.649,114.947 L221.236,114.947 C219.606,114.947 218.285,113.626 218.285,111.996" id="Fill-59" fill="#687498"></path>
            <path d="M218.285,128.562 L218.285,125.027 C218.285,123.397 219.606,122.075 221.236,122.075 L221.649,122.075 C223.279,122.075 224.601,123.397 224.601,125.027 L224.601,128.562 C224.601,130.191 223.279,131.513 221.649,131.513 L221.236,131.513 C219.606,131.513 218.285,130.191 218.285,128.562" id="Fill-60" fill="#687498"></path>
            <polygon id="Fill-61" fill="#C83739" points="242.313 131.513 253.034 131.513 253.034 122.075 242.313 122.075"></polygon>
            <polygon id="Fill-62" fill="#9EA6C3" points="369.142 171.923 508.018 171.923 508.018 0.082 369.142 0.082"></polygon>
            <g id="Group-65" transform="translate(377.000000, 12.000000)">
                <mask id="mask-2" fill="white">
                    <use xlink:href="#path-1"></use>
                </mask>
                <g id="Clip-64"></g>
                <polygon id="Fill-63" fill="#424968" mask="url(#mask-2)" points="0.337 145.384 127.516 145.384 127.516 0.018 0.337 0.018"></polygon>
            </g>
            <polygon id="Fill-66" fill="#FFFFFE" points="376.895 151.884 500.073 151.884 500.073 11.518 376.895 11.518"></polygon>
            <path d="M496.73,16.77 C496.73,18.088 495.662,19.157 494.344,19.157 C493.025,19.157 491.956,18.088 491.956,16.77 C491.956,15.451 493.025,14.382 494.344,14.382 C495.662,14.382 496.73,15.451 496.73,16.77" id="Fill-67" fill="#12182F"></path>
            <path d="M384.056,16.77 C384.056,18.088 382.987,19.157 381.669,19.157 C380.35,19.157 379.281,18.088 379.281,16.77 C379.281,15.451 380.35,14.382 381.669,14.382 C382.987,14.382 384.056,15.451 384.056,16.77" id="Fill-68" fill="#12182F"></path>
            <polygon id="Fill-69" fill="#4A5987" points="402.609 85.416 454.477 85.416 454.477 82.239 402.609 82.239"></polygon>
            <polygon id="Fill-70" fill="#4A5987" points="402.609 92.563 483.605 92.563 483.605 89.386 402.609 89.386"></polygon>
            <polygon id="Fill-71" fill="#4A5987" points="402.609 99.709 457.173 99.709 457.173 96.533 402.609 96.533"></polygon>
            <path d="M399.301,83.827 C399.301,85.143 398.146,86.209 396.721,86.209 C395.295,86.209 394.14,85.143 394.14,83.827 C394.14,82.512 395.295,81.445 396.721,81.445 C398.146,81.445 399.301,82.512 399.301,83.827" id="Fill-72" fill="#687498"></path>
            <path d="M399.301,91.768 C399.301,93.084 398.146,94.15 396.721,94.15 C395.295,94.15 394.14,93.084 394.14,91.768 C394.14,90.453 395.295,89.386 396.721,89.386 C398.146,89.386 399.301,90.453 399.301,91.768" id="Fill-73" fill="#687498"></path>
            <path d="M399.301,98.915 C399.301,100.23 398.146,101.297 396.721,101.297 C395.295,101.297 394.14,100.23 394.14,98.915 C394.14,97.599 395.295,96.533 396.721,96.533 C398.146,96.533 399.301,97.599 399.301,98.915" id="Fill-74" fill="#687498"></path>
            <path d="M396.521,112.414 L440.047,112.414 M396.521,126.178 L463.075,126.178 M396.521,117.002 L422.974,117.002 M396.521,121.59 L464.266,121.59" id="Stroke-75" stroke="#293051" stroke-width="0.794" stroke-linecap="round"></path>
            <polygon id="Fill-76" fill="#C83739" points="394.313 43.181 480.927 43.181 480.927 36.431 394.313 36.431"></polygon>
            <polygon id="Fill-77" fill="#C83739" points="394.313 55.092 480.927 55.092 480.927 48.342 394.313 48.342"></polygon>
            <polygon id="Fill-78" fill="#C83739" points="394.313 67.003 480.927 67.003 480.927 60.254 394.313 60.254"></polygon>
            <polygon id="Fill-79" fill="#9EA6C3" points="553.698 171.923 692.575 171.923 692.575 0.082 553.698 0.082"></polygon>
            <polyline id="Fill-80" fill="#424968" points="688.516 157.384 565.337 157.384 561.337 12.018 684.516 12.018 688.516 157.384"></polyline>
            <polygon id="Fill-81" fill="#FFFFFE" points="561.451 151.884 684.63 151.884 684.63 11.518 561.451 11.518"></polygon>
            <path d="M681.288,16.77 C681.288,18.088 680.219,19.157 678.9,19.157 C677.582,19.157 676.514,18.088 676.514,16.77 C676.514,15.451 677.582,14.382 678.9,14.382 C680.219,14.382 681.288,15.451 681.288,16.77" id="Fill-82" fill="#12182F"></path>
            <path d="M568.612,16.77 C568.612,18.088 567.544,19.157 566.226,19.157 C564.907,19.157 563.838,18.088 563.838,16.77 C563.838,15.451 564.907,14.382 566.226,14.382 C567.544,14.382 568.612,15.451 568.612,16.77" id="Fill-83" fill="#12182F"></path>
            <polygon id="Fill-84" fill="#4A5987" points="609.971 39.74 662.776 39.74 662.776 35.77 609.971 35.77"></polygon>
            <polygon id="Fill-85" fill="#4A5987" points="609.971 47.284 662.776 47.284 662.776 43.313 609.971 43.313"></polygon>
            <polygon id="Fill-86" fill="#4A5987" points="609.971 55.225 662.776 55.225 662.776 51.254 609.971 51.254"></polygon>
            <polygon id="Fill-87" fill="#4A5987" points="609.971 76.665 662.776 76.665 662.776 72.694 609.971 72.694"></polygon>
            <polygon id="Fill-88" fill="#4A5987" points="609.971 84.208 662.776 84.208 662.776 80.238 609.971 80.238"></polygon>
            <polygon id="Fill-89" fill="#4A5987" points="609.971 92.149 662.776 92.149 662.776 88.179 609.971 88.179"></polygon>
            <polygon id="Fill-90" fill="#4A5987" points="610.367 109.619 663.174 109.619 663.174 105.648 610.367 105.648"></polygon>
            <polygon id="Fill-91" fill="#4A5987" points="610.367 117.163 663.174 117.163 663.174 113.192 610.367 113.192"></polygon>
            <polygon id="Fill-92" fill="#4A5987" points="610.367 125.103 663.174 125.103 663.174 121.133 610.367 121.133"></polygon>
            <path d="M593.231,55.357 L583.168,55.357 C579.88,55.357 577.215,52.691 577.215,49.404 L577.215,39.605 C577.215,36.317 579.88,33.652 583.168,33.652 L593.231,33.652 C596.519,33.652 599.185,36.317 599.185,39.605 L599.185,49.404 C599.185,52.691 596.519,55.357 593.231,55.357" id="Fill-93" fill="#908D9A"></path>
            <path d="M592.834,91.62 L582.771,91.62 C579.482,91.62 576.817,88.955 576.817,85.667 L576.817,75.868 C576.817,72.58 579.482,69.915 582.771,69.915 L592.834,69.915 C596.122,69.915 598.787,72.58 598.787,75.868 L598.787,85.667 C598.787,88.955 596.122,91.62 592.834,91.62" id="Fill-94" fill="#F4B83B"></path>
            <path d="M593.231,127.353 L583.168,127.353 C579.88,127.353 577.215,124.688 577.215,121.4 L577.215,111.602 C577.215,108.313 579.88,105.648 583.168,105.648 L593.231,105.648 C596.519,105.648 599.185,108.313 599.185,111.602 L599.185,121.4 C599.185,124.688 596.519,127.353 593.231,127.353" id="Fill-95" fill="#B6D044"></path>
            <polygon id="Fill-96" fill="#9EA6C3" points="0.028 374.776 138.905 374.776 138.905 202.935 0.028 202.935"></polygon>
            <path d="M134.683,360.051 L78.18,360.051 L62.984,234.169 C62.195,234.892 62.513,234.631 60.984,235.216 C57.702,236.452 53.816,237.933 50.118,239.781 C43.978,242.866 38.366,247.006 36.875,252.939 C36.593,254.071 36.451,255.26 36.498,256.533 C36.573,258.665 36.611,260.684 36.649,262.598 C36.849,275.46 36.363,284.086 37.871,298.595 C37.835,298.708 37.818,298.796 37.825,298.854 L42.591,360.051 L11.504,360.051 L7.504,214.684 L130.683,214.684 L134.683,360.051" id="Fill-97" fill="#424968"></path>
            <polygon id="Fill-98" fill="#FFFFFE" points="7.78 354.737 130.959 354.737 130.959 214.371 7.78 214.371"></polygon>
            <path d="M127.617,219.623 C127.617,220.941 126.549,222.01 125.23,222.01 C123.912,222.01 122.843,220.941 122.843,219.623 C122.843,218.304 123.912,217.235 125.23,217.235 C126.549,217.235 127.617,218.304 127.617,219.623" id="Fill-99" fill="#12182F"></path>
            <polygon id="Fill-100" fill="#5568A2" points="21.865 255.908 114.727 255.908 114.727 242.54 21.865 242.54"></polygon>
            <path d="M14.942,219.623 C14.942,220.941 13.873,222.01 12.555,222.01 C11.236,222.01 10.168,220.941 10.168,219.623 C10.168,218.304 11.236,217.235 12.555,217.235 C13.873,217.235 14.942,218.304 14.942,219.623" id="Fill-101" fill="#12182F"></path>
            <polygon id="Fill-102" fill="#C83739" points="21.096 275.415 64.61 275.415 64.61 259.798 21.096 259.798"></polygon>
            <polygon id="Fill-103" fill="#C83739" points="71.342 275.415 114.003 275.415 114.003 259.798 71.342 259.798"></polygon>
            <polygon id="Fill-104" fill="#908D9A" points="97.592 290.502 113.474 290.502 113.474 278.326 97.592 278.326"></polygon>
            <polygon id="Fill-105" fill="#DF9F52" points="21.096 296.881 64.61 296.881 64.61 281.265 21.096 281.265"></polygon>
            <polygon id="Fill-106" fill="#DF9F52" points="71.342 296.881 114.003 296.881 114.003 281.265 71.342 281.265"></polygon>
            <polygon id="Fill-107" fill="#908D9A" points="21.096 335.235 36.978 335.235 36.978 323.06 21.096 323.06"></polygon>
            <polygon id="Fill-108" fill="#908D9A" points="46.595 335.235 62.477 335.235 62.477 323.06 46.595 323.06"></polygon>
            <polygon id="Fill-109" fill="#908D9A" points="72.094 335.235 87.975 335.235 87.975 323.06 72.094 323.06"></polygon>
            <polygon id="Fill-110" fill="#908D9A" points="97.592 334.971 113.474 334.971 113.474 322.794 97.592 322.794"></polygon>
            <polygon id="Fill-111" fill="#9EA6C3" points="184.1 374.774 322.98 374.774 322.98 202.934 184.1 202.934"></polygon>
            <path d="M318.683,360.051 L195.504,360.051 L195.358,354.737 L315.034,354.737 L315.034,227.455 L318.683,360.051 M191.856,227.463 L191.504,214.684 L191.856,214.684 L191.856,227.463" id="Fill-112" fill="#424968"></path>
            <polygon id="Fill-113" fill="#FFFFFE" points="191.856 354.737 315.034 354.737 315.034 214.37 191.856 214.37"></polygon>
            <path d="M311.691,219.623 C311.691,220.941 310.623,222.01 309.305,222.01 C307.986,222.01 306.917,220.941 306.917,219.623 C306.917,218.304 307.986,217.235 309.305,217.235 C310.623,217.235 311.691,218.304 311.691,219.623" id="Fill-114" fill="#12182F"></path>
            <path d="M199.017,219.623 C199.017,220.941 197.948,222.01 196.63,222.01 C195.312,222.01 194.242,220.941 194.242,219.623 C194.242,218.304 195.312,217.235 196.63,217.235 C197.948,217.235 199.017,218.304 199.017,219.623" id="Fill-115" fill="#12182F"></path>
            <path d="M216.596,246.703 L228.507,246.703 C228.507,253.237 223.13,258.614 216.596,258.614 C210.062,258.614 204.685,253.237 204.685,246.703 C204.685,240.168 210.062,234.792 216.596,234.792 C220.562,234.792 224.276,236.773 226.486,240.066 L216.596,246.703" id="Fill-116" fill="#4A5987"></path>
            <path d="M216.993,282.039 L216.687,270.132 C216.789,270.13 216.892,270.128 216.994,270.128 C223.528,270.128 228.904,275.505 228.904,282.039 C228.903,288.573 223.526,293.95 216.993,293.95 C210.459,293.949 205.083,288.572 205.083,282.039 L216.993,282.039" id="Fill-117" fill="#C83739"></path>
            <path d="M216.596,317.376 L228.507,317.376 C228.507,323.91 223.13,329.287 216.596,329.287 C210.062,329.287 204.685,323.91 204.685,317.376 C204.685,310.841 210.062,305.465 216.596,305.465 C218.396,305.465 220.174,305.873 221.794,306.659 L216.596,317.376" id="Fill-118" fill="#F4B83B"></path>
            <polygon id="Fill-119" fill="#12182F" points="238.829 240.35 291.636 240.35 291.636 236.38 238.829 236.38"></polygon>
            <polygon id="Fill-120" fill="#12182F" points="238.829 247.894 291.636 247.894 291.636 243.924 238.829 243.924"></polygon>
            <polygon id="Fill-121" fill="#12182F" points="238.829 255.835 291.636 255.835 291.636 251.864 238.829 251.864"></polygon>
            <polygon id="Fill-122" fill="#12182F" points="238.829 277.275 291.636 277.275 291.636 273.305 238.829 273.305"></polygon>
            <polygon id="Fill-123" fill="#12182F" points="238.829 284.818 291.636 284.818 291.636 280.848 238.829 280.848"></polygon>
            <polygon id="Fill-124" fill="#12182F" points="238.829 292.759 291.636 292.759 291.636 288.789 238.829 288.789"></polygon>
            <polygon id="Fill-125" fill="#12182F" points="239.227 310.229 292.033 310.229 292.033 306.259 239.227 306.259"></polygon>
            <polygon id="Fill-126" fill="#12182F" points="239.227 317.773 292.033 317.773 292.033 313.802 239.227 313.802"></polygon>
            <polygon id="Fill-127" fill="#12182F" points="239.227 325.713 292.033 325.713 292.033 321.743 239.227 321.743"></polygon>
            <polygon id="Fill-128" fill="#9EA6C3" points="552.252 374.776 691.129 374.776 691.129 202.935 552.252 202.935"></polygon>
            <path d="M686.683,360.051 L686.619,360.051 L686.663,359.325 L686.683,360.051 M622.307,360.051 L563.504,360.051 L563.358,354.737 L622.754,354.737 L622.307,360.051 M683.882,258.288 C683.655,257.81 683.422,257.341 683.183,256.882 L683.183,232.858 L683.882,258.288 M560.004,232.851 L559.504,214.684 L560.004,214.684 L560.004,232.851" id="Fill-129" fill="#424968"></path>
            <polygon id="Fill-130" fill="#FFFFFE" points="560.004 354.737 683.183 354.737 683.183 214.37 560.004 214.37"></polygon>
            <path d="M679.841,219.623 C679.841,220.941 678.772,222.01 677.454,222.01 C676.136,222.01 675.066,220.941 675.066,219.623 C675.066,218.304 676.136,217.235 677.454,217.235 C678.772,217.235 679.841,218.304 679.841,219.623" id="Fill-131" fill="#12182F"></path>
            <path d="M567.166,219.623 C567.166,220.941 566.097,222.01 564.778,222.01 C563.46,222.01 562.392,220.941 562.392,219.623 C562.392,218.304 563.46,217.235 564.778,217.235 C566.097,217.235 567.166,218.304 567.166,219.623" id="Fill-132" fill="#12182F"></path>
            <polygon id="Fill-133" fill="#908D9A" points="592.774 278.667 650.333 278.667 650.333 266.68 592.774 266.68"></polygon>
            <polygon id="Fill-134" fill="#908D9A" points="592.774 295.273 650.333 295.273 650.333 283.286 592.774 283.286"></polygon>
            <polygon id="Fill-135" fill="#908D9A" points="592.774 328.485 650.333 328.485 650.333 316.499 592.774 316.499"></polygon>
            <polygon id="Fill-136" fill="#F4B83B" points="592.774 311.879 650.333 311.879 650.333 299.893 592.774 299.893"></polygon>
            <polygon id="Fill-137" fill="#4A5987" points="592.643 259.533 618.483 259.533 618.483 232.357 592.643 232.357"></polygon>
            <path d="M607.87,246.094 C609.13,245.317 609.978,243.935 609.978,242.346 C609.978,239.907 608.002,237.931 605.563,237.931 C603.124,237.931 601.148,239.907 601.148,242.346 C601.148,243.935 601.996,245.317 603.257,246.094 C601.333,246.617 599.912,248.356 599.912,250.444 L599.912,253.96 L611.214,253.96 L611.214,250.444 C611.214,248.356 609.793,246.617 607.87,246.094" id="Fill-138" fill="#FFFFFE"></path>
            <polygon id="Fill-139" fill="#9EA6C3" points="368.177 374.776 507.055 374.776 507.055 202.935 368.177 202.935"></polygon>
            <polyline id="Fill-140" fill="#424968" points="503.683 360.051 380.504 360.051 376.504 214.684 499.683 214.684 503.683 360.051"></polyline>
            <polygon id="Fill-141" fill="#FFFFFE" points="375.93 354.737 499.108 354.737 499.108 214.371 375.93 214.371"></polygon>
            <path d="M495.767,219.623 C495.767,220.941 494.697,222.01 493.379,222.01 C492.061,222.01 490.992,220.941 490.992,219.623 C490.992,218.304 492.061,217.235 493.379,217.235 C494.697,217.235 495.767,218.304 495.767,219.623" id="Fill-142" fill="#12182F"></path>
            <path d="M383.091,219.623 C383.091,220.941 382.022,222.01 380.704,222.01 C379.386,222.01 378.316,220.941 378.316,219.623 C378.316,218.304 379.386,217.235 380.704,217.235 C382.022,217.235 383.091,218.304 383.091,219.623" id="Fill-143" fill="#12182F"></path>
            <path d="M452.477,244.252 L419.437,244.252 C416.872,244.252 414.793,242.174 414.793,239.609 L414.793,234.525 C414.793,231.961 416.872,229.882 419.437,229.882 L452.477,229.882 C455.041,229.882 457.12,231.961 457.12,234.525 L457.12,239.609 C457.12,242.174 455.041,244.252 452.477,244.252" id="Fill-144" fill="#908D9A"></path>
            <polyline id="Fill-145" fill="#908D9A" points="429.163 247.82 414.793 257.226 429.163 247.82"></polyline>
            <path d="M429.163,247.82 L417.931,255.172" id="Stroke-146" stroke="#293051" stroke-width="0.523"></path>
            <polyline id="Fill-147" fill="#687498" points="417.142 252.575 414.793 257.226 419.996 256.935 417.142 252.575"></polyline>
            <polyline id="Fill-148" fill="#908D9A" points="442.75 247.82 457.12 257.226 442.75 247.82"></polyline>
            <path d="M442.75,247.82 L453.982,255.172" id="Stroke-149" stroke="#293051" stroke-width="0.523"></path>
            <polyline id="Fill-150" fill="#687498" points="451.918 256.935 457.12 257.226 454.771 252.575 451.918 256.935"></polyline>
            <polyline id="Fill-151" fill="#908D9A" points="435.957 247.82 435.957 257.226 435.957 247.82"></polyline>
            <path d="M435.957,247.82 L435.957,253.476" id="Stroke-152" stroke="#293051" stroke-width="0.523"></path>
            <polyline id="Fill-153" fill="#687498" points="433.351 252.714 435.957 257.226 438.563 252.714 433.351 252.714"></polyline>
            <polyline id="Fill-154" fill="#908D9A" points="409.045 269.245 394.675 278.651 409.045 269.245"></polyline>
            <path d="M409.045,269.245 L397.813,276.597" id="Stroke-155" stroke="#293051" stroke-width="0.523"></path>
            <polyline id="Fill-156" fill="#687498" points="397.023 274 394.675 278.651 399.877 278.36 397.023 274"></polyline>
            <polyline id="Fill-157" fill="#908D9A" points="415.838 269.245 415.838 278.651 415.838 269.245"></polyline>
            <path d="M415.838,269.245 L415.838,274.901" id="Stroke-158" stroke="#293051" stroke-width="0.523"></path>
            <polyline id="Fill-159" fill="#687498" points="413.232 274.139 415.838 278.651 418.444 274.139 413.232 274.139"></polyline>
            <polyline id="Fill-160" fill="#908D9A" points="437.524 269.245 437.524 278.651 437.524 269.245"></polyline>
            <path d="M437.524,269.245 L437.524,274.901" id="Stroke-161" stroke="#293051" stroke-width="0.523"></path>
            <polyline id="Fill-162" fill="#687498" points="434.919 274.139 437.524 278.651 440.13 274.139 434.919 274.139"></polyline>
            <polygon id="Fill-163" fill="#F4B83B" points="405.126 265.587 423.862 265.587 423.862 259.055 405.126 259.055"></polygon>
            <polygon id="Fill-164" fill="#C83739" points="450.065 265.587 468.802 265.587 468.802 259.055 450.065 259.055"></polygon>
            <polygon id="Fill-165" fill="#4A5987" points="427.335 265.587 446.071 265.587 446.071 259.055 427.335 259.055"></polygon>
            <polygon id="Fill-166" fill="#557AB0" points="450.065 298.769 468.802 298.769 468.802 292.237 450.065 292.237"></polygon>
            <polygon id="Fill-167" fill="#687498" points="390.233 286.75 401.468 286.75 401.468 280.48 390.233 280.48"></polygon>
            <polygon id="Fill-168" fill="#687498" points="409.438 286.75 420.672 286.75 420.672 280.48 409.438 280.48"></polygon>
            <polyline id="Fill-169" fill="#908D9A" points="463.913 268.722 478.283 278.128 463.913 268.722"></polyline>
            <path d="M463.913,268.722 L475.146,276.075" id="Stroke-170" stroke="#293051" stroke-width="0.523"></path>
            <polyline id="Fill-171" fill="#687498" points="473.081 277.837 478.283 278.128 475.935 273.477 473.081 277.837"></polyline>
            <polyline id="Fill-172" fill="#908D9A" points="457.12 268.722 457.12 278.128 457.12 268.722"></polyline>
            <path d="M457.12,268.722 L457.12,274.378" id="Stroke-173" stroke="#293051" stroke-width="0.523"></path>
            <polyline id="Fill-174" fill="#687498" points="454.515 273.616 457.12 278.128 459.726 273.616 454.515 273.616"></polyline>
            <polygon id="Fill-175" fill="#687498" points="471.49 286.228 482.726 286.228 482.726 279.957 471.49 279.957"></polygon>
            <polygon id="Fill-176" fill="#687498" points="452.286 286.228 463.521 286.228 463.521 279.957 452.286 279.957"></polygon>
            <polygon id="Fill-177" fill="#C83739" points="450.065 310.004 468.802 310.004 468.802 303.472 450.065 303.472"></polygon>
            <polyline id="Fill-178" fill="#908D9A" points="463.913 313.14 478.283 322.545 463.913 313.14"></polyline>
            <path d="M463.913,313.14 L475.146,320.492" id="Stroke-179" stroke="#293051" stroke-width="0.523"></path>
            <polyline id="Fill-180" fill="#687498" points="473.081 322.254 478.283 322.545 475.935 317.894 473.081 322.254"></polyline>
            <polyline id="Fill-181" fill="#908D9A" points="457.12 313.14 457.12 322.545 457.12 313.14"></polyline>
            <path d="M457.12,313.14 L457.12,318.795" id="Stroke-182" stroke="#293051" stroke-width="0.523"></path>
            <polyline id="Fill-183" fill="#687498" points="454.515 318.033 457.12 322.545 459.726 318.033 454.515 318.033"></polyline>
            <polygon id="Fill-184" fill="#557AB0" points="471.49 330.645 482.726 330.645 482.726 324.374 471.49 324.374"></polygon>
            <polygon id="Fill-185" fill="#557AB0" points="452.286 330.645 463.521 330.645 463.521 324.374 452.286 324.374"></polygon>
            <polygon id="Fill-186" fill="#C83739" points="431.907 286.75 443.142 286.75 443.142 280.48 431.907 280.48"></polygon>
            <polygon id="Fill-187" fill="#557AB0" points="389.711 307.392 423.677 307.392 423.677 291.976 389.711 291.976"></polygon>
            <polyline id="Stroke-188" stroke="#293051" stroke-width="0.523" points="424.983 300.859 437.785 300.859 437.609 293.112"></polyline>
            <polyline id="Fill-189" fill="#687498" points="440.231 293.815 437.524 289.363 435.021 293.934 440.231 293.815"></polyline>
            <polyline id="Stroke-190" stroke="#293051" stroke-width="0.523" points="470.968 306.346 483.771 306.346 483.594 298.599"></polyline>
            <polyline id="Fill-191" fill="#687498" points="486.217 299.302 483.509 294.85 481.007 299.42 486.217 299.302"></polyline>
            <polygon id="Fill-192" fill="#F4B83B" points="389.711 329.338 423.677 329.338 423.677 322.006 389.711 322.006"></polygon>
            <polygon id="Fill-193" fill="#C83739" points="389.711 318.888 423.677 318.888 423.677 311.556 389.711 311.556"></polygon>
            <polyline id="Stroke-194" stroke="#293051" stroke-width="0.523" points="424.983 322.807 437.785 322.807 437.609 315.06"></polyline>
            <polyline id="Fill-195" fill="#687498" points="440.231 315.763 437.524 311.311 435.021 315.881 440.231 315.763"></polyline>
            <path d="M581.192,369.395 L593.194,362.525 C594.594,361.725 596.314,362.125 597.018,363.415 L597.147,363.651 C597.851,364.941 597.281,366.652 595.882,367.453 L583.881,374.323 C582.481,375.124 580.761,374.724 580.057,373.434 L579.928,373.197 C579.224,371.907 579.793,370.196 581.192,369.395" id="Fill-196" fill="#EBA38B"></path>
            <path d="M606.996,373.326 C606.996,373.326 601.283,380.608 599.688,382.754 C596.601,386.905 594.053,388.282 591.219,386.734 L586.504,382.025 C584.314,379.019 583.429,377.485 584.996,374.632 L590.156,365.243 C591.724,362.391 595.324,361.324 598.158,362.872 L603.815,365.963 C606.649,367.511 608.563,370.473 606.996,373.326" id="Fill-197" fill="#EBA38B"></path>
            <path d="M594.168,371.335 L586.26,380.617 C585.027,382.154 583.207,382.764 582.214,381.971 C581.221,381.179 581.417,379.272 582.648,377.735 L590.558,368.453 C591.79,366.916 593.61,366.306 594.604,367.099 C595.596,367.891 595.4,369.798 594.168,371.335" id="Fill-198" fill="#EBA38B"></path>
            <path d="M596.623,375.028 L588.715,384.309 C587.482,385.847 585.661,386.457 584.669,385.664 C583.676,384.871 583.871,382.965 585.104,381.427 L593.013,372.146 C594.244,370.608 596.065,369.999 597.058,370.792 C598.051,371.584 597.855,373.49 596.623,375.028" id="Fill-199" fill="#EBA38B"></path>
            <path d="M599.802,379.483 L591.893,388.765 C590.66,390.303 588.84,390.912 587.847,390.12 C586.854,389.327 587.05,387.421 588.282,385.883 L596.19,376.602 C597.423,375.064 599.243,374.455 600.236,375.247 C601.229,376.04 601.033,377.946 599.802,379.483" id="Fill-200" fill="#EBA38B"></path>
            <path d="M630.394,332.778 C628.917,337.439 627.343,342.017 625.118,346.261 C623.918,348.564 622.581,350.781 621.105,352.905 L605.011,376.062 C604.053,377.441 602.792,378.365 601.399,378.837 C598.801,379.715 595.743,378.995 593.334,376.627 C589.632,372.98 591.771,369.308 594.521,365.356 C594.521,365.356 612.637,339.918 613.707,337.294 C614.688,334.906 628.959,272.968 628.959,272.968 C630.487,265.496 630.099,261.423 634.249,259.611 C638.391,257.788 641.926,265.874 643.929,270.935 C643.929,270.935 641.667,297.203 630.394,332.778" id="Fill-201" fill="#EBA38B"></path>
            <path d="M621.594,295.239 C624.606,280.565 627.188,271.002 628.639,263.638 C630.091,256.274 636.715,253.127 643.555,261.323 C650.394,269.518 642.595,288.496 639.247,307.359 C637.27,318.496 629.763,336.792 629.763,336.792 L613.707,327.896 C613.707,327.896 618.665,309.512 621.594,295.239" id="Fill-202" fill="#A72E2E"></path>
            <polyline id="Fill-203" fill="#FFFFFE" points="614.484 321.942 623.53 325.851 624.495 332.789 629.261 327.592 634.371 329.672 631.249 339.165 611.429 330.506 614.484 321.942"></polyline>
            <path d="M692.224,157.005 C691.279,165.894 683.308,172.333 674.419,171.388 C665.53,170.443 659.091,162.471 660.036,153.583 C660.981,144.694 668.953,138.255 677.841,139.2 C686.729,140.145 693.169,148.117 692.224,157.005" id="Fill-204" fill="#AA4E41"></path>
            <path d="M668.994,222.41 C668.838,222.653 668.847,219.71 668.861,215.219 C668.915,202.877 668.97,178.824 665.469,176.99 C655.847,171.959 616.773,199.417 614.369,188.628 C613.798,186.108 613.498,183.487 613.471,180.814 C613.465,180.257 613.474,179.701 613.495,179.153 C613.653,174.809 614.543,170.657 616.05,166.831 C617.336,163.583 619.047,160.553 621.129,157.837 L621.138,157.824 C628.234,148.567 639.543,142.767 652.082,143.217 C652.651,143.234 653.211,143.272 653.778,143.311 C668.826,144.527 681.588,153.762 686.995,167.539 C688.693,171.842 689.671,176.598 689.773,181.687 C690.402,212.648 672.642,216.887 668.994,222.41" id="Fill-205" fill="#CD6C4B"></path>
            <path d="M668.994,222.41 C668.838,222.653 668.847,219.71 668.861,215.219 L669.141,214.229 C669.141,214.229 681.178,206.467 685.073,190.243 C687.853,178.661 687.453,170.987 686.995,167.539 C688.693,171.842 689.671,176.598 689.773,181.687 C690.402,212.648 672.642,216.887 668.994,222.41" id="Fill-206" fill="#AA4E41"></path>
            <path d="M652.938,273.119 C658.563,273.717 663.655,269.604 664.254,263.978 L669.021,219.144 C669.619,213.519 665.505,208.426 659.88,207.828 C654.254,207.23 649.161,211.343 648.563,216.969 L643.797,261.803 C643.198,267.429 647.312,272.521 652.938,273.119" id="Fill-207" fill="#EBA38B"></path>
            <path d="M672.156,204.372 C672.126,204.723 672.083,205.059 672.031,205.407 C672.021,205.515 672.001,205.628 671.982,205.735 C671.35,210.051 669.83,214.071 667.646,217.6 C667.541,217.777 667.429,217.946 667.316,218.122 C663.769,223.59 658.604,227.801 652.572,230.039 L652.55,230.05 C650.215,230.916 647.746,231.478 645.199,231.692 C644.266,231.767 643.335,231.813 642.395,231.813 C642.076,231.809 641.767,231.797 641.443,231.777 C641.313,231.778 641.248,231.771 641.248,231.771 C639.868,231.689 638.532,231.533 637.217,231.249 C636.84,231.187 636.464,231.118 636.092,231.013 C623.839,228.076 614.755,217.178 613.748,204.129 C613.643,202.737 613.614,201.301 613.701,199.871 L613.832,197.686 L614.664,183.126 C614.782,180.932 615.036,178.811 615.499,176.777 C615.841,175.193 616.337,173.654 616.992,172.183 C618.712,168.322 620.864,164.891 623.881,162.094 C629.517,156.848 637.129,153.831 645.208,154.249 C651.259,154.56 656.782,156.767 661.321,160.273 C661.976,160.784 662.613,161.322 663.226,161.886 C666.291,164.693 668.772,168.162 670.472,172.046 L670.476,172.076 C670.925,173.093 671.332,174.156 671.659,175.232 C671.718,175.426 671.778,175.606 671.828,175.822 C672.225,177.123 672.566,178.468 672.804,179.839 C672.858,180.141 672.913,180.451 672.959,180.759 C673.224,182.43 673.345,184.143 673.261,185.884 L673.25,186.194 L673.109,188.667 L673.021,190.322 L673.02,190.336 L673.018,190.423 L673.002,190.703 L672.958,191.458 L672.956,191.472 L672.489,199.336 L672.35,201.94 L672.288,202.925 L672.266,203.139 L672.251,203.348 C672.235,203.693 672.206,204.037 672.156,204.372" id="Fill-208" fill="#F4C2AA"></path>
            <path d="M674.265,203.323 C674.015,203.361 673.751,203.384 673.476,203.391 C673.357,203.415 673.215,203.399 673.078,203.392 L672.251,203.348 L671.229,203.297 L671.436,199.384 L671.879,191.401 L672.958,191.458 L673.741,191.505 C673.914,191.509 674.064,191.525 674.228,191.557 L674.234,191.558 C674.471,191.583 674.704,191.629 674.931,191.682 L674.938,191.683 C676.096,191.951 677.118,192.537 677.882,193.385 C678.896,194.527 679.496,195.958 679.409,197.591 C679.248,200.467 677.029,202.901 674.265,203.323" id="Fill-209" fill="#F3BEB4"></path>
            <path d="M628.54,203.747 C628.54,203.747 628.66,205.977 631.771,206.203 C634.505,206.402 634.98,204.523 634.98,204.523 L628.54,203.747" id="Fill-210" fill="#EBA38B"></path>
            <path d="M671.334,178.293 C671.334,178.293 619.353,165.562 614.474,176.114 C614.474,176.114 613.576,164.766 630.055,154.942 C646.533,145.119 672.498,157.526 674.157,162.663 C675.815,167.8 675.138,171.586 675.138,171.586 L671.334,178.293" id="Fill-211" fill="#CD6C4B"></path>
            <path d="M640.349,187.731 C640.349,187.731 647.133,185.365 652.424,190.027 M617.288,184.845 C617.288,184.845 623.817,182.404 629.434,186.708" id="Stroke-212" stroke="#AA4E41" stroke-width="1.079" stroke-linecap="round"></path>
            <path d="M644.302,198.058 C645.051,198.138 645.729,197.59 645.81,196.84 L646.077,194.319 C646.157,193.57 645.609,192.892 644.859,192.812 C644.11,192.732 643.432,193.28 643.353,194.03 L643.084,196.55 C643.005,197.3 643.553,197.978 644.302,198.058" id="Fill-213" fill="#0F1126"></path>
            <path d="M623.227,195.817 C623.977,195.897 624.654,195.349 624.734,194.6 L625.002,192.079 C625.082,191.329 624.534,190.651 623.784,190.571 C623.035,190.492 622.356,191.04 622.277,191.789 L622.009,194.31 C621.93,195.059 622.478,195.737 623.227,195.817" id="Fill-214" fill="#0F1126"></path>
            <path d="M690.671,291.972 L685.104,385.533 L685.018,385.533 L665.941,384.713 L620.4,382.764 L624.407,335.044 L620.861,291.23 C620.789,290.562 620.775,289.885 620.81,289.217 C622.343,265.22 631.241,247.167 648.232,241.972 L646.584,272.104 C648.634,272.104 663.898,242.151 665.833,242.482 C668.797,243.001 671.479,244.129 673.904,245.791 C684.672,253.157 690.103,270.953 690.671,291.972" id="Fill-215" fill="#C83739"></path>
            <path d="M625.67,210.331 L637.779,212.101 C637.779,212.101 635.73,215.499 630.962,214.992 C627.117,214.583 625.67,210.331 625.67,210.331" id="Fill-216" fill="#C83739"></path>
            <path d="M674.265,203.323 C674.015,203.361 673.751,203.384 673.476,203.391 C673.357,203.415 673.215,203.399 673.078,203.392 L672.251,203.348 C672.235,203.693 672.206,204.037 672.156,204.372 C672.126,204.723 672.083,205.059 672.031,205.407 C672.021,205.515 672.001,205.628 671.982,205.735 C671.35,210.051 669.83,214.071 667.646,217.6 C667.541,217.777 667.429,217.946 667.316,218.122 C663.769,223.59 658.604,227.801 652.572,230.039 L652.55,230.05 C650.215,230.916 647.746,231.478 645.199,231.692 C644.266,231.767 643.335,231.813 642.395,231.813 C642.076,231.809 641.767,231.797 641.443,231.777 C642.937,231.813 651.659,230.756 658.554,220.819 C666.029,210.041 668.781,188.692 668.781,188.692 C668.781,188.692 668.678,179.458 669.215,179.515 C669.386,179.533 670.923,180.051 672.959,180.759 C673.224,182.43 673.345,184.143 673.261,185.884 L673.25,186.194 L673.109,188.667 L673.021,190.322 L673.02,190.336 L673.018,190.423 L673.002,190.703 L672.958,191.458 L673.741,191.505 C673.914,191.509 674.064,191.525 674.228,191.557 L674.234,191.558 C674.471,191.583 674.704,191.629 674.931,191.682 L674.938,191.683 C676.096,191.951 677.118,192.537 677.882,193.385 C678.896,194.527 679.496,195.958 679.409,197.591 C679.248,200.467 677.029,202.901 674.265,203.323" id="Fill-217" fill="#EBA38B"></path>
            <path d="M621.719,172.657 C621.277,176.805 617.558,179.81 613.41,179.369 C609.262,178.928 606.257,175.208 606.698,171.06 C607.139,166.912 610.858,163.907 615.007,164.348 C619.154,164.789 622.16,168.509 621.719,172.657" id="Fill-218" fill="#CD6C4B"></path>
            <path d="M634.976,172.137 C634.534,176.285 630.814,179.29 626.667,178.849 C622.519,178.408 619.514,174.688 619.954,170.54 C620.396,166.392 624.115,163.387 628.264,163.828 C632.411,164.269 635.417,167.989 634.976,172.137" id="Fill-219" fill="#CD6C4B"></path>
            <path d="M649.351,173.002 C648.91,177.15 645.19,180.156 641.042,179.714 C636.895,179.273 633.889,175.553 634.33,171.405 C634.771,167.257 638.491,164.252 642.639,164.693 C646.787,165.134 649.792,168.854 649.351,173.002" id="Fill-220" fill="#CD6C4B"></path>
            <path d="M664.232,175.911 C663.792,180.059 660.071,183.064 655.924,182.623 C651.775,182.182 648.771,178.462 649.212,174.314 C649.652,170.166 653.373,167.161 657.521,167.602 C661.669,168.043 664.674,171.763 664.232,175.911" id="Fill-221" fill="#CD6C4B"></path>
            <path d="M663.162,170.673 L669.017,197.083 C669.373,198.688 671.583,198.883 672.214,197.365 L680.537,177.343 C680.537,177.343 674.321,156.428 663.162,170.673" id="Fill-222" fill="#CD6C4B"></path>
            <polyline id="Fill-223" fill="#FFFFFE" points="668.286 242.252 668.646 234.699 655.938 234.699 649.703 254.84 648.265 234.939 643.47 234.699 642.031 288.648 668.286 242.252"></polyline>
            <path d="M635.395,409.894 L662.274,411.936 C674.149,412.838 684.395,407.394 685.049,399.37 L684.89,384.625 L616.535,383.429 L615.664,394.097 C615.01,402.121 623.521,408.991 635.395,409.894" id="Fill-224" fill="#0F1126"></path>
            <path d="M633.86,603.239 L632.123,603.239 C631.081,603.239 630.236,602.394 630.236,601.352 L630.236,575.022 L638.117,576.675 L635.738,601.532 C635.646,602.5 634.832,603.239 633.86,603.239" id="Fill-225" fill="#0F1126"></path>
            <path d="M614.718,573.407 L605.317,590.097 C603.727,592.714 600.941,594.359 597.895,594.48 C595.465,594.572 593.5,596.505 593.356,598.945 L593.355,598.957 C593.193,601.709 595.387,604.02 598.129,603.986 L605.743,603.977 C609.693,603.972 613.499,602.467 616.396,599.763 L636.986,580.541 C637.966,579.238 638.419,577.612 638.256,575.988 C637.887,572.312 634.533,569.697 630.898,570.252 L614.718,573.407" id="Fill-226" fill="#0F1126"></path>
            <path d="M614.241,571.278 L604.841,587.969 C603.25,590.585 600.464,592.23 597.418,592.352 C594.988,592.443 593.023,594.376 592.88,596.817 L592.879,596.829 C592.717,599.581 594.909,601.892 597.651,601.857 L603.107,601.851 C608.445,601.845 613.587,599.811 617.502,596.157 L636.51,578.413 C637.488,577.11 637.942,575.484 637.779,573.86 C637.41,570.184 634.057,567.569 630.422,568.124 L614.241,571.278" id="Fill-227" fill="#AA4E41"></path>
            <path d="M606.997,583.708 L611.241,586.293 M608.726,580.369 L612.971,582.955 M610.437,577.175 L614.682,579.761" id="Stroke-228" stroke="#0F1126" stroke-width="1.171" stroke-linecap="round"></path>
            <path d="M614.984,571.019 L635.575,571.463 L629.059,498.511 C628.668,495.951 628.621,493.35 628.916,490.78 L645.386,394.957 L616.011,391.567 L602.187,483.314 C601.57,488.684 601.671,494.122 602.485,499.474 L614.984,571.019" id="Fill-229" fill="#0F1126"></path>
            <polygon id="Fill-230" fill="#908D9A" points="612.888 571.781 637.291 571.781 637.291 566.634 612.888 566.634"></polygon>
            <path d="M681.522,604.764 L679.786,604.764 C678.744,604.764 677.899,603.919 677.899,602.877 L677.899,576.548 L685.779,578.2 L683.401,603.057 C683.309,604.025 682.495,604.764 681.522,604.764" id="Fill-231" fill="#0F1126"></path>
            <path d="M662.381,574.932 L652.98,591.623 C651.39,594.239 648.604,595.884 645.558,596.006 C643.128,596.097 641.163,598.03 641.02,600.471 L641.019,600.482 C640.856,603.235 643.049,605.545 645.791,605.511 L653.405,605.502 C657.356,605.498 661.161,603.992 664.059,601.288 L684.649,582.066 C685.628,580.763 686.082,579.137 685.919,577.514 C685.55,573.837 682.196,571.223 678.562,571.777 L662.381,574.932" id="Fill-232" fill="#0F1126"></path>
            <path d="M661.904,572.804 L652.504,589.494 C650.913,592.111 648.127,593.756 645.081,593.877 C642.651,593.969 640.686,595.902 640.542,598.342 L640.542,598.354 C640.38,601.106 642.572,603.417 645.314,603.383 L650.771,603.376 C656.108,603.37 661.25,601.336 665.165,597.682 L684.172,579.938 C685.151,578.635 685.604,577.009 685.442,575.385 C685.073,571.709 681.72,569.094 678.084,569.649 L661.904,572.804" id="Fill-233" fill="#AA4E41"></path>
            <path d="M654.659,585.233 L658.904,587.819 M656.389,581.894 L660.633,584.479 M658.1,578.7 L662.345,581.286" id="Stroke-234" stroke="#0F1126" stroke-width="1.171" stroke-linecap="round"></path>
            <polyline id="Fill-235" fill="#0F1126" points="662.838 572.353 683.365 572.48 684.636 392.76 650.47 391.002 662.838 572.353"></polyline>
            <polygon id="Fill-236" fill="#908D9A" points="661.694 572.925 684.763 572.925 684.763 567.587 661.694 567.587"></polygon>
            <polygon id="Fill-237" fill="#687498" points="620.092 387.555 685.55 387.555 685.55 380.721 620.092 380.721"></polygon>
            <path d="M672.085,380.721 L665.402,380.721 C665.331,376.643 664.67,339.031 664.33,327.132 C663.97,314.544 679.435,278.218 679.435,278.218 C679.435,278.218 684.938,288.706 690.017,302.955 L685.43,380.002 L672.085,380.721" id="Fill-238" fill="#992B37"></path>
            <path d="M665.408,381.081 C665.408,381.081 665.406,380.957 665.402,380.721 L672.085,380.721 L665.408,381.081" id="Fill-239" fill="#5F5171"></path>
            <path d="M625.005,373.84 L638.722,370.052 C640.321,369.61 641.945,370.436 642.332,371.887 L642.402,372.153 C642.789,373.605 641.796,375.154 640.196,375.596 L626.48,379.385 C624.881,379.826 623.256,379 622.87,377.549 L622.799,377.283 C622.413,375.831 623.405,374.282 625.005,373.84" id="Fill-240" fill="#F4C2AA"></path>
            <path d="M631.772,408.489 C630.929,409.067 629.951,409.477 628.874,409.664 L600.886,414.602 C596.841,415.316 592.991,412.62 592.277,408.575 L583.811,360.619 C583.096,356.574 585.796,352.717 589.838,352.011 L590.152,351.952 L617.826,347.073 C621.871,346.358 625.72,349.055 626.438,353.092 L634.901,401.055 C635.417,404.028 634.103,406.892 631.772,408.489" id="Fill-241" fill="#BCBCBC"></path>
            <path d="M609.362,368.723 C609.74,370.693 608.749,372.539 607.148,372.846 C605.547,373.153 603.943,371.805 603.565,369.834 C603.188,367.864 604.179,366.019 605.78,365.711 C607.381,365.405 608.984,366.753 609.362,368.723" id="Fill-242" fill="#FFFFFE"></path>
            <path d="M637.429,395.327 L626.897,403.183 C625.158,404.568 623.033,404.742 622.18,403.578 C621.898,403.193 621.787,402.721 621.825,402.196 C621.903,401.127 622.614,399.858 623.792,398.934 L631.108,393.475 L630.565,392.543 L620.255,400.251 C618.517,401.618 616.392,401.801 615.539,400.628 C615.258,400.244 615.146,399.771 615.185,399.246 C615.262,398.177 615.972,396.927 617.15,395.993 L627.923,387.944 L627.852,387.802 C627.737,387.494 627.621,387.203 627.515,386.922 L619.015,393.27 C617.266,394.654 615.132,394.827 614.279,393.654 C614.006,393.279 613.896,392.797 613.934,392.272 C614.012,391.204 614.731,389.945 615.899,389.019 L626.922,380.789 L627.085,380.673 C627.34,380.182 627.677,379.678 628.152,379.148 L637.429,395.327" id="Fill-243" fill="#687498"></path>
            <path d="M649.878,384.182 C649.878,384.182 642.357,389.952 640.229,391.674 C636.112,395.006 633.221,395.73 630.766,393.49 L627.206,387.656 C625.755,384.136 625.247,382.397 627.521,379.97 L635.008,371.978 C637.282,369.551 641.152,369.396 643.607,371.636 L648.511,376.107 C650.966,378.347 652.152,381.754 649.878,384.182" id="Fill-244" fill="#F4C2AA"></path>
            <path d="M629.221,385.23 L619.008,392.428 C617.394,393.64 615.42,393.787 614.621,392.755 C613.822,391.723 614.489,389.888 616.103,388.676 L626.315,381.478 C627.93,380.267 629.903,380.119 630.702,381.151 C631.501,382.183 630.834,384.019 629.221,385.23" id="Fill-245" fill="#F4C2AA"></path>
            <path d="M630.41,391.379 L620.197,398.577 C618.584,399.789 616.61,399.936 615.812,398.904 C615.013,397.872 615.679,396.036 617.293,394.825 L627.506,387.627 C629.119,386.415 631.094,386.268 631.893,387.3 C632.691,388.332 632.024,390.167 630.41,391.379" id="Fill-246" fill="#F4C2AA"></path>
            <path d="M636.594,393.991 L626.381,401.188 C624.767,402.4 622.793,402.547 621.994,401.516 C621.195,400.483 621.862,398.648 623.477,397.436 L633.689,390.239 C635.303,389.027 637.276,388.88 638.075,389.912 C638.874,390.943 638.207,392.779 636.594,393.991" id="Fill-247" fill="#F4C2AA"></path>
            <path d="M683.324,349.948 C680.87,354.292 677.987,358.319 674.711,361.959 C672.94,363.935 671.054,365.792 669.052,367.523 L647.214,386.39 C645.913,387.514 644.423,388.112 642.912,388.23 C640.092,388.448 637.208,386.972 635.379,384.027 C632.571,379.496 635.621,376.401 639.353,373.182 L658.955,354.292 C661.061,352.188 662.975,349.958 664.694,347.632 C666.268,345.517 667.674,343.321 668.933,341.051 C675.612,328.969 677.909,314.887 675.973,300.856 L672.801,277.895 C672.037,272.39 675.155,267.313 679.759,266.561 C684.356,265.793 688.716,269.648 689.472,275.152 L692.65,298.122 C695.217,316.726 691.727,335.132 683.324,349.948" id="Fill-248" fill="#F4C2AA"></path>
            <path d="M670.707,338.064 L685.1,346.961 C682.645,351.305 680.225,355.539 676.948,359.179 L665.587,346.409 L670.707,338.064" id="Fill-249" fill="#EBA38B"></path>
            <path d="M673.555,324.889 C673.704,324.215 676.396,320.71 674.233,306.013 C672.07,291.316 669.269,275.879 672.54,268.962 C675.813,262.045 684.378,258.513 689.204,268.327 C694.03,278.14 696.087,313.371 694.563,324.8 C693.041,336.229 684.001,352.652 684.001,352.652 L666.468,339.838 C666.468,339.838 671.84,332.612 673.555,324.889" id="Fill-250" fill="#C83739"></path>
            <polyline id="Fill-251" fill="#FFFFFE" points="669.623 334.528 677.718 340.655 676.971 347.756 683.027 343.811 687.632 347.146 682.16 355.749 664.447 342.23 669.623 334.528"></polyline>
            <path d="M582.357,381.349 C583.119,382.11 584.365,382.11 585.127,381.349 L587.861,378.614 C588.623,377.853 588.623,376.606 587.861,375.845 C587.1,375.083 585.854,375.083 585.093,375.845 L582.357,378.58 C581.597,379.341 581.597,380.587 582.357,381.349" id="Fill-252" fill="#F4C2AA"></path>
            <path d="M584.62,385.814 C585.382,386.575 586.628,386.575 587.389,385.814 L590.124,383.079 C590.885,382.318 590.885,381.072 590.124,380.31 C589.362,379.549 588.116,379.549 587.354,380.31 L584.62,383.045 C583.858,383.806 583.858,385.052 584.62,385.814" id="Fill-253" fill="#F4C2AA"></path>
            <path d="M586.334,389.876 C587.095,390.638 588.341,390.638 589.103,389.876 L591.837,387.142 C592.599,386.38 592.599,385.135 591.837,384.373 C591.075,383.612 589.829,383.612 589.068,384.373 L586.334,387.108 C585.572,387.869 585.572,389.115 586.334,389.876" id="Fill-254" fill="#F4C2AA"></path>
            <path d="M184.1,330.444 L184.1,299.604 L191.856,293.271 L191.856,320.814 C189.235,324.099 186.629,327.332 184.1,330.444" id="Fill-255" fill="#424968"></path>
            <path d="M191.856,320.814 L191.856,293.271 L205.091,282.465 C205.27,287.446 208.57,291.69 213.077,293.28 C206.82,301.802 199.277,311.514 191.856,320.814 M216.993,282.039 L205.613,282.039 L210.31,278.204 L216.819,275.253 L216.993,282.039 M225.904,274.169 C225.232,273.411 224.466,272.737 223.624,272.168 L227.67,270.334 C227.348,271.334 226.746,272.628 225.904,274.169" id="Fill-256" fill="#65697D"></path>
            <path d="M213.077,293.28 C208.57,291.69 205.27,287.446 205.091,282.465 L205.613,282.039 L216.993,282.039 L216.819,275.253 L223.624,272.168 C224.466,272.737 225.232,273.411 225.904,274.169 C223.399,278.753 218.77,285.525 213.077,293.28" id="Fill-257" fill="#492030"></path>
            <path d="M211.501,269.348 L223.024,258.971 C224.072,258.027 224.157,256.397 223.213,255.349 C222.27,254.301 220.64,254.216 219.592,255.16 L208.068,265.537 C207.021,266.48 206.936,268.11 207.879,269.159 C208.823,270.207 210.453,270.292 211.501,269.348" id="Fill-258" fill="#EBA38B"></path>
            <path d="M203.418,275.299 L210.723,261.621 C211.388,260.376 210.913,258.815 209.669,258.15 C208.425,257.486 206.863,257.96 206.199,259.205 L198.894,272.883 C198.229,274.127 198.704,275.689 199.948,276.353 C201.192,277.018 202.754,276.543 203.418,275.299" id="Fill-259" fill="#EBA38B"></path>
            <path d="M213.58,274.767 L227.643,262.971 C228.724,262.065 228.866,260.439 227.959,259.358 C227.053,258.278 225.428,258.135 224.347,259.042 L210.284,270.837 C209.203,271.743 209.062,273.369 209.968,274.45 C210.874,275.53 212.5,275.673 213.58,274.767" id="Fill-260" fill="#EBA38B"></path>
            <path d="M213.609,282.131 L227.672,270.336 C228.752,269.429 228.895,267.804 227.988,266.723 C227.082,265.643 225.456,265.5 224.376,266.406 L210.313,278.202 C209.232,279.108 209.09,280.734 209.996,281.814 C210.902,282.895 212.528,283.038 213.609,282.131" id="Fill-261" fill="#EBA38B"></path>
            <path d="M211.762,262.154 C211.6,262.282 209.591,263.48 207.409,264.772 C203.644,267.003 200.462,270.101 198.129,273.804 L193.66,280.896 C193.66,280.896 204.055,289.585 204.59,289.308 C213.422,284.728 219.753,276.751 219.753,276.751 L211.762,262.154" id="Fill-262" fill="#EBA38B"></path>
            <polyline id="Fill-263" fill="#FFFFFE" points="190.76 278.474 196.671 273.674 210.112 291.22 202.404 296.063 190.76 278.474"></polyline>
            <path d="M207.259,295.627 C207.259,295.627 170.23,324.786 170.111,324.889 C158.9,334.033 142.212,336.508 130.467,327.926 C128.707,326.64 124.7,322.761 123.102,320.914 C121.092,318.588 103.523,286.082 103.523,286.082 L117.833,253.293 C117.833,253.293 138.092,295.916 139.336,298.242 C141.467,302.226 145.407,305.714 147.553,306.042 C151.299,306.664 153.49,306.019 156.514,304.291 C171.417,295.807 192.28,275.8 192.28,275.8 L207.259,295.627" id="Fill-264" fill="#14151C"></path>
            <path d="M100.876,561.646 C100.748,563.356 100.073,587.763 100.073,587.763 L118.124,588.099 L117.725,557.507 L100.876,561.646" id="Fill-265" fill="#45172D"></path>
            <path d="M92.559,395.725 C92.528,395.931 92.546,397.064 92.606,399.007 C93.49,427.43 98.471,582.463 98.471,582.463 L121.754,581.672 L127.912,400.179 L92.559,395.725" id="Fill-266" fill="#1F202B"></path>
            <path d="M98.401,602.718 L146.023,603.062 C148.862,603.083 151.18,600.784 151.199,597.927 C151.213,595.728 149.843,593.758 147.783,593.019 L124.275,584.582 L98.518,585.027 L98.401,602.718" id="Fill-267" fill="#79462F"></path>
            <path d="M146.956,604.399 L98.758,604.41 L98.755,600.935 L150.421,600.923 L150.421,600.932 C150.422,602.846 148.871,604.399 146.956,604.399" id="Fill-268" fill="#0F1126"></path>
            <path d="M123.698,591.586 L129.286,585.573 M127.797,593.324 L133.385,587.31 M131.723,595.649 L138.013,588.831" id="Stroke-269" stroke="#0F1126" stroke-width="1.147" stroke-linecap="round"></path>
            <path d="M60.012,561.348 C59.913,563.05 59.669,587.322 59.669,587.322 L77.723,587.337 L76.784,556.936 L60.012,561.348" id="Fill-270" fill="#45172D"></path>
            <path d="M48.773,396.569 C48.745,396.774 48.782,397.901 48.877,399.831 C50.262,428.067 57.973,582.083 57.973,582.083 L81.238,580.884 L84.198,400.371 L48.773,396.569" id="Fill-271" fill="#1F202B"></path>
            <path d="M57.894,602.312 L105.48,604.151 C108.318,604.261 110.708,602.049 110.817,599.212 C110.901,597.026 109.595,595.027 107.559,594.227 L84.332,585.104 L58.573,584.736 L57.894,602.312" id="Fill-272" fill="#955E40"></path>
            <path d="M106.383,605.51 L58.196,604.004 L58.305,600.551 L109.944,602.165 C109.884,604.071 108.29,605.569 106.383,605.51" id="Fill-273" fill="#0F1126"></path>
            <path d="M83.532,592.046 L89.309,586.247 M87.574,593.901 L93.351,588.102 M91.424,596.336 L97.928,589.758" id="Stroke-274" stroke="#0F1126" stroke-width="1.143" stroke-linecap="round"></path>
            <path d="M129.16,391.613 C129.66,396.792 128.275,401.715 125.571,405.71 C122.115,410.834 116.467,414.436 109.82,415.078 L73.845,418.554 C72.774,418.658 71.72,418.679 70.68,418.619 C68.003,418.498 65.437,417.861 63.085,416.814 C62.666,416.636 62.256,416.435 61.856,416.22 C55.626,412.975 51.106,406.736 50.381,399.225 L49.937,387.746 L127.366,379.586 L129.16,391.613" id="Fill-275" fill="#1F202B"></path>
            <path d="M87.055,256.157 L83.745,256.744 C77.971,257.769 72.408,253.882 71.384,248.107 L65.066,212.493 C64.043,206.718 67.93,201.156 73.704,200.131 L77.014,199.544 C82.788,198.52 88.351,202.407 89.375,208.181 L95.691,243.796 C96.716,249.57 92.829,255.133 87.055,256.157" id="Fill-276" fill="#EBA38B"></path>
            <path d="M119.837,167.698 C119.897,168.272 119.946,168.848 119.984,169.425 C120.148,172.207 120.024,174.959 119.618,177.624 C117.896,189.025 111.171,198.999 101.527,204.929 C96.74,207.878 91.229,209.825 85.26,210.457 C75.596,211.479 68.006,216.657 60.619,211.509 C58.237,209.852 56.044,207.949 54.098,205.807 C53.332,204.963 52.601,204.103 51.913,203.204 C47.715,197.718 43.28,183.245 42.501,175.88 C40.304,155.109 54.883,136.43 75.321,133.331 C75.905,133.245 76.49,133.171 77.077,133.109 C90.095,131.732 102.28,136.941 110.338,146.063 L110.351,146.073 C112.709,148.753 114.714,151.779 116.282,155.064 C118.127,158.937 119.36,163.194 119.837,167.698" id="Fill-277" fill="#1F182C"></path>
            <path d="M70.236,184.602 C70.339,185.443 70.289,186.276 70.081,187.068 C69.854,188.014 69.435,189.053 68.829,189.833 C67.731,191.235 66.132,192.367 64.223,192.601 L60.12,193.108 L56.974,193.503 L55.794,184.167 L55.806,184.166 L55.581,182.44 L55.413,181.1 L55.265,179.872 L55.22,179.555 L55.231,179.553 L62.469,178.652 C64.297,178.42 66.047,178.923 67.432,179.92 C68.271,180.526 68.971,181.331 69.471,182.252 C69.877,182.97 70.132,183.75 70.236,184.602" id="Fill-278" fill="#F3BEB4"></path>
            <path d="M118.907,171.917 L120.795,187.015 L121.08,189.275 C121.273,190.762 121.342,192.26 121.321,193.715 C121.099,207.387 111.933,219.476 98.774,223.528 C98.381,223.667 97.971,223.775 97.569,223.87 C96.154,224.272 94.704,224.541 93.206,224.737 C91.753,224.925 90.324,224.992 88.894,224.979 C86.104,224.963 83.376,224.576 80.776,223.864 L80.752,223.856 C69.428,220.767 60.373,211.62 57.88,199.788 C57.805,199.43 57.731,199.083 57.679,198.72 C57.582,198.308 57.528,197.876 57.476,197.444 L57.436,197.219 L57.301,196.198 L56.974,193.503 L55.799,184.26 L55.794,184.167 L55.792,184.156 L55.581,182.44 L55.413,181.1 L55.265,179.872 L55.231,179.553 C54.979,177.414 55.044,175.289 55.315,173.221 C55.488,171.773 55.769,170.341 56.115,168.956 C56.156,168.728 56.203,168.534 56.259,168.326 C56.544,167.185 56.91,166.039 57.331,164.943 L57.339,164.918 C58.931,160.734 61.4,156.917 64.554,153.745 C65.185,153.11 65.842,152.495 66.517,151.91 C71.227,147.893 77.103,145.144 83.67,144.327 C92.453,143.234 100.947,145.757 107.443,150.759 C110.925,153.428 113.502,156.826 115.63,160.711 C116.45,162.191 117.087,163.75 117.572,165.372 C118.208,167.453 118.632,169.643 118.907,171.917" id="Fill-279" fill="#F4C2AA"></path>
            <path d="M58.946,183.736 L60.12,193.108 L60.906,199.437 L58.419,199.75 C58.236,199.771 58.055,199.792 57.88,199.788 C53.683,200.021 49.921,196.822 49.393,192.665 C49.115,190.508 49.79,188.553 51.06,186.935 C52.196,185.491 53.861,184.533 55.794,184.167 L55.806,184.166 C56.026,184.103 56.218,184.069 56.447,184.052 L58.946,183.736" id="Fill-280" fill="#F3BEB4"></path>
            <path d="M92.318,224.778 C92.318,224.778 86.756,226.152 80.776,223.864 L80.752,223.856 C69.428,220.767 60.373,211.62 57.88,199.788 C53.683,200.021 49.921,196.822 49.393,192.665 C49.115,190.508 49.79,188.553 51.06,186.935 C52.196,185.491 53.861,184.533 55.794,184.167 L55.792,184.156 L55.581,182.44 L55.413,181.1 L55.265,179.872 L55.22,179.555 L55.231,179.553 C54.979,177.414 55.044,175.289 55.315,173.221 C59.15,170.09 63.404,168.871 66.814,173.759 C66.814,173.759 66.994,176.212 67.432,179.92 C67.75,182.697 68.203,186.17 68.829,189.833 C70.096,197.366 72.038,205.695 74.879,210.452 C80.931,220.608 92.318,224.778 92.318,224.778" id="Fill-281" fill="#EBA38B"></path>
            <path d="M115.661,173.607 L105.716,175.371 C104.735,175.545 103.791,174.885 103.617,173.904 C103.443,172.924 104.104,171.979 105.084,171.806 L115.028,170.042 C116.009,169.868 116.954,170.528 117.128,171.508 C117.302,172.489 116.642,173.433 115.661,173.607" id="Fill-282" fill="#1F182C"></path>
            <path d="M91.456,177.9 L81.511,179.664 C80.53,179.838 79.586,179.178 79.412,178.198 C79.238,177.217 79.898,176.273 80.878,176.099 L90.823,174.335 C91.804,174.161 92.748,174.821 92.922,175.801 C93.096,176.782 92.437,177.727 91.456,177.9" id="Fill-283" fill="#1F182C"></path>
            <path d="M97.378,203.033 C99.34,205.024 101.611,205.511 104.018,205.21 C106.887,204.852 109.869,203.011 110.438,200.559 L97.378,203.033" id="Fill-284" fill="#FFFFFE"></path>
            <path d="M107.057,192.926 L106.863,192.954 C107.101,194.562 105.939,196.077 102.492,196.586 L99.854,184.056 C104.336,188.051 106.342,190.356 107.057,192.926" id="Fill-285" fill="#EBA38B"></path>
            <path d="M51.938,408.319 C51.938,408.319 83.571,404.889 83.19,403.745 C82.809,402.602 82.809,389.262 82.809,389.262 C82.809,389.262 107.964,385.07 107.964,386.594 C107.964,388.119 110.251,399.934 110.251,399.934 L128.927,396.504 L128.546,376.685 L47.363,385.07 L51.938,408.319" id="Fill-286" fill="#0F121F"></path>
            <polyline id="Fill-287" fill="#FFFFFE" points="112.823 379.185 75.094 382.958 62.203 228.895 73.836 228.266 84.841 257.035 87.26 228.182 97.103 227.323 112.823 379.185"></polyline>
            <path d="M82.954,399.605 C82.954,399.605 74.02,400.906 67.568,402.057 C65.315,402.453 62.749,402.83 59.938,403.132 C55.995,403.547 51.561,403.811 46.808,403.736 C46.516,403.736 46.242,403.632 45.977,403.547 L38.3,302.46 C38.205,301.667 38.12,300.885 38.036,300.13 C36.328,284.68 36.856,275.908 36.649,262.598 C36.611,260.684 36.573,258.665 36.498,256.533 C36.451,255.26 36.593,254.071 36.875,252.939 C38.366,247.006 43.978,242.866 50.118,239.781 C53.816,237.933 57.702,236.452 60.984,235.216 C62.513,234.631 62.195,234.892 62.984,234.169 L82.954,399.605" id="Fill-288" fill="#1F202B"></path>
            <path d="M133.496,393.455 L127.253,394.038 L112.915,395.364 C112.915,395.364 96.198,233.972 97.674,234.521 C100.178,235.458 102.876,236.91 105.528,238.809 C110.972,242.685 116.22,248.436 119.158,255.434 C120.004,257.423 120.656,259.527 121.057,261.711 L121.113,261.963 C123.606,275.752 133.496,393.455 133.496,393.455" id="Fill-289" fill="#1F202B"></path>
            <path d="M87.871,266.69 C87.963,267.728 87.196,268.644 86.158,268.735 C85.121,268.827 84.205,268.06 84.113,267.022 C84.021,265.984 84.788,265.068 85.826,264.977 C86.864,264.885 87.78,265.652 87.871,266.69" id="Fill-290" fill="#908D9A"></path>
            <path d="M89.546,285.638 C89.638,286.676 88.871,287.592 87.833,287.683 C86.795,287.775 85.879,287.008 85.788,285.97 C85.696,284.932 86.463,284.017 87.501,283.925 C88.539,283.833 89.454,284.6 89.546,285.638" id="Fill-291" fill="#908D9A"></path>
            <path d="M91.221,304.586 C91.313,305.624 90.545,306.54 89.507,306.631 C88.47,306.723 87.554,305.956 87.462,304.918 C87.37,303.88 88.138,302.965 89.175,302.873 C90.213,302.781 91.129,303.548 91.221,304.586" id="Fill-292" fill="#908D9A"></path>
            <path d="M92.895,323.535 C92.986,324.572 92.22,325.488 91.182,325.58 C90.144,325.671 89.229,324.904 89.137,323.867 C89.045,322.829 89.812,321.913 90.85,321.821 C91.888,321.729 92.803,322.497 92.895,323.535" id="Fill-293" fill="#908D9A"></path>
            <path d="M94.569,342.482 C94.661,343.521 93.894,344.436 92.856,344.528 C91.818,344.62 90.902,343.853 90.811,342.815 C90.719,341.777 91.486,340.861 92.524,340.77 C93.562,340.678 94.478,341.445 94.569,342.482" id="Fill-294" fill="#908D9A"></path>
            <polyline id="Fill-295" fill="#FFFFFE" points="73.836 228.266 72.265 239.271 63.642 239.363 62.203 228.895 73.836 228.266"></polyline>
            <polyline id="Fill-296" fill="#FFFFFE" points="87.26 228.182 90.736 237.62 97.686 237.527 98.518 227.008 87.26 228.182"></polyline>
            <path d="M54.343,181.732 L55.893,189.262 C56.226,190.877 57.977,191.762 59.474,191.07 C60.199,190.736 60.725,190.087 60.898,189.308 C61.675,185.829 64.035,175.811 66.604,170.414 C69.749,163.811 77.295,163.497 77.295,163.497 L87.327,165.918 C90.495,166.683 93.075,163.337 91.529,160.468 L91.129,159.724 L104.038,162.703 C106.834,163.348 108.586,160.607 107.726,157.87 L107.793,157.837 C108.303,158.007 115.236,158.177 121.504,158.297 C125.082,158.366 126.724,153.886 123.96,151.612 C116.2,145.224 103.91,136.453 93.33,134.885 C76.352,132.37 54.657,152.807 53.085,157.523 C51.513,162.239 54.343,181.732 54.343,181.732" id="Fill-297" fill="#1F182C"></path>
            <path d="M89.214,188.666 C88.494,188.817 87.782,188.353 87.63,187.634 L86.982,184.557 C86.83,183.838 87.295,183.126 88.015,182.974 C88.733,182.823 89.445,183.287 89.598,184.006 L90.245,187.083 C90.397,187.802 89.933,188.514 89.214,188.666" id="Fill-298" fill="#0F1126"></path>
            <path d="M112.244,184.028 C111.525,184.18 110.813,183.715 110.661,182.996 L110.013,179.919 C109.861,179.201 110.326,178.488 111.045,178.336 C111.765,178.185 112.477,178.649 112.628,179.369 L113.276,182.445 C113.428,183.165 112.964,183.877 112.244,184.028" id="Fill-299" fill="#0F1126"></path>
            <path d="M54.804,402.924 C50.86,403.339 51.561,403.811 46.808,403.736 C46.516,403.736 46.242,403.632 45.977,403.547 L37.825,298.854 C37.73,298.061 41.997,291.748 41.912,290.993 C45.129,302.369 57.614,402.623 54.804,402.924" id="Fill-300" fill="#14151C"></path>
            <path d="M50.203,390.807 L68.415,398.467 C69.745,399.026 71.291,398.396 71.851,397.065 C72.412,395.73 71.785,394.192 70.449,393.63 L52.237,385.971 C50.907,385.411 49.361,386.042 48.802,387.372 C48.243,388.702 48.873,390.248 50.203,390.807" id="Fill-301" fill="#F4C2AA"></path>
            <path d="M105.433,426.192 L64.98,452.197 C60.597,455.015 54.758,453.746 51.939,449.362 L36.527,425.387 C33.709,421.003 34.978,415.165 39.362,412.346 L79.814,386.341 C84.198,383.523 90.037,384.792 92.856,389.176 L108.268,413.151 C111.086,417.535 109.816,423.374 105.433,426.192" id="Fill-302" fill="#BCBCBC"></path>
            <path d="M46.148,407.984 C42.429,404.294 38.299,398.669 42.265,394.57 C42.427,394.401 43.597,393.11 45.04,391.511 L45.977,403.547 C46.242,403.632 46.516,403.736 46.808,403.736 C46.831,403.736 46.854,403.737 46.877,403.737 C47.398,403.745 47.914,403.749 48.426,403.749 C48.641,403.749 48.856,403.748 49.07,403.747 C49.087,404.092 49.104,404.448 49.122,404.812 C48.62,404.951 48.15,405.246 47.781,405.693 C47.383,406.176 47.161,406.765 47.109,407.366 L46.148,407.984" id="Fill-303" fill="#BAB8B3"></path>
            <path d="M50.865,404.952 C50.526,404.796 50.164,404.719 49.803,404.719 C49.574,404.719 49.345,404.75 49.122,404.812 C49.104,404.448 49.087,404.092 49.07,403.747 C49.731,403.742 50.385,403.732 51.032,403.716 L51.229,404.717 L50.865,404.952" id="Fill-304" fill="#4F4D51"></path>
            <path d="M51.229,404.717 L51.032,403.716 C51.656,403.7 52.274,403.68 52.883,403.654 L51.229,404.717" id="Fill-305" fill="#41404A"></path>
            <path d="M48.426,403.749 C47.914,403.749 47.398,403.745 46.877,403.737 C47.191,403.742 47.48,403.744 47.748,403.744 C51.122,403.744 51.17,403.39 53.842,403.038 L52.883,403.654 C52.274,403.68 51.656,403.7 51.032,403.716 C50.385,403.732 49.731,403.742 49.07,403.747 C48.856,403.748 48.641,403.749 48.426,403.749 M55.103,402.227 C55.311,400.849 55.214,397.5 54.887,392.777 L62.442,395.955 C62.335,395.941 62.226,395.934 62.117,395.934 C61.213,395.934 60.235,396.399 59.499,397.278 C58.81,398.099 58.475,399.115 58.507,400.039 L55.103,402.227" id="Fill-306" fill="#4F4D51"></path>
            <path d="M47.748,403.744 C47.48,403.744 47.191,403.742 46.877,403.737 C46.854,403.737 46.831,403.736 46.808,403.736 C46.516,403.736 46.242,403.632 45.977,403.547 L45.04,391.511 C46.255,390.166 47.664,388.602 48.83,387.308 C48.82,387.329 48.811,387.35 48.802,387.372 C48.243,388.702 48.873,390.248 50.203,390.807 L54.887,392.777 C55.214,397.5 55.311,400.849 55.103,402.227 L53.842,403.038 C51.17,403.39 51.122,403.744 47.748,403.744 M53.015,386.298 L52.237,385.971 C51.908,385.832 51.565,385.766 51.228,385.766 C50.755,385.766 50.292,385.895 49.889,386.132 C50.696,385.235 51.229,384.642 51.229,384.642 L53.015,386.298" id="Fill-307" fill="#484648"></path>
            <path d="M62.843,396.042 C62.713,396.001 62.579,395.972 62.442,395.955 L50.203,390.807 C48.873,390.248 48.243,388.702 48.802,387.372 C48.811,387.35 48.82,387.329 48.83,387.308 C49.214,386.881 49.573,386.483 49.889,386.132 C50.292,385.895 50.755,385.766 51.228,385.766 C51.565,385.766 51.908,385.832 52.237,385.971 L53.015,386.298 L57.944,390.868 C59.631,392.432 61.293,394.192 62.843,396.042" id="Fill-308" fill="#B89C8E"></path>
            <path d="M59.993,413.548 L51.603,405.458 C51.378,405.241 51.128,405.073 50.865,404.952 L51.229,404.717 L52.883,403.654 L53.842,403.038 L55.103,402.227 L58.507,400.039 C58.532,400.765 58.783,401.435 59.268,401.911 L65.045,407.581 C64.819,407.885 64.585,408.191 64.345,408.497 L61.729,405.976 C61.216,405.48 60.572,405.237 59.93,405.237 C59.184,405.237 58.441,405.566 57.908,406.211 C56.917,407.412 57.015,409.27 58.126,410.341 L60.677,412.8 C60.434,413.068 60.205,413.319 59.993,413.548 M47.617,409.369 C47.149,408.948 46.653,408.484 46.148,407.984 L47.109,407.366 C47.049,408.066 47.221,408.783 47.617,409.369" id="Fill-309" fill="#9A9896"></path>
            <path d="M58.507,400.039 C58.475,399.115 58.81,398.099 59.499,397.278 C60.235,396.399 61.213,395.934 62.117,395.934 C62.226,395.934 62.335,395.941 62.442,395.955 L63.569,396.428 C63.626,396.475 63.682,396.524 63.735,396.577 L63.798,396.638 L58.507,400.039" id="Fill-310" fill="#4F4D51"></path>
            <path d="M63.569,396.428 L62.442,395.955 C62.579,395.972 62.713,396.001 62.843,396.042 C63.104,396.124 63.349,396.252 63.569,396.428" id="Fill-311" fill="#B89C8E"></path>
            <path d="M75.972,417.359 C75.367,417.359 74.795,417.15 74.354,416.716 L59.268,401.911 C58.783,401.435 58.532,400.765 58.507,400.039 L63.798,396.638 L78.821,411.382 C79.923,412.463 79.819,414.548 78.59,416.015 C77.854,416.894 76.875,417.359 75.972,417.359" id="Fill-312" fill="#9A9896"></path>
            <path d="M72.138,422.855 C71.496,422.855 70.852,422.612 70.339,422.117 L58.126,410.341 C57.015,409.27 56.917,407.412 57.908,406.211 C58.441,405.566 59.184,405.237 59.93,405.237 C60.572,405.237 61.216,405.48 61.729,405.976 L64.345,408.497 L73.942,417.751 C75.053,418.822 75.151,420.681 74.16,421.881 C73.627,422.526 72.884,422.855 72.138,422.855" id="Fill-313" fill="#9A9896"></path>
            <path d="M64.254,424.5 C63.612,424.5 62.969,424.256 62.455,423.761 L47.999,409.824 C47.854,409.684 47.727,409.532 47.617,409.369 C47.221,408.783 47.049,408.066 47.109,407.366 L50.865,404.952 C51.128,405.073 51.378,405.241 51.603,405.458 L66.059,419.395 C67.169,420.467 67.268,422.325 66.276,423.526 C65.743,424.171 65,424.5 64.254,424.5" id="Fill-314" fill="#9A9896"></path>
            <path d="M47.109,407.366 C47.161,406.765 47.383,406.176 47.781,405.693 C48.15,405.246 48.62,404.951 49.122,404.812 C49.142,405.208 49.162,405.615 49.183,406.033 L47.109,407.366" id="Fill-315" fill="#BAB8B3"></path>
            <path d="M49.183,406.033 C49.162,405.615 49.142,405.208 49.122,404.812 C49.345,404.75 49.574,404.719 49.803,404.719 C50.164,404.719 50.526,404.796 50.865,404.952 L49.183,406.033" id="Fill-316" fill="#4F4D51"></path>
            <path d="M58.076,411.901 C58.161,411.709 67.994,402.54 66.537,400.395 C64.109,396.823 60.812,393.142 57.412,390.226 L50.903,384.643 C50.903,384.643 42.66,393.119 42.215,393.545 C36.009,399.482 50.261,408.988 50.261,408.988 C50.261,408.988 56.181,416.207 58.076,411.901" id="Fill-317" fill="#F4C2AA"></path>
            <path d="M58.574,400.255 L73.316,413.408 C74.394,414.369 76.061,414.273 77.021,413.197 C77.981,412.12 77.886,410.453 76.81,409.493 L62.066,396.34 C60.99,395.38 59.323,395.475 58.362,396.551 C57.402,397.628 57.497,399.295 58.574,400.255" id="Fill-318" fill="#F4C2AA"></path>
            <path d="M57.589,407.69 L69.426,418.25 C70.503,419.211 72.169,419.116 73.13,418.04 C74.091,416.963 73.995,415.296 72.919,414.335 L61.081,403.775 C60.005,402.814 58.338,402.909 57.377,403.986 C56.417,405.063 56.512,406.729 57.589,407.69" id="Fill-319" fill="#F4C2AA"></path>
            <path d="M47.773,407.226 L61.784,419.726 C62.861,420.686 64.527,420.591 65.488,419.514 C66.449,418.438 66.354,416.771 65.277,415.811 L51.266,403.311 C50.189,402.35 48.522,402.445 47.563,403.522 C46.602,404.599 46.696,406.265 47.773,407.226" id="Fill-320" fill="#F4C2AA"></path>
            <polyline id="Fill-321" fill="#FFFFFE" points="55.529 384.687 53.633 382.994 49.418 379.246 37.357 392.767 34.834 395.604 35.645 396.325 37.418 397.917 40.936 401.05 41.608 400.293 50.107 390.761 53.549 386.907 53.799 386.631 55.529 384.687"></polyline>
            <path d="M52.063,260.258 L42.674,249.008 L41.1,247.671 C40.903,247.902 38.221,251.082 34.437,256.267 C31.208,260.697 27.163,266.599 23.171,273.394 C10.948,294.198 5.23,312.829 6.164,328.782 C8.104,361.937 33.105,395.992 34.167,397.425 L35.645,396.325 L38.364,394.311 L49.563,386.009 L51.14,384.851 L53.633,382.994 L55.326,381.743 C55.126,381.462 33.945,352.491 32.463,327.238 C31.337,307.993 40.41,287.922 50.177,275.114 C51.571,273.296 51.009,261.498 52.063,260.258" id="Fill-322" fill="#1F202B"></path>
            <path d="M90.376,410.439 C90.376,412.386 88.886,413.964 87.048,413.964 C85.209,413.964 83.719,412.386 83.719,410.439 C83.719,408.493 85.209,406.915 87.048,406.915 C88.886,406.915 90.376,408.493 90.376,410.439" id="Fill-323" fill="#FFFFFE"></path>
        </g>
    </g>
</svg>