<?xml version="1.0" encoding="UTF-8"?>
<svg width="20px" height="20px" viewBox="0 0 20 20" version="1.1" xmlns="http://www.w3.org/2000/svg" xmlns:xlink="http://www.w3.org/1999/xlink">
    <!-- Generator: Sketch 48.2 (47327) - http://www.bohemiancoding.com/sketch -->
    <title>worldwide</title>
    <desc>Created with Sketch.</desc>
    <defs></defs>
    <g id="Page-1" stroke="none" stroke-width="1" fill="none" fill-rule="evenodd">
        <g id="worldwide" fill-rule="nonzero">
            <path d="M3.42199593,3.56643585 C6.95763747,-0.0506720978 12.7743381,-0.119918534 16.391446,3.41572301 L15.3608961,3.42794297 C15.1368635,3.43201629 14.9617108,3.61124236 14.9617108,3.83527495 C14.9657841,4.05523422 15.1450102,4.23446029 15.3649695,4.23446029 L15.3690428,4.23446029 L17.3731161,4.21002037 C17.5971487,4.20594705 17.7723014,4.02672098 17.7723014,3.80268839 L17.7478615,1.79861507 C17.7437882,1.57458248 17.5645621,1.39535642 17.3405295,1.39942974 C17.1164969,1.40350305 16.9413442,1.58272912 16.9413442,1.80676171 L16.9535642,2.83731161 C13.0187373,-1.00790224 6.68879837,-0.930509165 2.84358452,3.00431772 C1.51160896,4.36887984 0.599185336,6.07152749 0.212219959,7.93303462 C-0.166598778,9.74566191 -0.0362525458,11.619389 0.586965377,13.3586965 C0.648065173,13.5216293 0.802851324,13.6275356 0.965784114,13.6275356 C1.01059063,13.6275356 1.05539715,13.619389 1.10020367,13.6030957 C1.30794297,13.529776 1.41792261,13.2975967 1.34460285,13.0857841 C0.151120163,9.74973523 0.945417515,6.10004073 3.42199593,3.56643585 Z" id="Shape" fill="#2C2F33"></path>
            <path d="M3.01059063,17.122444 C4.88839104,18.9554379 7.36089613,19.9615479 9.98004073,19.9615479 C10.0207739,19.9615479 10.0574338,19.9615479 10.098167,19.9615479 C12.7661914,19.9289613 15.2590631,18.8658248 17.1205703,16.9554379 C18.4566191,15.5908758 19.3649695,13.8841548 19.7519348,12.0226477 C20.1307536,10.2100204 20.0004073,8.33629328 19.3771894,6.59698574 C19.3038697,6.38924644 19.0716904,6.2792668 18.8598778,6.35258656 C18.6521385,6.42590631 18.5421589,6.65808554 18.6154786,6.86989817 C19.8130346,10.205947 19.0187373,13.8556415 16.5421589,16.3892464 C14.8272912,18.1407739 12.5380855,19.122444 10.085947,19.1509572 C7.63788187,19.1794705 5.32423625,18.2507536 3.57270876,16.5399593 L4.60325866,16.5277393 C4.82729124,16.523666 5.00244399,16.3444399 5.00244399,16.1204073 C4.99837067,15.9004481 4.8191446,15.721222 4.59918534,15.721222 L4.59511202,15.721222 L2.5910387,15.7456619 C2.48513238,15.7456619 2.38329939,15.7904684 2.30590631,15.8678615 C2.23258656,15.9452546 2.19185336,16.0470876 2.19185336,16.1529939 L2.21629328,18.1570672 C2.2203666,18.3770265 2.39959267,18.5562525 2.61955193,18.5562525 L2.62362525,18.5562525 C2.84765784,18.5521792 3.02281059,18.3729532 3.02281059,18.1489206 L3.01059063,17.122444 Z" id="Shape" fill="#2C2F33"></path>
            <path d="M15.5604888,7.66419552 C14.6684318,5.51755601 12.6480652,4.09189409 10.3507128,3.95340122 C10.3099796,3.9493279 10.2651731,3.9493279 10.2203666,3.94525458 C10.2162933,3.94525458 10.2081466,3.94525458 10.2040733,3.94525458 C10.1796334,3.94525458 10.1551935,3.94118126 10.1307536,3.94118126 C10.1266802,3.94118126 10.1226069,3.94118126 10.1185336,3.94118126 C10.0737271,3.94118126 10.0289206,3.93710794 9.98004073,3.93710794 C9.18574338,3.93710794 8.41181263,4.09189409 7.67454175,4.39739308 C6.18370672,5.01246436 5.02281059,6.17336049 4.40773931,7.66419552 C3.7885947,9.15503055 3.7885947,10.7965784 4.40773931,12.2833401 C5.34460285,14.5481059 7.53604888,16.014501 9.98818737,16.014501 C10.0207739,16.014501 10.0492872,16.014501 10.0818737,16.0104277 C10.098167,16.0104277 10.1185336,16.014501 10.1348269,16.014501 C10.1429735,16.014501 10.1511202,16.014501 10.1551935,16.0104277 C10.1918534,16.0104277 10.2244399,16.0063544 10.2610998,16.0063544 C10.2733198,16.0063544 10.2855397,16.0063544 10.301833,16.0063544 C10.314053,16.0063544 10.3221996,16.0063544 10.3344196,16.0022811 C11.0065173,15.9656212 11.6663951,15.8149084 12.2977597,15.5542159 C13.7885947,14.9391446 14.9494908,13.7782485 15.5645621,12.2874134 C16.1796334,10.7965784 16.1837067,9.15503055 15.5645621,7.66826884 C15.5604888,7.66826884 15.5604888,7.66826884 15.5604888,7.66419552 C15.5604888,7.66826884 15.5604888,7.66826884 15.5604888,7.66419552 Z M7.87820774,5.19169043 C7.43014257,5.77417515 7.07169043,6.53588595 6.83543788,7.41979633 L5.42199593,7.41979633 C5.97189409,6.43405295 6.82729124,5.65604888 7.87820774,5.19169043 Z M5.05539715,8.23038697 L6.66028513,8.23038697 C6.56659878,8.78028513 6.51771894,9.36684318 6.51771894,9.98191446 C6.51771894,10.5888391 6.5706721,11.1794705 6.67250509,11.733442 L5.05539715,11.733442 C4.64806517,10.5929124 4.64806517,9.36684318 5.05539715,8.23038697 Z M5.42199593,12.5358859 L6.8598778,12.5358859 C7.11242363,13.4360896 7.49531568,14.2140937 7.96374745,14.8087984 C6.89653768,14.3607332 5.99633401,13.5705092 5.42199593,12.5358859 Z M9.72749491,15.1509572 C8.88431772,14.9024847 8.13482688,13.8923014 7.70712831,12.5358859 L9.72749491,12.5358859 L9.72749491,15.1509572 Z M9.72749491,11.7293686 L7.499389,11.7293686 C7.38533605,11.1753971 7.32423625,10.5847658 7.32423625,9.97784114 C7.32423625,9.36276986 7.38126273,8.77213849 7.4790224,8.22631365 L9.72749491,8.22631365 L9.72749491,11.7293686 Z M9.72749491,7.42386965 L7.67046843,7.42386965 C8.08187373,6.02264766 8.83136456,5.03283096 9.72749491,4.80472505 L9.72749491,7.42386965 Z M14.5462322,7.41979633 L13.4260692,7.41979633 C13.2183299,6.64179226 12.9209776,5.96154786 12.5462322,5.41572301 C13.3731161,5.88008147 14.0696538,6.56847251 14.5462322,7.41979633 Z M10.5340122,4.80065173 C11.4301426,5.03283096 12.1755601,6.02264766 12.5910387,7.41979633 L10.5340122,7.41979633 L10.5340122,4.80065173 Z M10.5340122,8.23038697 L12.7824847,8.23038697 C12.8843177,8.77621181 12.9372709,9.36276986 12.9372709,9.98191446 C12.9372709,10.5888391 12.8761711,11.1794705 12.7621181,11.733442 L10.5340122,11.733442 L10.5340122,8.23038697 Z M10.5340122,15.1509572 L10.5340122,12.5358859 L12.5543788,12.5358859 C12.1266802,13.8923014 11.3771894,14.9024847 10.5340122,15.1509572 Z M12.4647658,14.5847658 C12.8598778,14.026721 13.1816701,13.32611 13.4057026,12.5358859 L14.5462322,12.5358859 C14.0615071,13.4075764 13.3446029,14.1122607 12.4647658,14.5847658 Z M14.912831,11.7293686 L13.589002,11.7293686 C13.690835,11.1753971 13.7437882,10.5888391 13.7437882,9.97784114 C13.7437882,9.36276986 13.6949084,8.77621181 13.601222,8.22631365 L14.912831,8.22631365 C15.3201629,9.36684318 15.3201629,10.5929124 14.912831,11.7293686 Z" id="Shape" fill="#3C92CA"></path>
        </g>
    </g>
</svg>